<mxfile host="Electron" agent="Mozilla/5.0 (Macintosh; Intel Mac OS X 10_15_7) AppleWebKit/537.36 (KHTML, like Gecko) draw.io/24.7.17 Chrome/128.0.6613.36 Electron/32.0.1 Safari/537.36" version="24.7.17">
  <diagram name="Page-1" id="ZqCd0pRORCUUzhp86Xhz">
    <mxGraphModel dx="1233" dy="708" grid="1" gridSize="10" guides="1" tooltips="1" connect="1" arrows="1" fold="1" page="1" pageScale="1" pageWidth="827" pageHeight="1169" math="0" shadow="0">
      <root>
        <mxCell id="0" />
        <mxCell id="1" parent="0" />
        <mxCell id="d-CWmxk7Mh6oMbrWVQdX-1" value="" style="shape=image;verticalLabelPosition=bottom;verticalAlign=top;imageAspect=0;aspect=fixed;image=data:image/svg+xml,PHN2ZyB4bWxucz0iaHR0cDovL3d3dy53My5vcmcvMjAwMC9zdmciIHZpZXdCb3g9IjAgMCA2Mi4zNjIyIDYyLjM2MjIiIHZlcnNpb249IjEuMSI+JiN4YTsgIDxkZWZzPiYjeGE7ICAgIDxzdHlsZT4mI3hhOyAgICAgIC5jbHMtMSB7JiN4YTsgICAgICAgIGZpbGw6ICNmZmY7JiN4YTsgICAgICB9JiN4YTsmI3hhOyAgICAgIC5jbHMtMiB7JiN4YTsgICAgICAgIGZpbGw6ICNkYTI5MWM7JiN4YTsgICAgICB9JiN4YTsgICAgPC9zdHlsZT4mI3hhOyAgPC9kZWZzPiYjeGE7ICAmI3hhOyAgPGc+JiN4YTsgICAgPGcgaWQ9IkViZW5lXzIiPiYjeGE7ICAgICAgPHBhdGggZD0iTTMxLjMxNDksNjIuMzYyMkMxMy40ODI4LDYyLjM2MjIsMCw0Ny41OTA1LDAsMzEuMzE0OCwwLDEyLjYzMjksMTUuNTU3MSwwLDMxLjA4MDcsMGMxOC42MDE2LDAsMzEuMjgxNSwxNS4zMzk5LDMxLjI4MTUsMzAuOTQ3MiwwLDE5LjA0OTUtMTUuNjU3NSwzMS40MTUtMzEuMDQ3MywzMS40MTVoMFoiIGNsYXNzPSJjbHMtMiIvPiYjeGE7ICAgICAgPHBvbHlnb24gcG9pbnRzPSIzMS4xODI1IDQyLjUxOTcgMjguNzk2IDQyLjUxOTcgMzEuMTgyNSAzOC40MjQxIDMxLjE4MjUgMzQuMzkzMSAyNi40NzQxIDQyLjQ4NzQgMjQuMTg0MyA0Mi40ODc0IDMxLjE4MjUgMzAuMjk3NSAzMS4xODI1IDI2LjIzNDIgMjEuNzk3OSA0Mi40ODc0IDE5LjQ0MzYgNDIuNDg3NCAzMS4xODI1IDIyLjI2NzYgMzEuMTgyNSAxOC4xNzIgMTcuMTIxNyA0Mi40ODc0IDE0Ljc2NzUgNDIuNDg3NCAzMS4xODI1IDE0LjE3MzIgNDcuNTMzMSA0Mi41MTk3IDMxLjE4MjUgNDIuNTE5NyIgY2xhc3M9ImNscy0xIi8+JiN4YTsgICAgPC9nPiYjeGE7ICA8L2c+JiN4YTs8L3N2Zz4=;" vertex="1" parent="1">
          <mxGeometry x="50" y="50" width="62" height="62" as="geometry" />
        </mxCell>
        <mxCell id="d-CWmxk7Mh6oMbrWVQdX-2" value="" style="shape=image;verticalLabelPosition=bottom;verticalAlign=top;imageAspect=0;aspect=fixed;image=data:image/svg+xml,PHN2ZyB4bWxucz0iaHR0cDovL3d3dy53My5vcmcvMjAwMC9zdmciIHZpZXdCb3g9IjAgMCA2Mi4zNjIyIDYyLjM2MjIiIHZlcnNpb249IjEuMSI+JiN4YTsgIDxkZWZzPiYjeGE7ICAgIDxzdHlsZT4mI3hhOyAgICAgIC5jbHMtMSB7JiN4YTsgICAgICAgIGZpbGw6ICNmZmY7JiN4YTsgICAgICB9JiN4YTsmI3hhOyAgICAgIC5jbHMtMiB7JiN4YTsgICAgICAgIGZpbGw6ICNkYTI5MWM7JiN4YTsgICAgICB9JiN4YTsgICAgPC9zdHlsZT4mI3hhOyAgPC9kZWZzPiYjeGE7ICAmI3hhOyAgPGc+JiN4YTsgICAgPGcgaWQ9IkViZW5lXzIiPiYjeGE7ICAgICAgPHBhdGggZD0iTTMxLjMxNDksNjIuMzYyMkMxMy40ODI4LDYyLjM2MjIsMCw0Ny41OTA1LDAsMzEuMzE0OCwwLDEyLjYzMjksMTUuNTU3MSwwLDMxLjA4MDcsMGMxOC42MDE2LDAsMzEuMjgxNSwxNS4zMzk5LDMxLjI4MTUsMzAuOTQ3MiwwLDE5LjA0OTUtMTUuNjU3NSwzMS40MTUtMzEuMDQ3MywzMS40MTVoMFoiIGNsYXNzPSJjbHMtMiIvPiYjeGE7ICAgICAgPHBhdGggZD0iTTE5LjEzMzMsNDEuMTQ3NWMtLjM1OTQsMC0zLjQyNTMtLjA2MzUtNS41MDU5LTIuMTEyMy0xLjI0MTctMS4yMjM2LTEuODcxNi0yLjg3NC0xLjg3MTYtNC45MDUzLDAtLjI1OTguMDE0Mi0uNTE5NS4wNDM1LS43NzgzLjAyODMtLjI1NjguMDcxMy0uNTEyNy4xMjg0LS43NjY2LjA1NzYtLjI1NDkuMTI4OS0uNTA0OS4yMTM0LS43NS4wODUtLjI0NjEuMTgzNi0uNDg2My4yOTU0LS43MjEyLjExMTMtLjIzNDkuMjM1OC0uNDYyOS4zNzMtLjY4NDYuMTM2Mi0uMjE5Ny4yODU2LS40MzM2LjQ0NzMtLjYzODcuMTU5Ny0uMjAzMS4zMzExLS4zOTg0LjUxMzctLjU4NC4xODEyLS4xODQ2LjM3My0uMzU4OS41NzUyLS41MjM0LjIwMTctLjE2NDEuNDExNi0uMzE2NC42MzA0LS40NTcuMjE3My0uMTQwNi40NDM4LS4yNjg2LjY3NjgtLjM4NDMuMjMzNC0uMTE1Ny40NzIyLS4yMTgzLjcxNjMtLjMwNzEuMjQzMi0uMDg4NC40OTEyLS4xNjM2Ljc0NDEtLjIyNTEuMjUyLS4wNjE1LjUwNzMtLjEwODQuNzY1Ni0uMTQxMS4yNTczLS4wMzMyLjUxNzEtLjA1MTguNzc3My0uMDU1Ny4xNDk0LS4wMDEuMzAxMy4wMDA1LjQ1MTcuMDA3My4wNDU5LS4zMTQuMTA0NS0uNjI2LjE3NDMtLjkzNDEuMTQ3LS42NTA0LjM1MTEtMS4yOTY5LjYwNi0xLjkyMDkuMjU0NC0uNjIyMS41NjItMS4yMjY2LjkxNDYtMS43OTY0LjM1MDYtLjU2ODguNzUyOS0xLjExNDMsMS4xOTU4LTEuNjIwNi40NDA5LS41MDQ0LjkyNzItLjk3NTYsMS40NDU4LTEuNDAxOS41MjA1LS40MjY4LDEuMDc4MS0uODEyLDEuNjU3Ny0xLjE0NS41ODItLjMzNSwxLjE5NTMtLjYyMywxLjgyMjgtLjg1Ni42Mjg5LS4yMzQ0LDEuMjgxMi0uNDE3NSwxLjkzNzUtLjU0NDQuNjU4Ny0uMTI3LDEuMzMxNS0uMjAwNywyLjAwMDUtLjIxNzguNjY1NS0uMDIxLDEuMzQ1Mi4wMjEsMi4wMDkzLjExNDcuNjYyMS4wOTI4LDEuMzIzMi4yNDIyLDEuOTYzOS40NDQzLjYzODcuMjAxMiwxLjI2NjYuNDU3LDEuODYzMy43NjEyLjU5NDcuMzAxOCwxLjE3MTkuNjU3NywxLjcxMzksMS4wNTc2LjUzODEuMzk3OSwxLjA0NzkuODQzOCwxLjUxNTYsMS4zMjUyLjQ2NDguNDc5NS44OTQ1LDEuMDAyOSwxLjI3ODMsMS41NTY2LjI1ODguMzc1NS40OTguNzY4MS43MTU4LDEuMTcyNC4wODMuMDAyOS4xNjYuMDA2OC4yNDkuMDEyMi4zMDM3LjAxOS42MDI1LjA1MjcuOTAxNC4xMDIxLjI5NjkuMDQ4OC41OTE4LjExMzMuODgyOC4xOTE5LjI5My4wNzk2LjU4MTEuMTcyOS44NjMzLjI4MTIuMjc5My4xMDY0LjU1NTcuMjI4LjgyNTIuMzYzOC4yNzA1LjEzNjIuNTMzMi4yODQ3Ljc4NzEuNDQ2OC4yNTU5LjE2MjEuNTAyLjMzNjQuNzM5My41MjM5LjIzNjMuMTg2LjQ2MzkuMzg0My42ODE2LjU5NDJzLjQyMzguNDI5Mi42MTkxLjY2MDJjLjE5NTMuMjMxOS4zNzc5LjQ3MTIuNTQ4OC43MTg4LjE3MjkuMjUxLjMzMTEuNTA3OC40NzY2Ljc3MzQuMTQzNi4yNjMyLjI3NTQuNTM0Mi4zOTM2LjgxMi4xMTgyLjI3OTMuMjIxNy41NjI1LjMxMDUuODQ5Ni4wODk4LjI5Mi4xNjUuNTgzNS4yMjQ2Ljg3ODkuMDYwNS4yOTY0LjEwNjQuNTk2Mi4xMzU3Ljg5NzkuMDI5My4yOTk4LjA0NDkuNjAwNi4wNDQ5LjkwMTksMCw2LjIzMzQtNC41NTI3LDkuMDIzNC05LjA2NTQsOS4wMjM0aC0yMi40MDc3Wk0xOC43NzEsMjkuMTExOGMtLjAyNzMsMC0uMDU0Ny4wMDA1LS4wODIuMDAxLS4xODc1LjAwMjktLjM3MjEuMDE1Ni0uNTU1Ny4wMzkxLS4xODQ2LjAyMzktLjM2NjcuMDU3MS0uNTQ2OS4xMDExLS4xODEyLjA0MzktLjM1ODkuMDk3Ny0uNTMzMi4xNjExLS4xNzUzLjA2NC0uMzQ1Ny4xMzcyLS41MTE3LjIxOTItLjE2NTUuMDgyLS4zMjY3LjE3MzgtLjQ4MjQuMjczOS0uMTU3Mi4xMDExLS4zMDc2LjIxMDQtLjQ1MTcuMzI3Ni0uMTQzNi4xMTY3LS4yODA4LjI0MTItLjQxMDYuMzc0LS4xMzEzLjEzMzMtLjI1MzkuMjcyNS0uMzY4Mi40MTg1LS4xMTYyLjE0Ny0uMjIxNy4yOTgzLS4zMTg4LjQ1NTYtLjA5OTEuMTU5Mi0uMTg3NS4zMjE4LS4yNjcxLjQ4OTMtLjA4MDEuMTY4NS0uMTUwNC4zNDAzLS4yMTA5LjUxNjEtLjA2MS4xNzU4LS4xMTE4LjM1NTUtLjE1MzMuNTM3MS0uMDQuMTc4Ny0uMDcxMy4zNjIzLS4wOTEzLjU0NjktLjAyMS4xODY1LS4wMzEyLjM3MjEtLjAzMTIuNTU3NiwwLDEuNDcwNy40MjU4LDIuNjM4NywxLjI2NjEsMy40NzE3LDEuNTY0OSwxLjU1MDgsNC4xNDAxLDEuNTQ4OCw0LjEzMDQsMS41NDU5aDIyLjM4ODdjMS4xNzk3LDAsNy4wNjU0LS4zMzg5LDcuMDY1NC03LjAyMzQsMC0uMjM1OC0uMDExNy0uNDcxMi0uMDM1Mi0uNzA1Ni0uMDIzNC0uMjMzNC0uMDU3Ni0uNDY0OC0uMTA0NS0uNjk0My0uMDQ3OS0uMjMyNC0uMTA1NS0uNDYwNC0uMTc1OC0uNjg2LS4wNjkzLS4yMjE3LS4xNDk0LS40NDM0LS4yNDEyLS42NjA2LS4wOTE4LS4yMTQ4LS4xOTQzLS40MjcyLS4zMDc2LS42MzM4LS4xMTMzLS4yMDctLjIzNjMtLjQwNjItLjM2OTEtLjU5OTYtLjEzMjgtLjE5MzgtLjI3NjQtLjM4MTMtLjQyODctLjU2MTUtLjE1MDQtLjE3NzItLjMxMTUtLjM0ODYtLjQ4MDUtLjUxMTdzLS4zNDU3LS4zMTc0LS41MzAzLS40NjI5Yy0uMTg1NS0uMTQ2LS4zNzctLjI4MTItLjU3NDItLjQwNzItLjE5OTItLjEyNi0uNDAzMy0uMjQyMi0uNjEzMy0uMzQ3Ny0uMjA5LS4xMDUtLjQyMjktLjE5OTItLjY0MjYtLjI4MjctLjIyMDctLjA4NTQtLjQ0NDMtLjE1NzItLjY2OTktLjIxODgtLjIyNTYtLjA2MDUtLjQ1NDEtLjExMDQtLjY4NTUtLjE0ODQtLjIzMzQtLjAzODYtLjQ2NTgtLjA2NDktLjcwMTItLjA3OTYtLjIzMTQtLjAxNTEtLjQ2NDgtLjAxODEtLjcwMjEtLjAwODMtLjQwNjIuMDE2MS0uNzcxNS0uMjEwOS0uOTQyNC0uNTczNy0uMjQwMi0uNTA5OC0uNTIzNC0xLjAwMTUtLjg0MDgtMS40NjE0LS4zMjAzLS40NjI0LS42ODA3LS45MDA5LTEuMDY4NC0xLjMwMTgtLjM5MDYtLjQwMjMtLjgxNzQtLjc3NTktMS4yNjc2LTEuMTA4NC0uNDUzMS0uMzM0LS45MzU1LS42MzEzLTEuNDMyNi0uODgzOC0uNDk5LS4yNTQ0LTEuMDIzNC0uNDY4My0xLjU1NzYtLjYzNjItLjUzNjEtLjE2ODktMS4wODc5LS4yOTM5LTEuNjQwNi0uMzcxNi0uNTU1Ny0uMDc3Ni0xLjEyMjEtLjExMDQtMS42ODA3LS4wOTYyLS41NTg2LjAxNDYtMS4xMjE2LjA3NjItMS42NzI5LjE4MjYtLjU0NzkuMTA1NS0xLjA5MjMuMjU4OC0xLjYxOTEuNDU1MS0uNTI0NC4xOTQ4LTEuMDM2Ni40MzU1LTEuNTIzNC43MTUzLS40ODQ0LjI3ODMtLjk1MDIuNjAwNi0xLjM4NTMuOTU3LS40MzM2LjM1Ni0uODQwMy43NTA1LTEuMjA5LDEuMTcyNC0uMzcwNi40MjMzLS43MDY1Ljg3OTQtMSwxLjM1NDUtLjI5NDkuNDc3NS0uNTUyMi45ODI5LS43NjUxLDEuNTAyOS0uMjEyOS41MjE1LS4zODMzLDEuMDYyNS0uNTA2OCwxLjYwNjQtLjEyNC41NDc0LS4yMDM2LDEuMTA4OS0uMjM2MywxLjY2OTktLjAxNzEuMjkwNS0uMTYwMi41NTkxLS4zOTE2LjczNTgtLjIzMS4xNzc3LS41Mjc4LjI0NTYtLjgxMy4xODQxLS4xODE2LS4wMzgxLS4zNjUyLS4wNjU5LS41NTAzLS4wODQtLjE1NTMtLjAxNDYtLjMxMjUtLjAyMjUtLjQ3MDItLjAyMjVaIiBjbGFzcz0iY2xzLTEiLz4mI3hhOyAgICA8L2c+JiN4YTsgIDwvZz4mI3hhOzwvc3ZnPg==;" vertex="1" parent="1">
          <mxGeometry x="130" y="50" width="62" height="62" as="geometry" />
        </mxCell>
        <mxCell id="d-CWmxk7Mh6oMbrWVQdX-3" value="" style="shape=image;verticalLabelPosition=bottom;verticalAlign=top;imageAspect=0;aspect=fixed;image=data:image/svg+xml,PHN2ZyB4bWxucz0iaHR0cDovL3d3dy53My5vcmcvMjAwMC9zdmciIHZpZXdCb3g9IjAgMCA2Mi4zNjIyIDYyLjM2MjIiIHZlcnNpb249IjEuMSI+JiN4YTsgIDxkZWZzPiYjeGE7ICAgIDxzdHlsZT4mI3hhOyAgICAgIC5jbHMtMSB7JiN4YTsgICAgICAgIGZpbGw6ICNmZmY7JiN4YTsgICAgICB9JiN4YTsmI3hhOyAgICAgIC5jbHMtMiB7JiN4YTsgICAgICAgIGZpbGw6ICNkYTI5MWM7JiN4YTsgICAgICB9JiN4YTsgICAgPC9zdHlsZT4mI3hhOyAgPC9kZWZzPiYjeGE7ICAmI3hhOyAgPGc+JiN4YTsgICAgPGcgaWQ9IkViZW5lXzIiPiYjeGE7ICAgICAgPHBhdGggZD0iTTMxLjI0MjgsNjIuMzYyMkMxMy40MTA3LDYyLjM2MjItLjA3MjEsNDcuNTkwNS0uMDcyMSwzMS4zMTQ4LS4wNzIxLDEyLjYzMjksMTUuNDg1LDAsMzEuMDA4NiwwYzE4LjYwMTYsMCwzMS4yODE1LDE1LjMzOTksMzEuMjgxNSwzMC45NDcyLDAsMTkuMDQ5NS0xNS42NTc1LDMxLjQxNS0zMS4wNDczLDMxLjQxNWgwWiIgY2xhc3M9ImNscy0yIi8+JiN4YTsgICAgICA8cGF0aCBkPSJNNDIuMjY3Niw0NC4xMzE1aC0yMi4xNzI5Yy0yLjc5MzUsMC01LjA2NTQtMi4yNzI1LTUuMDY1NC01LjA2NTR2LTE1Ljc3MDVjMC0yLjc5MywyLjI3Mi01LjA2NDksNS4wNjU0LTUuMDY0OWgyMi4xNzI5YzIuNzkzLDAsNS4wNjU0LDIuMjcyLDUuMDY1NCw1LjA2NDl2MTUuNzcwNWMwLDIuNzkzLTIuMjcyNSw1LjA2NTQtNS4wNjU0LDUuMDY1NFpNMjAuMDk0NywyMC4yMDkyYy0xLjcwMjEsMC0zLjA4NjksMS4zODQ4LTMuMDg2OSwzLjA4NjR2MTUuNzcwNWMwLDEuNzAyMSwxLjM4NDgsMy4wODY5LDMuMDg2OSwzLjA4NjloMjIuMTcyOWMxLjcwMjEsMCwzLjA4NjktMS4zODQ4LDMuMDg2OS0zLjA4Njl2LTE1Ljc3MDVjMC0xLjcwMTctMS4zODQ4LTMuMDg2NC0zLjA4NjktMy4wODY0aC0yMi4xNzI5WiIgY2xhc3M9ImNscy0xIi8+JiN4YTsgICAgICA8cGF0aCBkPSJNMjEuMDkwOCwyOS4wOTM4Yy4wODM1LjA4MjUuMjE2My4wODExLjI5OTMsMGwyLjY5MDktMi42OTA5Yy4xNzQzLS4xNzQzLjE3MzgtLjQ1OCwwLS42MzIzbC0yLjY5MDktMi42OTA0Yy0uMDgzLS4wODI1LS4yMTU4LS4wODQtLjI5OTMsMGwtLjU3NjcuNTc2MmMtLjA0LjA0LS4wNjI1LjA5MzMtLjA2MjUuMTQ5OSwwLC4wNTYyLjAyMi4xMDk0LjA2Mi4xNDk0bDEuODY2MiwxLjg2NjJjLjE0NjUuMTQ2NS4xNDY1LjM4MzgsMCwuNTMwM2wtMS44NjYyLDEuODY2MmMtLjA0LjA0LS4wNjIuMDkzMy0uMDYyLjE0OTQsMCwuMDU2Ni4wMjI1LjEwOTkuMDYyLjE0OTRsLjU3NzEuNTc2N1oiIGNsYXNzPSJjbHMtMSIvPiYjeGE7ICAgIDwvZz4mI3hhOyAgPC9nPiYjeGE7PC9zdmc+;" vertex="1" parent="1">
          <mxGeometry x="210" y="50" width="62" height="62" as="geometry" />
        </mxCell>
        <mxCell id="d-CWmxk7Mh6oMbrWVQdX-4" value="" style="shape=image;verticalLabelPosition=bottom;verticalAlign=top;imageAspect=0;aspect=fixed;image=data:image/svg+xml,PHN2ZyB4bWxucz0iaHR0cDovL3d3dy53My5vcmcvMjAwMC9zdmciIHZpZXdCb3g9IjAgMCA2Mi4zNjIyIDYyLjM2MjIiIHZlcnNpb249IjEuMSI+JiN4YTsgIDxkZWZzPiYjeGE7ICAgIDxzdHlsZT4mI3hhOyAgICAgIC5jbHMtMSB7JiN4YTsgICAgICAgIGZpbGw6ICNmZmY7JiN4YTsgICAgICB9JiN4YTsmI3hhOyAgICAgIC5jbHMtMiB7JiN4YTsgICAgICAgIGZpbGw6ICNkYTI5MWM7JiN4YTsgICAgICB9JiN4YTsgICAgPC9zdHlsZT4mI3hhOyAgPC9kZWZzPiYjeGE7ICAmI3hhOyAgPGc+JiN4YTsgICAgPGcgaWQ9IkViZW5lXzIiPiYjeGE7ICAgICAgPHBhdGggZD0iTTMxLjMxNDksNjIuMzYyMkMxMy40ODI4LDYyLjM2MjIsMCw0Ny41OTA0LDAsMzEuMzE0OCwwLDEyLjYzMjksMTUuNTU3MSwwLDMxLjA4MDcsMCw0OS42ODIzLDAsNjIuMzYyMiwxNS4zMzk5LDYyLjM2MjIsMzAuOTQ3MmMwLDE5LjA0OTUtMTUuNjU3NSwzMS40MTUtMzEuMDQ3MywzMS40MTVoMFoiIGNsYXNzPSJjbHMtMiIvPiYjeGE7ICAgICAgPHBhdGggZD0iTTM4Ljc4MTIsNTAuNTk5OWgtMTUuMjAwMmMtMS4xNDI2LDAtMi4yMTM5LS41MTE3LTIuOTM5OS0xLjQwMjNsLTkuNDgyNC0xMS44ODg3Yy0uNzIzNi0uOTIxOS0uOTg0NC0yLjA4ODktLjcyMTItMy4yMWwzLjM5MDEtMTQuODA5NmMuMjI2Ni0xLjEwMTYuOTkxMi0yLjA2NTksMi4wNDE1LTIuNTU4MWwxMy42NzUzLTYuNTg1NGMxLjAwNzMtLjQ4ODMsMi4yMjY2LS40OTA3LDMuMjY0Mi0uMDA0NGwxMy42OTM0LDYuNTk0MmMxLjAxMjcuNDkwMiwxLjc3MDUsMS40NDI0LDIuMDMxMiwyLjU0NzlsMy4zOTE2LDE0LjgyMDNjLjI2MTcsMS4xMTgyLjAwMSwyLjI4NDItLjcxNTgsMy4xOTgybC05LjQ4MTQsMTEuODg3N2MtLjczMzQuODk5NC0xLjgwNDcsMS40MTAyLTIuOTQ2MywxLjQxMDJaTTMxLjE3NDgsMTEuNzc2MWMtLjI2MzcsMC0uNTI1NC4wNTY2LS43NjA3LjE3MDRsLTEzLjY4NjUsNi41OTA4Yy0uNDkxMi4yMzA1LS44NDEzLjY2ODUtLjk0NTgsMS4xNzY4bC0zLjM5NiwxNC44MzU5Yy0uMTI1LjUzMjIsMCwxLjA4My4zNDEzLDEuNTE2Nmw5LjQ3MTIsMTEuODc1Yy4zMzg0LjQxNi44NDQyLjY1ODIsMS4zODI4LjY1ODJoMTUuMjAwMmMuNTM4MSwwLDEuMDQzOS0uMjQzMiwxLjM4ODctLjY2Nmw5LjQ2OTctMTEuODczYy4zMzU5LS40Mjc3LjQ2MDktLjk3ODUuMzM2OS0xLjUwNDlsLS4wMDEtLjAwNTktMy4zOTA2LTE0LjgxNDVjLS4xMjIxLS41MTk1LS40Nzg1LS45Njk3LS45NTIxLTEuMTk5MmwtMTMuNjgzMS02LjU4ODljLS4yNDMyLS4xMTM4LS41MTAzLS4xNzE0LS43NzQ5LS4xNzE0WiIgY2xhc3M9ImNscy0xIi8+JiN4YTsgICAgICA8cGF0aCBkPSJNMzYuMzMzLDQzLjIzNjZoLS4wMTA3bC0xLjI4OTEtLjAxMzdjLS40Njg4LS4wMDM5LS45MTMxLS4yNTY4LTEuMTU3Mi0uNjYwMmwtMS44MTY0LTMuMDE2NmMtLjM3NS0uNjc5Ny0xLjM5NS0uNjU4Mi0xLjc0MjctLjAyMjVsLTEuODUxMSwzLjAyNDRjLS4yNDcxLjQwNDMtLjY3ODIuNjQ4NC0xLjE1MjguNjU0M2wtMS4yOTEuMDEyN2MtLjQyNDguMDEwNy0uODM1OS0uMTkzNC0xLjA5NzctLjUzMjJsLS43OTg4LTEuMDM0MmMtLjI5MDUtLjM3Ni0uMzY1Mi0uODY2Mi0uMjAwMi0xLjMxMTVsMS4yMTczLTMuMjk3OWMuMTU1My0uMzY0My4xMDYtLjczMjQtLjEyMDYtMS4wMTY2LS4yMjcxLS4yODQyLS41Nzk2LS40MTExLS45Mzg1LS4zNDk2bC0zLjUxNjEuNDU1MWMtLjQ3MjcuMDU5Ni0uOTM0Ni0uMTIyMS0xLjIzNTgtLjQ5MTJsLS44MjA4LTEuMDAzOWMtLjI3MTUtLjMzMi0uMzcyMS0uNzc4My0uMjY5NS0xLjE5NDNsLjMxNDUtMS4yNzE1Yy4xMTQzLS40NTkuNDQ5Ny0uODIxOC44OTg0LS45NzA3bDMuMzM1OS0xLjEwNTVjLjM4MDQtLjExMTguNjQyNi0uMzkxNi43MjE3LS43NTM5LjA3NjctLjM1MDYtLjAzNTItLjY4Ny0uMzA3MS0uOTIzM2wtMi41NTAzLTIuNDU0NmMtLjM0NDctLjMzMy0uNDg5My0uODA5Ni0uMzg4Mi0xLjI3NjRsLjI3MzQtMS4yNjM3Yy4wODk4LS40MTUuMzczNS0uNzcwNS43NTgzLS45NTA3bDEuMTczMy0uNTQ3NGMuNDI2OC0uMTk4Ny45MzgtLjE2MjEsMS4zMzI1LjA5NzdsMi45MTg1LDEuOTI3MmMuMzExNS4yMjEyLjY4MTIuMjUzNCwxLjAwODMuMDk3Mi4zMzY5LS4xNTk3LjU1MjctLjQ3OC41Nzc2LS44NTE2bC4zMzg0LTMuNTIxYy4wNDQ0LS40Njc4LjMzNDUtLjg4NzcuNzU1OS0xLjA5NjJsMS4xNjIxLS41NzQyYy4zODA0LS4xODc1LjgzMjUtLjE4OCwxLjIxMjktLjAwMDVsMS4xNjMxLjU3NTJjLjQyMDkuMjA3NS43MS42Mjc5Ljc1NDksMS4wOTY3bC4zMzc5LDMuNTAxYy4wMjA1LjM5ODQuMjE5Ny43MDMxLjU1MDguODY0Ny4zMzMuMTY0Ni43MTQ4LjEzMzgsMS4wMjE1LS4wODE1bDIuOTU4LTEuOTIyNGMuNDAwNC0uMjU4OC44OTU1LS4yOTIsMS4zMjUyLS4wOTMzbDEuMTc1OC41NDg4Yy4zODQ4LjE4MDIuNjY4LjUzNTIuNzU4OC45NDk3bC4yNzQ0LDEuMjY1MWMuMTAwNi40NjY4LS4wNDM5Ljk0MzgtLjM4NzcsMS4yNzU5bC0yLjUyODMsMi40MzM2Yy0uMjk0OS4yNTczLS40MDkyLjYwODktLjMyODEuOTYxOS4wODExLjM1ODkuMzM4OS42MzA5LjY4ODUuNzI3MWwzLjM2NjIsMS4xMTUyYy40NDkyLjE0ODQuNzg1Mi41MTE3Ljg5ODQuOTcwN2wuMzEzNSwxLjI2NjFjLjEwMzUuNDE5OS4wMDEuODcwMS0uMjczNCwxLjIwMzFsLS44Mzk4LDEuMDA4OGMtLjMwMjcuMzY0My0uNzY2Ni41NDM5LTEuMjI5NS40ODM0bC0zLjQ4NjMtLjQ1MDJjLS4zOTA2LS4wNjU0LS43NS4wNzEzLS45Nzg1LjM2MjMtLjIyMTcuMjgzMi0uMjY3Ni42MzY3LS4xMjUuOTY5N2wxLjIyOTUsMy4zMjYyYy4xNjUuNDQ2My4wODk4LjkzNjUtLjIwMTIsMS4zMTI1bC0uNzk4OCwxLjAzMzJjLS4yNTc4LjMzNS0uNjYyMS41MzMyLTEuMDg0LjUzMzJaTTMxLjE4MTIsMzcuNzY2OWMuODMxNSwwLDEuNTY0OS40MzI2LDEuOTYxNCwxLjE1NzJsMS44MDI3LDIuOTkyMmMuMDIwNS4wMzQyLjA1OTYuMDU2Ni4wOTk2LjA1NjZsMS4yODkxLjAxMzdjLS4wMDI5LS4wMTA3LjA3MDMtLjAxNjYuMDk0Ny0uMDQ2OWwuNzk4OC0xLjAzNDJjLjAyNTQtLjAzMzIuMDMxMi0uMDc2Mi4wMTY2LS4xMTUybC0xLjIxNjgtMy4yOTU5Yy0uMzExNS0uNzI1Ni0uMjAzMS0xLjU2MDUuMzAxOC0yLjIwNDEuNTA3OC0uNjQ1NSwxLjMyODEtLjk2NjgsMi4xNDQ1LS44MjcxbDMuNDY0OC40NDYzYy4wMzkxLjAwODguMDgxMS0uMDEwNy4xMDc0LS4wNDJsLjgzNzktMS4wMDY4Yy4wMjM0LS4wMjgzLjAzMjItLjA2ODQuMDIyNS0uMTA2NGwtLjMxMjUtMS4yNjU2Yy0uMDA5OC0uMDQtLjAzOTEtLjA3MTgtLjA3ODEtLjA4NDVsLTMuMzM1OS0xLjEwNmMtLjc1ODgtLjIwOC0xLjM2MzMtLjg0MjMtMS41NDU5LTEuNjQ2LS4xODM2LS44MDk2LjA3OTEtMS42MTcyLjcwNDEtMi4xNjA2bDIuNTAzOS0yLjQxMTZjLjAyOTMtLjAyODguMDQzLS4wNzAzLjAzNDItLjExMTNsLS4yNzQ0LTEuMjYzN2MtLjAwNzgtLjAzNjEtLjAzMjItLjA2NjktLjA2NjQtLjA4MzVsLTEuMTc0OC0uNTQ3OWMtLjAzNzEtLjAxNjYtLjA4Mi0uMDEyNy0uMTE2Mi4wMDg4bC0yLjkzOTUsMS45MDkyYy0uNjY4LjQ2NzgtMS41MjI1LjUzNjEtMi4yNzA1LjE2ODUtLjc0MDItLjM2MjgtMS4yMDctMS4wNzE4LTEuMjQ3MS0xLjg5NjVsLS4zMzU5LTMuNDcyN2MtLjAwMzktLjA0MTUtLjAyODMtLjA3NzYtLjA2NDUtLjA5NTJsLTEuMTYyNi0uNTc1MmMtLjAzMzItLjAxNTYtLjA3MjMtLjAxNjEtLjEwNjQuMDAwNWwtMS4xNjE2LjU3NDJjLS4wMzY2LjAxODEtLjA2MTUuMDU0Ny0uMDY1NC4wOTQ3bC0uMzM2OSwzLjUwMjljLS4wNTMyLjgxMzUtLjUzNTIsMS41MjM0LTEuMjg4MSwxLjg4MDQtLjc0MzIuMzUzLTEuNTg1NC4yNzgzLTIuMjUxLS4xOTY4bC0yLjg5ODktMS45MTQxYy0uMDMzMi0uMDIyLS4wNzc2LS4wMjQ5LS4xMTYyLS4wMDgzbC0xLjE3MjQuNTQ2OWMtLjAzMzcuMDE1Ni0uMDU4MS4wNDY0LS4wNjU5LjA4M2wtLjI3MzQsMS4yNjQyYy0uMDA4OC4wNDA1LjAwMzkuMDgyLjAzNDIuMTExM2wyLjUyNjQsMi40MzI2Yy41OTQ3LjUxNjEuODU5NCwxLjMxMzUuNjg0NiwyLjExMjMtLjE3NTguODAzNy0uNzc3MywxLjQ0NzMtMS41NzAzLDEuNjc5N2wtMy4zMTQ5LDEuMDk5MWMtLjAzOTEuMDEyNy0uMDY4NC4wNDQ5LS4wNzg2LjA4NWwtLjMxNCwxLjI3MDVjLS4wMDkzLjAzNjEtLjAwMDUuMDc0Mi4wMjM0LjEwMzVsLjgyMTMsMS4wMDM5Yy4wMjY0LjAzMTIuMDY2NC4wNDk4LjEwNjkuMDQybDMuNDgzOS0uNDQ5MmMuNzgwOC0uMTQyNiwxLjU5NjcuMTY0MSwyLjEwODQuODA0Ny41MTA3LjYzOTYuNjI3NCwxLjUwNTkuMzA0MiwyLjI1ODhsLTEuMjA1NiwzLjI2ODZjLS4wMTQyLjAzODEtLjAwNzguMDgyLjAxNzEuMTE0M2wuNzk4OCwxLjAzNDJjLjAyMjkuMDI4My4wNTY2LjA0ODguMDk0Mi4wNDU5bDEuMjkxNS0uMDEyN2MuMDQxLDAsLjA3ODYtLjAyMTUuMTAwMS0uMDU2NmwxLjgzNTktMi45OThjLjM4MTMtLjY5ODIsMS4xMTQzLTEuMTMwOSwxLjk0NTgtMS4xMzA5WiIgY2xhc3M9ImNscy0xIi8+JiN4YTsgICAgPC9nPiYjeGE7ICA8L2c+JiN4YTs8L3N2Zz4=;" vertex="1" parent="1">
          <mxGeometry x="290" y="50" width="62" height="62" as="geometry" />
        </mxCell>
        <mxCell id="d-CWmxk7Mh6oMbrWVQdX-5" value="" style="shape=image;verticalLabelPosition=bottom;verticalAlign=top;imageAspect=0;aspect=fixed;image=data:image/svg+xml,PHN2ZyB4bWxucz0iaHR0cDovL3d3dy53My5vcmcvMjAwMC9zdmciIHZpZXdCb3g9IjAgMCA2Mi4zNjIyIDYyLjM2MjIiIHZlcnNpb249IjEuMSI+JiN4YTsgIDxkZWZzPiYjeGE7ICAgIDxzdHlsZT4mI3hhOyAgICAgIC5jbHMtMSB7JiN4YTsgICAgICAgIGZpbGw6ICNmZmY7JiN4YTsgICAgICB9JiN4YTsmI3hhOyAgICAgIC5jbHMtMiB7JiN4YTsgICAgICAgIGZpbGw6ICNkYTI5MWM7JiN4YTsgICAgICB9JiN4YTsgICAgPC9zdHlsZT4mI3hhOyAgPC9kZWZzPiYjeGE7ICAmI3hhOyAgPGc+JiN4YTsgICAgPGcgaWQ9IkViZW5lXzIiPiYjeGE7ICAgICAgPHBhdGggZD0iTTMxLjMxNDksNjIuMzYyMkMxMy40ODI4LDYyLjM2MjIsMCw0Ny41OTA1LDAsMzEuMzE0OCwwLDEyLjYzMjksMTUuNTU3MSwwLDMxLjA4MDcsMGMxOC42MDE2LDAsMzEuMjgxNSwxNS4zMzk5LDMxLjI4MTUsMzAuOTQ3MiwwLDE5LjA0OTUtMTUuNjU3NSwzMS40MTUtMzEuMDQ3MywzMS40MTVoMFoiIGNsYXNzPSJjbHMtMiIvPiYjeGE7ICAgICAgPGc+JiN4YTsgICAgICAgIDxwYXRoIGQ9Ik00Mi4zMjQyLDQyLjg1MDVoLTIyLjI4NjFjLTIuNzQwNywwLTQuOTcwMi0yLjIyOTUtNC45NzAyLTQuOTcwN3YtMTUuOTc0NmMwLTIuNzQwNywyLjIyOTUtNC45NzAyLDQuOTcwMi00Ljk3MDJoMjIuMjg2MWMyLjc0MDIsMCw0Ljk2OTcsMi4yMjk1LDQuOTY5Nyw0Ljk3MDJ2MTUuOTc0NmMwLDIuNzQxMi0yLjIyOTUsNC45NzA3LTQuOTY5Nyw0Ljk3MDdaTTIwLjAzODEsMTguOTM0OWMtMS42Mzc3LDAtMi45NzAyLDEuMzMyNS0yLjk3MDIsMi45NzAydjE1Ljk3NDZjMCwxLjYzNzcsMS4zMzI1LDIuOTcwNywyLjk3MDIsMi45NzA3aDIyLjI4NjFjMS42Mzc3LDAsMi45Njk3LTEuMzMzLDIuOTY5Ny0yLjk3MDd2LTE1Ljk3NDZjMC0xLjYzNzctMS4zMzItMi45NzAyLTIuOTY5Ny0yLjk3MDJoLTIyLjI4NjFaIiBjbGFzcz0iY2xzLTEiLz4mI3hhOyAgICAgICAgPHBhdGggZD0iTTM2LjI4NjEsNDYuODQ0NmgtMTAuMjFjLS41NTIyLDAtMS0uNDQ3My0xLTFzLjQ0NzgtMSwxLTFoMTAuMjFjLjU1MjcsMCwxLC40NDczLDEsMXMtLjQ0NzMsMS0xLDFaIiBjbGFzcz0iY2xzLTEiLz4mI3hhOyAgICAgIDwvZz4mI3hhOyAgICA8L2c+JiN4YTsgIDwvZz4mI3hhOzwvc3ZnPg==;" vertex="1" parent="1">
          <mxGeometry x="50" y="130" width="62" height="62" as="geometry" />
        </mxCell>
        <mxCell id="d-CWmxk7Mh6oMbrWVQdX-6" value="" style="shape=image;verticalLabelPosition=bottom;verticalAlign=top;imageAspect=0;aspect=fixed;image=data:image/svg+xml,PHN2ZyB4bWxucz0iaHR0cDovL3d3dy53My5vcmcvMjAwMC9zdmciIHZpZXdCb3g9IjAgMCA2Mi4zNjIyIDYyLjM2MjIiIHZlcnNpb249IjEuMSI+JiN4YTsgIDxkZWZzPiYjeGE7ICAgIDxzdHlsZT4mI3hhOyAgICAgIC5jbHMtMSB7JiN4YTsgICAgICAgIGZpbGw6ICNmZmY7JiN4YTsgICAgICB9JiN4YTsmI3hhOyAgICAgIC5jbHMtMiB7JiN4YTsgICAgICAgIGZpbGw6ICNkYTI5MWM7JiN4YTsgICAgICB9JiN4YTsmI3hhOyAgICAgIC5jbHMtMyB7JiN4YTsgICAgICAgIGRpc3BsYXk6IG5vbmU7JiN4YTsgICAgICB9JiN4YTsgICAgPC9zdHlsZT4mI3hhOyAgPC9kZWZzPiYjeGE7ICAmI3hhOyAgPGc+JiN4YTsgICAgPGcgaWQ9IkViZW5lXzIiPiYjeGE7ICAgICAgPHBhdGggZD0iTTMxLjMxNDksNjIuMzYyMkMxMy40ODI4LDYyLjM2MjIsMCw0Ny41OTA1LDAsMzEuMzE0OCwwLDEyLjYzMjksMTUuNTU3MSwwLDMxLjA4MDcsMGMxOC42MDE2LDAsMzEuMjgxNSwxNS4zMzk5LDMxLjI4MTUsMzAuOTQ3MiwwLDE5LjA0OTUtMTUuNjU3NSwzMS40MTUtMzEuMDQ3MywzMS40MTVoMFoiIGNsYXNzPSJjbHMtMiIvPiYjeGE7ICAgICAgPGc+JiN4YTsgICAgICAgIDxnPiYjeGE7ICAgICAgICAgIDxnPiYjeGE7ICAgICAgICAgICAgPHBhdGggZD0iTTI0LjAwNTksNDYuNzM4M2MtLjIwMzEsMC0uNDk5LS4wMjU0LS43NTU0LS4xNDU1bC01LjQ3NzUtMi41NTQ3Yy0uMzMwNi0uMTU0My0uNTI0OS0uNDM4NS0uNTE5NS0uNzU5OC4wMDM5LS4yMTc4LjEwNTUtLjYyMy43MzkzLS44OTA2LjMwMTMtLjEyNy42NTk3LS4xOTYzLDEuMDEwMy0uMTk2My4yMDIxLDAsLjQ5NjYuMDI1NC43NTI5LjE0MzZsNS40Nzg1LDIuNTU1N2MuMzMxNS4xNTUzLjUyNTQuNDM5NS41MTk1Ljc2MTctLjAwMzkuMjE2OC0uMTA1NS42MjIxLS43MzkzLjg4OTYtLjMwMDguMTI3LS42NTg3LjE5NjMtMS4wMDg4LjE5NjNaIiBjbGFzcz0iY2xzLTEiLz4mI3hhOyAgICAgICAgICAgIDxwYXRoIGQ9Ik0xOS4wMDIzLDQyLjc4NjZjLjE5NTEsMCwuMzc0Mi4wMjkxLjUwMjQuMDg4OWw1LjQ3ODQsMi41NTQ2Yy4yOTgxLjEzOS4yMDg0LjM5MTQtLjIwMDMuNTYzNy0uMjMyOS4wOTgyLS41MTkyLjE0OTItLjc3NzUuMTQ5Mi0uMTk1MSwwLS4zNzQyLS4wMjkxLS41MDI0LS4wODg5bC01LjQ3ODQtMi41NTQ2Yy0uMjk4MS0uMTM5LS4yMDg0LS4zOTE0LjIwMDMtLjU2MzcuMjMyOS0uMDk4Mi41MTkyLS4xNDkyLjc3NzUtLjE0OTJNMTkuMDAyNCw0MS41OTY2aDBjLS40Mjg0LDAtLjg2ODcuMDg2Mi0xLjIzOTguMjQyNi0uOTc5OS40MTMxLTEuMDk4MywxLjEzNTYtMS4xMDM4LDEuNDI3MS0uMDEwNC41NTYxLjMyMDIsMS4wNTg3Ljg2MjgsMS4zMTE3bDUuNDc4NCwyLjU1NDZjLjI4NTEuMTMyOS42MjMzLjIwMDQsMS4wMDUzLjIwMDQuNDI4MywwLC44Njg2LS4wODYyLDEuMjM5OC0uMjQyNi45Nzk5LS40MTMxLDEuMDk4My0xLjEzNTYsMS4xMDM4LTEuNDI3MS4wMTA0LS41NTYxLS4zMjAyLTEuMDU4Ny0uODYyOC0xLjMxMTdsLTUuNDc4NC0yLjU1NDZjLS4yODUxLS4xMzI5LS42MjMzLS4yMDA0LTEuMDA1Mi0uMjAwNGgwWiIgY2xhc3M9ImNscy0yIi8+JiN4YTsgICAgICAgICAgPC9nPiYjeGE7ICAgICAgICAgIDxnPiYjeGE7ICAgICAgICAgICAgPHBhdGggZD0iTTMxLjc4MzcsNDcuNDgyNGMtLjQ2NTMsMC0uOTE0Ni0uMTAwNi0xLjMzNTktLjI5NjlsLTE0LjAzMzctNi41NDM5Yy0uMzk0LS4xODM2LS42MjQtLjU1MjctLjYxNjItLjk4NjMuMDA4My0uNDM0Ni4yNTItLjc5NDkuNjUyMy0uOTYzOWwxNC4zNTc5LTYuMDUzN2MuMzM5OC0uMTQyNi42OTg3LS4yMTQ4LDEuMDY3NC0uMjE0OC4zOTg5LDAsLjgwMDMuMDg4OSwxLjE2MDYuMjU2OGwxNC4yMDAyLDYuNjIyMWMuMzkzNi4xODM2LjYyNC41NTE4LjYxNjIuOTg2M3MtLjI1Mi43OTQ5LS42NTIzLjk2MzlsLTE0LjE4ODUsNS45ODI0Yy0uMzkwNi4xNjQxLS44MDM3LjI0OC0xLjIyOC4yNDhaIiBjbGFzcz0iY2xzLTIiLz4mI3hhOyAgICAgICAgICAgIDxwYXRoIGQ9Ik0zMS44NzU5LDMzLjAxNzZoMGMuMzE2NSwwLC42MjI2LjA2NzkuOTA5Ni4yMDE3bDE0LjE5OTgsNi42MjE1Yy4yNDIuMTEyOS4yNzQ2LjMyMi4yNzI0LjQzNjYtLjAwMjEuMTE0Ni0uMDQyNS4zMjIzLS4yODg1LjQyNjFsLTE0LjE4ODgsNS45ODE5Yy0uMzE3My4xMzM4LS42NTI4LjIwMTYtLjk5NzEuMjAxNi0uMzc3NiwwLS43NDI2LS4wODA5LTEuMDg0OC0uMjQwNWwtMTQuMDMzMi02LjU0MzhjLS4yNDItLjExMjktLjI3NDYtLjMyMi0uMjcyNC0uNDM2Ni4wMDIxLS4xMTQ2LjA0MjUtLjMyMjMuMjg4NS0uNDI2MWwxNC4zNTgxLTYuMDUzM2MuMjY2MS0uMTEyMi41NDc1LS4xNjkxLjgzNjQtLjE2OTFNMzEuODc1NywzMS44Mjc2Yy0uNDQxMiwwLS44ODMuMDg3NC0xLjI5ODUuMjYyNWwtMTQuMzU4MSw2LjA1MzNjLTEuMzI3OC41NTk4LTEuMzYyNywyLjQyODctLjA1NjcsMy4wMzc3bDE0LjAzMzIsNi41NDM4Yy41MDI3LjIzNDQsMS4wNDQ5LjM1MiwxLjU4NzcuMzUyLjQ5NTksMCwuOTkyNC0uMDk4MiwxLjQ1OTQtLjI5NTFsMTQuMTg4OC01Ljk4MTljMS4zMjc4LS41NTk4LDEuMzYyNy0yLjQyODcuMDU2Ny0zLjAzNzdsLTE0LjE5OTgtNi42MjE1Yy0uNDQ3My0uMjA4Ni0uOTI5Ny0uMzEzMi0xLjQxMjctLjMxMzJoMFoiIGNsYXNzPSJjbHMtMiIvPiYjeGE7ICAgICAgICAgIDwvZz4mI3hhOyAgICAgICAgICA8cGF0aCBkPSJNMzEuODc1OSwzMS44ODY4Yy4zMDc3LDAsLjYwNTIuMDY2Ljg4NDIuMTk2MWwxNC4xOTk4LDYuNjIxNWMuMjExMy4wOTg1LjIzOTcuMjgxLjIzNzguMzgxMS0uMDAxOS4xLS4wMzcxLjI4MTQtLjI1MTkuMzcxOWwtMTQuMTg4Nyw1Ljk4MTljLS4zMDk5LjEzMDYtLjYzNzUuMTk2OS0uOTczOC4xOTY5LS4zNjg4LDAtLjcyNTItLjA3OS0xLjA1OTQtLjIzNDlsLTE0LjAzMzItNi41NDM4Yy0uMjExMi0uMDk4NS0uMjM5Ny0uMjgxMS0uMjM3OC0uMzgxMS4wMDE5LS4xLjAzNzEtLjI4MTQuMjUxOS0uMzcxOWwxNC4zNTgxLTYuMDUzM2MuMjU4Ni0uMTA5LjUzMjItLjE2NDMuODEzMS0uMTY0NE0zMS44NzU3LDMwLjYzNjhjLS40NDEyLDAtLjg4My4wODc0LTEuMjk4NS4yNjI1bC0xNC4zNTgxLDYuMDUzM2MtMS4zMjc4LjU1OTgtMS4zNjI3LDIuNDI4Ny0uMDU2NywzLjAzNzdsMTQuMDMzMiw2LjU0MzhjLjUwMjcuMjM0NCwxLjA0NDkuMzUyLDEuNTg3Ny4zNTIuNDk1OSwwLC45OTI0LS4wOTgyLDEuNDU5NC0uMjk1MWwxNC4xODg4LTUuOTgxOWMxLjMyNzgtLjU1OTgsMS4zNjI3LTIuNDI4Ny4wNTY3LTMuMDM3N2wtMTQuMTk5OC02LjYyMTVjLS40NDczLS4yMDg2LS45Mjk3LS4zMTMyLTEuNDEyNy0uMzEzMmgwWiIgY2xhc3M9ImNscy0xIi8+JiN4YTsgICAgICAgICAgPGcgY2xhc3M9ImNscy0zIj4mI3hhOyAgICAgICAgICAgIDxwYXRoIGQ9Ik0zMC45NDE2LDQ0LjM3NTVsLTEyLjE4NzktNS42ODMzYy0uMjY1My0uMTIzNy0uMjU4Mi0uNTAzMy4wMTE1LS42MTdsMTIuNDU2Ni01LjI1MTZjLjQwMjYtLjE2OTcuODU4MS0uMTYxMiwxLjI1NDEuMDIzNGwxMi4zMDc3LDUuNzM5MmMuMjY1My4xMjM3LjI1ODIuNTAzMy0uMDExNS42MTdsLTEyLjMzNDgsNS4yMDAzYy0uNDgwMS4yMDI0LTEuMDIzNC4xOTIzLTEuNDk1Ni0uMDI3OVoiIGNsYXNzPSJjbHMtMSIvPiYjeGE7ICAgICAgICAgIDwvZz4mI3hhOyAgICAgICAgPC9nPiYjeGE7ICAgICAgICA8Zz4mI3hhOyAgICAgICAgICA8Zz4mI3hhOyAgICAgICAgICAgIDxwYXRoIGQ9Ik0yMy42Njg1LDM3Ljk2Yy0uMjAyNiwwLS40OTc2LS4wMjQ0LS43NTM5LS4xNDQ1bC01LjQ3OS0yLjU1NDdjLS4zMzExLS4xNTQzLS41MjU0LS40Mzg1LS41MTktLjc2MDcuMDAzOS0uMjE3OC4xMDU1LS42MjMuNzQwNy0uODkwNi4yOTc5LS4xMjYuNjU2Mi0uMTk1MywxLjAwNzMtLjE5NTMuMjAyMSwwLC40OTcxLjAyNDQuNzUzOS4xNDM2bDUuNDc5LDIuNTU1N2MuMzMxMS4xNTQzLjUyNTQuNDM4NS41MTkuNzYwNy0uMDAzOS4yMTc4LS4xMDU1LjYyMy0uNzQwNy44OTA2LS4yOTc5LjEyNi0uNjU2Mi4xOTUzLTEuMDA3My4xOTUzWiIgY2xhc3M9ImNscy0xIi8+JiN4YTsgICAgICAgICAgICA8cGF0aCBkPSJNMTguNjY1LDM0LjAwOWMuMTk1MSwwLC4zNzQyLjAyOTEuNTAyNC4wODg5bDUuNDc4NCwyLjU1NDZjLjI5ODEuMTM5LjIwODQuMzkxNC0uMjAwMy41NjM3LS4yMzI5LjA5ODItLjUxOTIuMTQ5Mi0uNzc3NS4xNDkyLS4xOTUxLDAtLjM3NDItLjAyOTEtLjUwMjQtLjA4ODlsLTUuNDc4NC0yLjU1NDZjLS4yOTgxLS4xMzktLjIwODQtLjM5MTQuMjAwMy0uNTYzNy4yMzI5LS4wOTgyLjUxOTItLjE0OTIuNzc3NS0uMTQ5Mk0xOC42NjUxLDMyLjgxOWgwYy0uNDI4NCwwLS44Njg3LjA4NjItMS4yMzk4LjI0MjYtLjk3OTkuNDEzMS0xLjA5ODMsMS4xMzU2LTEuMTAzOCwxLjQyNzEtLjAxMDQuNTU2MS4zMjAyLDEuMDU4Ny44NjI4LDEuMzExN2w1LjQ3ODQsMi41NTQ2Yy4yODUxLjEzMjkuNjIzMy4yMDA0LDEuMDA1My4yMDA0LjQyODMsMCwuODY4Ni0uMDg2MiwxLjIzOTgtLjI0MjYuOTc5OS0uNDEzMiwxLjA5ODMtMS4xMzU2LDEuMTAzOC0xLjQyNzEuMDEwNC0uNTU2MS0uMzIwMi0xLjA1ODctLjg2MjgtMS4zMTE3bC01LjQ3ODQtMi41NTQ2Yy0uMjg1MS0uMTMyOS0uNjIzMy0uMjAwNC0xLjAwNTItLjIwMDRoMFoiIGNsYXNzPSJjbHMtMiIvPiYjeGE7ICAgICAgICAgIDwvZz4mI3hhOyAgICAgICAgICA8Zz4mI3hhOyAgICAgICAgICAgIDxwYXRoIGQ9Ik0zMS40NDYzLDM4LjcwNDFjLS40NjQ4LDAtLjkxNDYtLjA5OTYtMS4zMzY0LS4yOTU5bC0xNC4wMzMyLTYuNTQzOWMtLjM5MzYtLjE4MzYtLjYyNC0uNTUyNy0uNjE1Ny0uOTg2OC4wMDc4LS40MzQ2LjI1Mi0uNzk0NC42NTIzLS45NjM0bDE0LjM1NzQtNi4wNTMyYy4zMzk4LS4xNDMxLjY5OTItLjIxNTgsMS4wNjc5LS4yMTU4LjQwMzgsMCwuNzk0NC4wODY0LDEuMTYwNi4yNTczbDE0LjIwMDIsNi42MjExYy4zOTM2LjE4NDEuNjI0LjU1MzIuNjE2Mi45ODc4LS4wMDg4LjQzNDEtLjI1MjkuNzk0NC0uNjUzMy45NjM0bC0xNC4xODg1LDUuOTgxNGMtLjM5MDYuMTY1LS44MDMyLjI0OC0xLjIyNzUuMjQ4WiIgY2xhc3M9ImNscy0yIi8+JiN4YTsgICAgICAgICAgICA8cGF0aCBkPSJNMzEuNTM4NiwyNC4yMzk5aDBjLjMxNjYsMCwuNjIyNi4wNjc5LjkwOTYuMjAxN2wxNC4xOTk4LDYuNjIxNWMuMjQyLjExMjkuMjc0Ni4zMjIuMjcyNC40MzY2LS4wMDIxLjExNDYtLjA0MjUuMzIyNC0uMjg4NS40MjYxbC0xNC4xODg4LDUuOTgxOWMtLjMxNzMuMTMzOC0uNjUyOC4yMDE2LS45OTcxLjIwMTYtLjM3NzYsMC0uNzQyNi0uMDgwOS0xLjA4NDgtLjI0MDVsLTE0LjAzMzItNi41NDM4Yy0uMjQyLS4xMTI5LS4yNzQ2LS4zMjItLjI3MjQtLjQzNjYuMDAyMS0uMTE0Ni4wNDI1LS4zMjI0LjI4ODUtLjQyNjFsMTQuMzU4MS02LjA1MzNjLjI2NjEtLjExMjIuNTQ3NS0uMTY5MS44MzY0LS4xNjkxTTMxLjUzODQsMjMuMDQ5OWMtLjQ0MTIsMC0uODgzLjA4NzQtMS4yOTg1LjI2MjVsLTE0LjM1ODEsNi4wNTMzYy0xLjMyNzguNTU5OC0xLjM2MjcsMi40Mjg3LS4wNTY3LDMuMDM3N2wxNC4wMzMyLDYuNTQzOGMuNTAyNy4yMzQ0LDEuMDQ0OS4zNTIsMS41ODc3LjM1Mi40OTU5LDAsLjk5MjQtLjA5ODIsMS40NTk0LS4yOTUxbDE0LjE4ODgtNS45ODE5YzEuMzI3OC0uNTU5OCwxLjM2MjctMi40Mjg3LjA1NjctMy4wMzc3bC0xNC4xOTk4LTYuNjIxNWMtLjQ0NzMtLjIwODYtLjkyOTctLjMxMzItMS40MTI3LS4zMTMyaDBaIiBjbGFzcz0iY2xzLTIiLz4mI3hhOyAgICAgICAgICA8L2c+JiN4YTsgICAgICAgICAgPHBhdGggZD0iTTMxLjUzODYsMjMuMTA5MmMuMzA3NywwLC42MDUyLjA2Ni44ODQyLjE5NjFsMTQuMTk5OCw2LjYyMTVjLjIxMTMuMDk4NS4yMzk3LjI4MS4yMzc4LjM4MTEtLjAwMTkuMS0uMDM3MS4yODE0LS4yNTE5LjM3MTlsLTE0LjE4ODgsNS45ODE5Yy0uMzA5OS4xMzA2LS42Mzc1LjE5NjktLjk3MzguMTk2OS0uMzY4OCwwLS43MjUyLS4wNzktMS4wNTk0LS4yMzQ5bC0xNC4wMzMyLTYuNTQzOGMtLjIxMTItLjA5ODUtLjIzOTctLjI4MS0uMjM3OC0uMzgxMS4wMDE5LS4xLjAzNzEtLjI4MTQuMjUxOS0uMzcxOWwxNC4zNTgxLTYuMDUzM2MuMjU4Ni0uMTA5LjUzMjItLjE2NDMuODEzMS0uMTY0NE0zMS41Mzg0LDIxLjg1OTJjLS40NDEyLDAtLjg4My4wODc0LTEuMjk4NS4yNjI1bC0xNC4zNTgxLDYuMDUzM2MtMS4zMjc4LjU1OTgtMS4zNjI3LDIuNDI4Ny0uMDU2NywzLjAzNzdsMTQuMDMzMiw2LjU0MzhjLjUwMjcuMjM0NCwxLjA0NDkuMzUyLDEuNTg3Ny4zNTIuNDk1OSwwLC45OTI0LS4wOTgyLDEuNDU5NC0uMjk1MWwxNC4xODg4LTUuOTgxOWMxLjMyNzgtLjU1OTgsMS4zNjI3LTIuNDI4Ny4wNTY3LTMuMDM3N2wtMTQuMTk5OC02LjYyMTVjLS40NDczLS4yMDg2LS45Mjk3LS4zMTMyLTEuNDEyNy0uMzEzMmgwWiIgY2xhc3M9ImNscy0xIi8+JiN4YTsgICAgICAgICAgPGcgY2xhc3M9ImNscy0zIj4mI3hhOyAgICAgICAgICAgIDxwYXRoIGQ9Ik0zMC41NDc2LDM1LjY1NDVsLTEyLjE4NzktNS42ODMzYy0uMjY1My0uMTIzNy0uMjU4Mi0uNTAzMy4wMTE1LS42MTdsMTIuNDU2Ni01LjI1MTZjLjQwMjYtLjE2OTcuODU4MS0uMTYxMiwxLjI1NDEuMDIzNGwxMi4zMDc3LDUuNzM5MmMuMjY1My4xMjM3LjI1ODIuNTAzMy0uMDExNS42MTdsLTEyLjMzNDgsNS4yMDAzYy0uNDgwMS4yMDI0LTEuMDIzNC4xOTIzLTEuNDk1Ni0uMDI3OVoiIGNsYXNzPSJjbHMtMSIvPiYjeGE7ICAgICAgICAgIDwvZz4mI3hhOyAgICAgICAgPC9nPiYjeGE7ICAgICAgICA8Zz4mI3hhOyAgICAgICAgICA8Zz4mI3hhOyAgICAgICAgICAgIDxwYXRoIGQ9Ik0yMy4zMzA2LDI5LjE4MjZjLS4yMDIxLDAtLjQ5NzEtLjAyNDktLjc1MzQtLjE0NGwtNS40NzktMi41NTUyYy0uMzMxNS0uMTU0OC0uNTI1NC0uNDM5NS0uNTE5LS43NjEyLjAwMzktLjIxNzguMTA1NS0uNjIyNi43Mzk3LS44OTAxLjI5OTgtLjEyNi42NTc3LS4xOTU4LDEuMDA4My0uMTk1OC4yMDI2LDAsLjQ5ODUuMDI1NC43NTQ5LjE0NWw1LjQ3OCwyLjU1NDdjLjMzMTEuMTUzOC41MjQ5LjQzODUuNTE5Ljc2MDctLjAwMzkuMjE3My0uMTA1NS42MjI2LS43Mzk3Ljg5MDEtLjI5OTguMTI2NS0uNjU4Mi4xOTU4LTEuMDA4OC4xOTU4WiIgY2xhc3M9ImNscy0xIi8+JiN4YTsgICAgICAgICAgICA8cGF0aCBkPSJNMTguMzI3NywyNS4yMzEzYy4xOTUxLDAsLjM3NDIuMDI5MS41MDI0LjA4ODlsNS40Nzg0LDIuNTU0NmMuMjk4MS4xMzkuMjA4NC4zOTE0LS4yMDAzLjU2MzctLjIzMjkuMDk4Mi0uNTE5Mi4xNDkyLS43Nzc1LjE0OTItLjE5NTEsMC0uMzc0Mi0uMDI5MS0uNTAyNC0uMDg4OWwtNS40Nzg0LTIuNTU0NmMtLjI5ODEtLjEzOS0uMjA4NC0uMzkxNC4yMDAzLS41NjM3LjIzMjktLjA5ODIuNTE5Mi0uMTQ5Mi43Nzc1LS4xNDkyTTE4LjMyNzgsMjQuMDQxM2gwYy0uNDI4NCwwLS44Njg3LjA4NjItMS4yMzk4LjI0MjYtLjk3OTkuNDEzMS0xLjA5ODMsMS4xMzU2LTEuMTAzOCwxLjQyNzEtLjAxMDQuNTU2MS4zMjAyLDEuMDU4Ny44NjI4LDEuMzExN2w1LjQ3ODQsMi41NTQ2Yy4yODUxLjEzMjkuNjIzMy4yMDA0LDEuMDA1My4yMDA0LjQyODMsMCwuODY4Ni0uMDg2MiwxLjIzOTgtLjI0MjcuOTc5OS0uNDEzMSwxLjA5ODMtMS4xMzU2LDEuMTAzOC0xLjQyNzEuMDEwNC0uNTU2MS0uMzIwMi0xLjA1ODctLjg2MjgtMS4zMTE3bC01LjQ3ODQtMi41NTQ2Yy0uMjg1MS0uMTMyOS0uNjIzMy0uMjAwNC0xLjAwNTItLjIwMDRoMFoiIGNsYXNzPSJjbHMtMiIvPiYjeGE7ICAgICAgICAgIDwvZz4mI3hhOyAgICAgICAgICA8Zz4mI3hhOyAgICAgICAgICAgIDxwYXRoIGQ9Ik0zMS4xMDg5LDI5LjkyNjNjLS40NjUzLDAtLjkxNS0uMDk5Ni0xLjMzNjQtLjI5NTlsLTE0LjAzMzItNi41NDM1Yy0uMzk0LS4xODM2LS42MjQtLjU1MjctLjYxNTctLjk4NjguMDA3OC0uNDM0Ni4yNTItLjc5NDkuNjUxOS0uOTYzNGwxNC4zNTc5LTYuMDUzN2MuMzM5OC0uMTQzMS42OTg3LS4yMTU4LDEuMDY3NC0uMjE1OC4zOTg0LDAsLjgwMDMuMDg5NCwxLjE2MDYuMjU3M2wxNC4yMDEyLDYuNjIxNmMuMzkzNi4xODQxLjYyNC41NTI3LjYxNTIuOTg3OC0uMDA3OC40MzQxLS4yNTIuNzkzOS0uNjUyMy45NjI0bC0xNC4xODg1LDUuOTgxOWMtLjM5MDYuMTY0Ni0uODA0Mi4yNDgtMS4yMjguMjQ4WiIgY2xhc3M9ImNscy0yIi8+JiN4YTsgICAgICAgICAgICA8cGF0aCBkPSJNMzEuMjAxMywxNS40NjIzaDBjLjMxNjUsMCwuNjIyNi4wNjc5LjkwOTYuMjAxN2wxNC4xOTk4LDYuNjIxNWMuMjQyLjExMjkuMjc0Ni4zMjIuMjcyNC40MzY2LS4wMDIxLjExNDYtLjA0MjUuMzIyNC0uMjg4NS40MjYxbC0xNC4xODg4LDUuOTgxOWMtLjMxNzMuMTMzOC0uNjUyOC4yMDE2LS45OTcxLjIwMTYtLjM3NzYsMC0uNzQyNi0uMDgwOS0xLjA4NDgtLjI0MDVsLTE0LjAzMzItNi41NDM4Yy0uMjQyLS4xMTI5LS4yNzQ2LS4zMjItLjI3MjQtLjQzNjYuMDAyMS0uMTE0Ni4wNDI1LS4zMjI0LjI4ODUtLjQyNjFsMTQuMzU4MS02LjA1MzNjLjI2NjEtLjExMjIuNTQ3NS0uMTY5MS44MzY0LS4xNjkxTTMxLjIwMTEsMTQuMjcyM2MtLjQ0MTIsMC0uODgzLjA4NzQtMS4yOTg1LjI2MjVsLTE0LjM1ODEsNi4wNTMzYy0xLjMyNzguNTU5OC0xLjM2MjcsMi40Mjg3LS4wNTY3LDMuMDM3N2wxNC4wMzMyLDYuNTQzOGMuNTAyNy4yMzQ0LDEuMDQ0OS4zNTIsMS41ODc3LjM1Mi40OTU5LDAsLjk5MjQtLjA5ODIsMS40NTk0LS4yOTUxbDE0LjE4ODgtNS45ODE5YzEuMzI3OC0uNTU5OCwxLjM2MjctMi40Mjg3LjA1NjctMy4wMzc3bC0xNC4xOTk4LTYuNjIxNWMtLjQ0NzMtLjIwODYtLjkyOTctLjMxMzItMS40MTI3LS4zMTMyaDBaIiBjbGFzcz0iY2xzLTIiLz4mI3hhOyAgICAgICAgICA8L2c+JiN4YTsgICAgICAgICAgPHBhdGggZD0iTTMxLjIwMTMsMTQuMzMxNmMuMzA3NywwLC42MDUyLjA2Ni44ODQyLjE5NjFsMTQuMTk5OCw2LjYyMTVjLjIxMTMuMDk4NS4yMzk3LjI4MS4yMzc4LjM4MTEtLjAwMTkuMS0uMDM3MS4yODE0LS4yNTE5LjM3MTlsLTE0LjE4ODgsNS45ODE5Yy0uMzA5OS4xMzA2LS42Mzc1LjE5NjktLjk3MzguMTk2OS0uMzY4OCwwLS43MjUyLS4wNzktMS4wNTk0LS4yMzQ5bC0xNC4wMzMyLTYuNTQzOGMtLjIxMTItLjA5ODUtLjIzOTctLjI4MS0uMjM3OC0uMzgxMS4wMDE5LS4xLjAzNzEtLjI4MTQuMjUxOS0uMzcxOWwxNC4zNTgxLTYuMDUzM2MuMjU4Ni0uMTA5LjUzMjItLjE2NDMuODEzMS0uMTY0NE0zMS4yMDExLDEzLjA4MTZjLS40NDEyLDAtLjg4My4wODc0LTEuMjk4NS4yNjI1bC0xNC4zNTgxLDYuMDUzM2MtMS4zMjc4LjU1OTgtMS4zNjI3LDIuNDI4Ny0uMDU2NywzLjAzNzdsMTQuMDMzMiw2LjU0MzhjLjUwMjcuMjM0NCwxLjA0NDkuMzUyLDEuNTg3Ny4zNTIuNDk1OSwwLC45OTI0LS4wOTgyLDEuNDU5NC0uMjk1MWwxNC4xODg4LTUuOTgxOWMxLjMyNzgtLjU1OTgsMS4zNjI3LTIuNDI4Ny4wNTY3LTMuMDM3N2wtMTQuMTk5OC02LjYyMTVjLS40NDczLS4yMDg2LS45Mjk3LS4zMTMyLTEuNDEyNy0uMzEzMmgwWiIgY2xhc3M9ImNscy0xIi8+JiN4YTsgICAgICAgICAgPGcgY2xhc3M9ImNscy0zIj4mI3hhOyAgICAgICAgICAgIDxwYXRoIGQ9Ik0zMC4yNjY5LDI2Ljg3NjlsLTEyLjE4NzktNS42ODMzYy0uMjY1My0uMTIzNy0uMjU4Mi0uNTAzMy4wMTE1LS42MTdsMTIuNDU2Ni01LjI1MTZjLjQwMjYtLjE2OTcuODU4MS0uMTYxMiwxLjI1NDEuMDIzNGwxMi4zMDc3LDUuNzM5MmMuMjY1My4xMjM3LjI1ODIuNTAzMy0uMDExNS42MTdsLTEyLjMzNDgsNS4yMDAzYy0uNDgwMS4yMDI0LTEuMDIzNC4xOTIzLTEuNDk1Ni0uMDI3OVoiIGNsYXNzPSJjbHMtMSIvPiYjeGE7ICAgICAgICAgIDwvZz4mI3hhOyAgICAgICAgPC9nPiYjeGE7ICAgICAgPC9nPiYjeGE7ICAgIDwvZz4mI3hhOyAgPC9nPiYjeGE7PC9zdmc+;" vertex="1" parent="1">
          <mxGeometry x="130" y="130" width="62" height="62" as="geometry" />
        </mxCell>
        <mxCell id="d-CWmxk7Mh6oMbrWVQdX-7" value="" style="shape=image;verticalLabelPosition=bottom;verticalAlign=top;imageAspect=0;aspect=fixed;image=data:image/svg+xml,PHN2ZyB4bWxucz0iaHR0cDovL3d3dy53My5vcmcvMjAwMC9zdmciIHZpZXdCb3g9IjAgMCA2Mi4zNjIyIDYyLjM2MjIiIHZlcnNpb249IjEuMSI+JiN4YTsgIDxkZWZzPiYjeGE7ICAgIDxzdHlsZT4mI3hhOyAgICAgIC5jbHMtMSB7JiN4YTsgICAgICAgIGZpbGw6ICNmZmY7JiN4YTsgICAgICB9JiN4YTsmI3hhOyAgICAgIC5jbHMtMiB7JiN4YTsgICAgICAgIGZpbGw6ICNkYTI5MWM7JiN4YTsgICAgICB9JiN4YTsgICAgPC9zdHlsZT4mI3hhOyAgPC9kZWZzPiYjeGE7ICAmI3hhOyAgPGc+JiN4YTsgICAgPGcgaWQ9IkViZW5lXzMiPiYjeGE7ICAgICAgPHBhdGggZD0iTTMxLjM3NzUsNjIuMzYwOUMxMy41NDU0LDYyLjM2MDkuMDYyNiw0Ny41ODkyLjA2MjYsMzEuMzEzNS4wNjI2LDEyLjYzMTYsMTUuNjE5Ny0uMDAxMywzMS4xNDMzLS4wMDEzLDQ5Ljc0NDktLjAwMTMsNjIuNDI0OCwxNS4zMzg2LDYyLjQyNDgsMzAuOTQ1OWMwLDE5LjA0OTUtMTUuNjU3NSwzMS40MTUtMzEuMDQ3MywzMS40MTVoMFoiIGNsYXNzPSJjbHMtMiIvPiYjeGE7ICAgIDwvZz4mI3hhOyAgICA8ZyBpZD0iRWJlbmVfMiI+JiN4YTsgICAgICA8cGF0aCBkPSJNNDQuOTU3MSwxOS43MzgybC0xMS45MzA3LTQuNjc3MmMtMS4xNDg0LS40NTYxLTIuNDE4LS40NTU2LTMuNTY4NC0uMDAxNWwtMTEuOTMyNiw0LjY3ODdjLS4wMDk4LjAwMzktLjAxOTUuMDA3OC0uMDI5My4wMTIyLTEuMjUuNTM2Ni0yLjAzNzEsMS43NjE3LTIuMDA0OSwzLjA5ODF2MTUuMjI2MWMtLjAzMDMsMS4zNjMzLjc1ODgsMi41ODc5LDIuMDM5MSwzLjEzMThsMTEuOTMyNiw0LjY4MDdjLjU3NTIuMjI1NiwxLjE3ODcuMzM4OSwxLjc4MzIuMzM4OXMxLjIwOC0uMTEzMywxLjc4MzItLjMzODlsMTEuOTYwOS00LjY5MjRjMS4yNTEtLjUzNjEsMi4wMzgxLTEuNzYwNywyLjAwNTktMy4wOTc3di0xNS4yMjU2Yy4wMzAzLTEuMzYyMy0uNzU4OC0yLjU4NzktMi4wMzkxLTMuMTMzM1pNMzAuMTkxNCwxNi45MjAzYy42NzY4LS4yNjgxLDEuNDIyOS0uMjY3NiwyLjEwMTYuMDAxNWwxMS4zNzQ1LDQuNDU5LTEyLjQyNDIsNC44MTM1LTEyLjQyNi00LjgxNDEsMTEuMzc0Mi00LjQ1OThaTTE4LjI4NzEsMzkuMzU1OWMtLjQ5NjEtLjIxMDktLjgwODYtLjY5NjMtLjc5NTktMS4yNTg4di0xNC42NzI0bDEyLjU1OTIsNC44NjU3djE1LjY3OTNsLTExLjc2MzMtNC42MTM4Wk00NC4yMzE1LDM5LjM0NTFsLTExLjc5NTUsNC42MjY5di0xNS42ODE2bDEyLjU2MDItNC44NjYxdjE0LjY5NjJjLjAxMjcuNTM5MS0uMjk4OCwxLjAyNDQtLjc2NDYsMS4yMjQ2WiIgY2xhc3M9ImNscy0xIi8+JiN4YTsgICAgPC9nPiYjeGE7ICA8L2c+JiN4YTs8L3N2Zz4=;" vertex="1" parent="1">
          <mxGeometry x="210" y="130" width="62" height="62" as="geometry" />
        </mxCell>
        <mxCell id="d-CWmxk7Mh6oMbrWVQdX-8" value="" style="shape=image;verticalLabelPosition=bottom;verticalAlign=top;imageAspect=0;aspect=fixed;image=data:image/svg+xml,PHN2ZyB4bWxucz0iaHR0cDovL3d3dy53My5vcmcvMjAwMC9zdmciIHZpZXdCb3g9IjAgMCA2Mi4zNjIyIDYyLjM2MjIiIHZlcnNpb249IjEuMSI+JiN4YTsgIDxkZWZzPiYjeGE7ICAgIDxzdHlsZT4mI3hhOyAgICAgIC5jbHMtMSB7JiN4YTsgICAgICAgIGZpbGw6ICNmZmY7JiN4YTsgICAgICB9JiN4YTsmI3hhOyAgICAgIC5jbHMtMiB7JiN4YTsgICAgICAgIGZpbGw6ICNkYTI5MWM7JiN4YTsgICAgICB9JiN4YTsgICAgPC9zdHlsZT4mI3hhOyAgPC9kZWZzPiYjeGE7ICAmI3hhOyAgPGc+JiN4YTsgICAgPGcgaWQ9IkViZW5lXzMiPiYjeGE7ICAgICAgPHBhdGggZD0iTTMxLjMxNDksNjIuMzYyMkMxMy40ODI4LDYyLjM2MjIsMCw0Ny41OTA1LDAsMzEuMzE0OCwwLDEyLjYzMjksMTUuNTU3MSwwLDMxLjA4MDcsMGMxOC42MDE2LDAsMzEuMjgxNSwxNS4zMzk5LDMxLjI4MTUsMzAuOTQ3MiwwLDE5LjA0OTUtMTUuNjU3NSwzMS40MTUtMzEuMDQ3MywzMS40MTVoMFoiIGNsYXNzPSJjbHMtMiIvPiYjeGE7ICAgIDwvZz4mI3hhOyAgICA8ZyBpZD0iRWJlbmVfMiI+JiN4YTsgICAgICA8cGF0aCBkPSJNNDUuNzU1OCwxOS4zMTJjMC00Ljg0OTYtMTEuMTU2Mi01LjIyNjYtMTQuNTc1Mi01LjIyNjZzLTE0LjU3NDIuMzc3LTE0LjU3NDIsNS4yMjY2YzAsLjE4MDUuMDIwMS4zNTI4LjA1LjUyMTFsMy41ODI4LDIzLjIxMjhzLjA0NjkuMzExNS4xMDg0LjQ4NTRjLjA0NTkuMTMzOC4wOTU3LjIzNDQuMTMxOC4zMDE4LDEuMzg0OCwyLjczMDUsNy45Mzk1LDMuMDI2NCwxMC43MDEyLDMuMDI2NHM5LjMxNzQtLjI5NTksMTAuNzAyMS0zLjAyNjRjLjAzNjEtLjA2NzQuMTY2OS0uMzkyLjI0NC0uODE1OC4wNzQ2LS40MDkyLDMuMzU4OS0yMS43NDQxLDMuNTg0MS0yMy4yMDY5LjAyNzMtLjE2MTEuMDQ0OS0uMzI2MS4wNDQ5LS40OTgzWk0zMS4xODA2LDE2LjA4NTVjNy44NzExLDAsMTIuNTc1MiwxLjY0MDYsMTIuNTc1MiwzLjIyNjYsMCwuNTMtLjUzNjcsMS4wNjQ2LTEuNTMwNSwxLjU0MzUtMS43MTUzLTEuMDIxNS01LjY2NzctMi4wMjA1LTExLjA0MDgtMi4wMjA1LTUuNTIwMywwLTkuMjE3LDEuMDgzNy0xMC44OTgzLDIuMDkwMi0xLjA5LS40OTYzLTEuNjc5OC0xLjA1NzQtMS42Nzk4LTEuNjEzMiwwLTEuNTg1OSw0LjcwMzEtMy4yMjY2LDEyLjU3NDItMy4yMjY2Wk00MC41OTgsMjEuNDY0MWMtMi4xNjM3LjYzNzYtNS4zNjcxLDEuMDczNS05LjQxNzQsMS4wNzM1LTMuOTU0NCwwLTcuMTA3NS0uNDE0My05LjI2ODEtMS4wMjczLDEuNzA0MS0uNjkwMiw0Ljc2NjgtMS40MjUyLDkuMjcyLTEuNDI1Miw0LjQxOTksMCw3LjY0NjcuNjk3NCw5LjQxMzUsMS4zNzkxWk00MC4xNzM0LDQyLjczNTNjLS4wMjQ3LjA5OTMtLjAzNDguMTExNC0uMDcxOS4xODc2LS4zNzk5Ljc3ODMtMy4wNzAzLDEuOTM2NS04LjkyMDksMS45MzY1cy04LjgxNjYtMS4zMjUxLTguOTQzNC0xLjk4MDVjMCwwLS4wMTEyLS4wNzUtLjAyMjItLjE0MzYtLjAwODUtLjA1MjktMi4xMzMzLTEzLjgxOTktMy4xMTI0LTIwLjE2MzUsMy40OTMzLDEuNzc4NCw5LjY4MjQsMS45NjU4LDEyLjA3NzksMS45NjU4LDIuMzk2NywwLDguNTkxNi0uMTg3NiwxMi4wODQyLTEuOTY4NmwtMy4wOTE0LDIwLjE2NjNaIiBjbGFzcz0iY2xzLTEiLz4mI3hhOyAgICA8L2c+JiN4YTsgIDwvZz4mI3hhOzwvc3ZnPg==;" vertex="1" parent="1">
          <mxGeometry x="290" y="130" width="62" height="62" as="geometry" />
        </mxCell>
        <mxCell id="d-CWmxk7Mh6oMbrWVQdX-9" value="" style="shape=image;verticalLabelPosition=bottom;verticalAlign=top;imageAspect=0;aspect=fixed;image=data:image/svg+xml,PHN2ZyB4bWxucz0iaHR0cDovL3d3dy53My5vcmcvMjAwMC9zdmciIHZpZXdCb3g9IjAgMCA2Mi4zNjIyIDYyLjM2MjIiIHZlcnNpb249IjEuMSI+JiN4YTsgIDxkZWZzPiYjeGE7ICAgIDxzdHlsZT4mI3hhOyAgICAgIC5jbHMtMSB7JiN4YTsgICAgICAgIGZpbGw6ICNmZmY7JiN4YTsgICAgICB9JiN4YTsmI3hhOyAgICAgIC5jbHMtMiB7JiN4YTsgICAgICAgIGZpbGw6ICNkYTI5MWM7JiN4YTsgICAgICB9JiN4YTsgICAgPC9zdHlsZT4mI3hhOyAgPC9kZWZzPiYjeGE7ICAmI3hhOyAgPGc+JiN4YTsgICAgPGcgaWQ9IkViZW5lXzIiPiYjeGE7ICAgICAgPHBhdGggZD0iTTMxLjMxNDksNjIuMzYyMkMxMy40ODI4LDYyLjM2MjIsMCw0Ny41OTA1LDAsMzEuMzE0OCwwLDEyLjYzMjksMTUuNTU3MSwwLDMxLjA4MDcsMGMxOC42MDE2LDAsMzEuMjgxNSwxNS4zMzk5LDMxLjI4MTUsMzAuOTQ3MiwwLDE5LjA0OTUtMTUuNjU3NSwzMS40MTUtMzEuMDQ3MywzMS40MTVoMFoiIGNsYXNzPSJjbHMtMiIvPiYjeGE7ICAgICAgPHBhdGggZD0iTTMxLjE4MTIsNDkuODc3OWMtMTAuMzA5NiwwLTE4LjY5NzMtOC4zODc3LTE4LjY5NzMtMTguNjk2OFMyMC44NzE2LDEyLjQ4MzksMzEuMTgxMiwxMi40ODM5czE4LjY5NjgsOC4zODc3LDE4LjY5NjgsMTguNjk3My04LjM4NzcsMTguNjk2OC0xOC42OTY4LDE4LjY5NjhaTTMxLjE4MTIsMTQuNDQ0OGMtOS4yMjg1LDAtMTYuNzM2Myw3LjUwNzgtMTYuNzM2MywxNi43MzYzczcuNTA3OCwxNi43MzU4LDE2LjczNjMsMTYuNzM1OCwxNi43MzU4LTcuNTA3OCwxNi43MzU4LTE2LjczNTgtNy41MDc4LTE2LjczNjMtMTYuNzM1OC0xNi43MzYzWiIgY2xhc3M9ImNscy0xIi8+JiN4YTsgICAgICA8Zz4mI3hhOyAgICAgICAgPHBhdGggZD0iTTIwLjkxMjEsMjkuMDQ3NGwtMS40NTU2LjMzMy0uNDU2NS0xLjg1MDEsMi41Mjg4LS43MTU4aDEuNzM5N3Y4LjY5NzNoLTIuMzU2NHYtNi40NjQ0WiIgY2xhc3M9ImNscy0xIi8+JiN4YTsgICAgICAgIDxwYXRoIGQ9Ik0yOC4wMzAzLDM1LjY4NDZjLS42NDE2LDAtMS4yMDUxLS4wOTI4LTEuNjg5OS0uMjc5My0uNDg1NC0uMTg2NS0uOTI1My0uNDM2NS0xLjMyMDMtLjc1MWwxLjEyMjYtMS42NTkyYy4yOTY0LjIzODMuNTkyMy40MTMxLjg4ODIuNTI0NC4yOTY0LjExMTMuNjE3Mi4xNjYuOTYyNC4xNjYuNDkzNywwLC44NzQtLjE1OTIsMS4xNDExLS40Nzc1cy40Mjk3LS43NTQ5LjQ4NzMtMS4zMTFjLS4yMjI3LjIxNDQtLjQ4NjguMzg0My0uNzkxNS41MTIyLS4zMDUyLjEyNzktLjY1MTkuMTkxNC0xLjAzOTEuMTkxNC0uNDIwNCwwLS44MDgxLS4wNjM1LTEuMTYyNi0uMTkxNC0uMzU1LS4xMjc5LS42NjE2LS4zMDg2LS45MjE0LS41NDNzLS40NjE5LS41Mi0uNjA2LS44NTc0Yy0uMTQ0NS0uMzM2OS0uMjE2OC0uNzE1My0uMjE2OC0xLjEzNDh2LS4wMjQ0YzAtLjQ3NzEuMDg2NC0uOTA4Ny4yNTkzLTEuMjk1NHMuNDEzMS0uNzE3OC43MjE3LS45OTMyLjY3MjQtLjQ4NzMsMS4wOTE4LS42MzUzLjg3Ni0uMjIyMiwxLjM2OTEtLjIyMjJjLjYyNSwwLDEuMTQxMS4wODY0LDEuNTQ4My4yNTkzLjQwNzIuMTcyNC43NzQ5LjQyMzMsMS4xMDQuNzUyNC4zMTI1LjMxMjUuNTYzNS43MjM2Ljc1MjQsMS4yMzM0LjE4OTkuNTEwMy4yODM3LDEuMTY0MS4yODM3LDEuOTYxNHYuMDI0OWMwLC43MDc1LS4wODU5LDEuMzUzLS4yNTczLDEuOTM3LS4xNzI0LjU4NC0uNDI1OCwxLjA4My0uNzYxMiwxLjQ5OS0uMzM1NC40MTUtLjc1MS43MzczLTEuMjQ3MS45Njc4LS40OTY2LjIzMDUtMS4wNjkzLjM0NTctMS43MTg4LjM0NTdaTTI4LjQ0MzQsMzAuODg1N2MuMzgwNCwwLC42Nzc3LS4xMDk0Ljg5MjYtLjMyODYuMjE1My0uMjE5Mi4zMjI4LS40ODU4LjMyMjgtLjgwMDN2LS4wMjQ0YzAtLjMzODktLjExMTgtLjYyMDEtLjMzNS0uODQzOC0uMjIzMS0uMjIzMS0uNTI0OS0uMzM0NS0uOTA0OC0uMzM0NS0uMzgwNCwwLS42NzgyLjEwOTQtLjg5MzEuMzI4NnMtLjMyMjMuNDk4LS4zMjIzLjgzNjl2LjAyNDljMCwuMzMxMS4xMTEzLjYwMzUuMzM0NS44MTg0LjIyMzYuMjE1My41MjQ5LjMyMjguOTA1My4zMjI4WiIgY2xhc3M9ImNscy0xIi8+JiN4YTsgICAgICAgIDxwYXRoIGQ9Ik0zMi44MDQ3LDMzLjcxMDlsMy4yMzI0LTIuNDY3OGMuNDAyMy0uMzEyLjY4ODUtLjU4MzUuODU2NC0uODE0LjE2ODktLjIzLjI1MjktLjQ3NzEuMjUyOS0uNzQwMiwwLS4yNzE1LS4wODc5LS40ODU0LS4yNjQ2LS42NDE2LS4xNzY4LS4xNTU4LS40MDkyLS4yMzQ0LS42OTczLS4yMzQ0cy0uNTYxNS4wODg0LS44MjAzLjI2NTFjLS4yNTg4LjE3NzItLjU1NzYuNDU5LS44OTQ1Ljg0NTJsLTEuNjE2Mi0xLjM0NDdjLjIzMDUtLjI5NTkuNDY0OC0uNTU5MS43MDMxLS43ODk2LjIzOTMtLjIzLjQ5NjEtLjQyMzMuNzcxNS0uNTc5NnMuNTgwMS0uMjc1NC45MTMxLS4zNTc5Yy4zMzMtLjA4Mi43MDktLjEyMywxLjEyODktLjEyMy40Njg4LDAsLjg5ODQuMDY3OSwxLjI4OTEuMjAzMS4zOTA2LjEzNTcuNzI1Ni4zMjMyLDEuMDA0OS41NjE1LjI3OTMuMjM4OC40OTguNTI4My42NTQzLjg2OTZzLjIzNDQuNzEzOS4yMzQ0LDEuMTE2N3YuMDI0NGMwLC4zNDU3LS4wNDMuNjUzOC0uMTI5OS45MjUzLS4wODU5LjI3MTUtLjIxNTguNTI0NC0uMzg4Ny43NTg4cy0uMzgxOC40NTg1LS42Mjg5LjY3MjQtLjUzMDMuNDM2NS0uODUxNi42NjZsLTEuNDgwNSwxLjAzNjFoMy41NjU0djEuOTQ5MmgtNi44MzR2LTEuODAwOFoiIGNsYXNzPSJjbHMtMSIvPiYjeGE7ICAgICAgICA8cGF0aCBkPSJNNDAuODcyMSwzMy4xMDY0aDIuNDQyNHYyLjQwNTNoLTIuNDQyNHYtMi40MDUzWiIgY2xhc3M9ImNscy0xIi8+JiN4YTsgICAgICA8L2c+JiN4YTsgICAgPC9nPiYjeGE7ICA8L2c+JiN4YTs8L3N2Zz4=;" vertex="1" parent="1">
          <mxGeometry x="50" y="210" width="62" height="62" as="geometry" />
        </mxCell>
        <mxCell id="d-CWmxk7Mh6oMbrWVQdX-10" value="" style="shape=image;verticalLabelPosition=bottom;verticalAlign=top;imageAspect=0;aspect=fixed;image=data:image/svg+xml,PHN2ZyB4bWxucz0iaHR0cDovL3d3dy53My5vcmcvMjAwMC9zdmciIHZpZXdCb3g9IjAgMCA2Mi4zNjIyIDYyLjM2MjIiIHZlcnNpb249IjEuMSI+JiN4YTsgIDxkZWZzPiYjeGE7ICAgIDxzdHlsZT4mI3hhOyAgICAgIC5jbHMtMSB7JiN4YTsgICAgICAgIGZpbGw6ICNmZmY7JiN4YTsgICAgICB9JiN4YTsmI3hhOyAgICAgIC5jbHMtMiB7JiN4YTsgICAgICAgIGZpbGw6ICNkYTI5MWM7JiN4YTsgICAgICB9JiN4YTsgICAgPC9zdHlsZT4mI3hhOyAgPC9kZWZzPiYjeGE7ICAmI3hhOyAgPGc+JiN4YTsgICAgPGcgaWQ9IkViZW5lXzIiPiYjeGE7ICAgICAgPHBhdGggZD0iTTMxLjMxNDksNjIuMzYyMkMxMy40ODI4LDYyLjM2MjIsMCw0Ny41OTA1LDAsMzEuMzE0OCwwLDEyLjYzMjksMTUuNTU3MSwwLDMxLjA4MDcsMGMxOC42MDE2LDAsMzEuMjgxNSwxNS4zMzk5LDMxLjI4MTUsMzAuOTQ3MiwwLDE5LjA0OTUtMTUuNjU3NSwzMS40MTUtMzEuMDQ3MywzMS40MTVoMFoiIGNsYXNzPSJjbHMtMiIvPiYjeGE7ICAgICAgPHBhdGggZD0iTTQ4LjcxMDQsNDIuNTk2NGwuMDI1Niw0LjY2MDYtNC44MTQ5LTQuODE1NWMyLjYwNzktMy4wMjk3LDQuMTk2MS02Ljk2MDgsNC4xOTYxLTExLjI2MjMsMC00LjMxNDYtMS41OTgzLTguMjU1Ni00LjIyMDEtMTEuMjg4OWw0Ljc4NS00Ljc4NTYtLjAyNTYsNC42NjAxLDEuOTY3OC0xLjk2NzYtLjAyMDktNi4wMzE0LTYuMDI2Mi0uMDE0OS0xLjk2NjksMS45Njc1LDQuNjU5LS4wMjYyLTQuNzY3Myw0Ljc2NzJjLTMuMDgxOC0yLjgzMzMtNy4xNzgtNC41Nzk1LTExLjY4NDMtNC41Nzk1LTkuNTM5MSwwLTE3LjI5OTMsNy43NjAzLTE3LjI5OTMsMTcuMjk5M3M3Ljc2MDMsMTcuMjk5MywxNy4yOTkzLDE3LjI5OTNjNC41MTkzLDAsOC42MjY1LTEuNzU2MywxMS43MTEyLTQuNjA0Mmw0Ljc5NDMsNC43OTQzLTQuNjU5MS0uMDI1MywxLjk2NjgsMS45NjgsNi4wMzE3LS4wMjEzLjAxNTQtNi4wMjU1LTEuOTY3OC0xLjk2ODFaTTE1LjUxODYsMzEuMTc5MmMwLTguNDM2LDYuODYzMy0xNS4yOTkzLDE1LjI5OTMtMTUuMjk5M3MxNS4yOTkzLDYuODYzMywxNS4yOTkzLDE1LjI5OTMtNi44NjMzLDE1LjI5OTMtMTUuMjk5MywxNS4yOTkzLTE1LjI5OTMtNi44NjMzLTE1LjI5OTMtMTUuMjk5M1oiIGNsYXNzPSJjbHMtMSIvPiYjeGE7ICAgICAgPGc+JiN4YTsgICAgICAgIDxwYXRoIGQ9Ik0yMC45MDc2LDI5LjA0NDlsLTEuNDU1Ni4zMzMtLjQ1NjUtMS44NTAxLDIuNTI4OC0uNzE1OGgxLjczOTd2OC42OTczaC0yLjM1NjR2LTYuNDY0NFoiIGNsYXNzPSJjbHMtMSIvPiYjeGE7ICAgICAgICA8cGF0aCBkPSJNMjguMDI1OCwzNS42ODIxYy0uNjQxNiwwLTEuMjA1MS0uMDkyOC0xLjY4OTktLjI3OTMtLjQ4NTQtLjE4NjUtLjkyNTMtLjQzNjUtMS4zMjAzLS43NTFsMS4xMjI2LTEuNjU5MmMuMjk2NC4yMzgzLjU5MjMuNDEzMS44ODgyLjUyNDQuMjk2NC4xMTEzLjYxNzIuMTY2Ljk2MjQuMTY2LjQ5MzcsMCwuODc0LS4xNTkyLDEuMTQxMS0uNDc3NXMuNDI5Ny0uNzU0OS40ODczLTEuMzExYy0uMjIyNy4yMTQ0LS40ODY4LjM4NDMtLjc5MTUuNTEyMi0uMzA1Mi4xMjc5LS42NTE5LjE5MTQtMS4wMzkxLjE5MTQtLjQyMDQsMC0uODA4MS0uMDYzNS0xLjE2MjYtLjE5MTQtLjM1NS0uMTI3OS0uNjYxNi0uMzA4Ni0uOTIxNC0uNTQzcy0uNDYxOS0uNTItLjYwNi0uODU3NGMtLjE0NDUtLjMzNjktLjIxNjgtLjcxNTMtLjIxNjgtMS4xMzQ4di0uMDI0NGMwLS40NzcxLjA4NjQtLjkwODcuMjU5My0xLjI5NTRzLjQxMzEtLjcxNzguNzIxNy0uOTkzMi42NzI0LS40ODczLDEuMDkxOC0uNjM1My44NzYtLjIyMjIsMS4zNjkxLS4yMjIyYy42MjUsMCwxLjE0MTEuMDg2NCwxLjU0ODMuMjU5My40MDcyLjE3MjQuNzc0OS40MjMzLDEuMTA0Ljc1MjQuMzEyNS4zMTI1LjU2MzUuNzIzNi43NTI0LDEuMjMzNC4xODk5LjUxMDMuMjgzNywxLjE2NDEuMjgzNywxLjk2MTR2LjAyNDljMCwuNzA3NS0uMDg1OSwxLjM1My0uMjU3MywxLjkzNy0uMTcyNC41ODQtLjQyNTgsMS4wODMtLjc2MTIsMS40OTktLjMzNTQuNDE1LS43NTEuNzM3My0xLjI0NzEuOTY3OC0uNDk2Ni4yMzA1LTEuMDY5My4zNDU3LTEuNzE4OC4zNDU3Wk0yOC40Mzg5LDMwLjg4MzNjLjM4MDQsMCwuNjc3Ny0uMTA5NC44OTI2LS4zMjg2LjIxNTMtLjIxOTIuMzIyOC0uNDg1OC4zMjI4LS44MDAzdi0uMDI0NGMwLS4zMzg5LS4xMTE4LS42MjAxLS4zMzUtLjg0MzgtLjIyMzEtLjIyMzEtLjUyNDktLjMzNDUtLjkwNDgtLjMzNDUtLjM4MDQsMC0uNjc4Mi4xMDk0LS44OTMxLjMyODZzLS4zMjIzLjQ5OC0uMzIyMy44MzY5di4wMjQ5YzAsLjMzMTEuMTExMy42MDM1LjMzNDUuODE4NC4yMjM2LjIxNTMuNTI0OS4zMjI4LjkwNTMuMzIyOFoiIGNsYXNzPSJjbHMtMSIvPiYjeGE7ICAgICAgICA8cGF0aCBkPSJNMzIuODAwMiwzMy43MDg1bDMuMjMyNC0yLjQ2NzhjLjQwMjMtLjMxMi42ODg1LS41ODM1Ljg1NjQtLjgxNC4xNjg5LS4yMy4yNTI5LS40NzcxLjI1MjktLjc0MDIsMC0uMjcxNS0uMDg3OS0uNDg1NC0uMjY0Ni0uNjQxNi0uMTc2OC0uMTU1OC0uNDA5Mi0uMjM0NC0uNjk3My0uMjM0NHMtLjU2MTUuMDg4NC0uODIwMy4yNjUxYy0uMjU4OC4xNzcyLS41NTc2LjQ1OS0uODk0NS44NDUybC0xLjYxNjItMS4zNDQ3Yy4yMzA1LS4yOTU5LjQ2NDgtLjU1OTEuNzAzMS0uNzg5Ni4yMzkzLS4yMy40OTYxLS40MjMzLjc3MTUtLjU3OTZzLjU4MDEtLjI3NTQuOTEzMS0uMzU3OWMuMzMzLS4wODIuNzA5LS4xMjMsMS4xMjg5LS4xMjMuNDY4OCwwLC44OTg0LjA2NzksMS4yODkxLjIwMzEuMzkwNi4xMzU3LjcyNTYuMzIzMiwxLjAwNDkuNTYxNS4yNzkzLjIzODguNDk4LjUyODMuNjU0My44Njk2cy4yMzQ0LjcxMzkuMjM0NCwxLjExNjd2LjAyNDRjMCwuMzQ1Ny0uMDQzLjY1MzgtLjEyOTkuOTI1My0uMDg1OS4yNzE1LS4yMTU4LjUyNDQtLjM4ODcuNzU4OHMtLjM4MTguNDU4NS0uNjI4OS42NzI0LS41MzAzLjQzNjUtLjg1MTYuNjY2bC0xLjQ4MDUsMS4wMzYxaDMuNTY1NHYxLjk0OTJoLTYuODM0di0xLjgwMDhaIiBjbGFzcz0iY2xzLTEiLz4mI3hhOyAgICAgICAgPHBhdGggZD0iTTQwLjg2NzYsMzMuMTA0aDIuNDQyNHYyLjQwNTNoLTIuNDQyNHYtMi40MDUzWiIgY2xhc3M9ImNscy0xIi8+JiN4YTsgICAgICA8L2c+JiN4YTsgICAgPC9nPiYjeGE7ICA8L2c+JiN4YTs8L3N2Zz4=;" vertex="1" parent="1">
          <mxGeometry x="130" y="210" width="62" height="62" as="geometry" />
        </mxCell>
        <mxCell id="d-CWmxk7Mh6oMbrWVQdX-11" value="" style="shape=image;verticalLabelPosition=bottom;verticalAlign=top;imageAspect=0;aspect=fixed;image=data:image/svg+xml,PHN2ZyB4bWxucz0iaHR0cDovL3d3dy53My5vcmcvMjAwMC9zdmciIHZpZXdCb3g9IjAgMCA2Mi4zNjIyIDYyLjM2MjIiIHZlcnNpb249IjEuMSI+JiN4YTsgIDxkZWZzPiYjeGE7ICAgIDxzdHlsZT4mI3hhOyAgICAgIC5jbHMtMSB7JiN4YTsgICAgICAgIGZpbGw6ICNmZmY7JiN4YTsgICAgICB9JiN4YTsmI3hhOyAgICAgIC5jbHMtMiB7JiN4YTsgICAgICAgIGZpbGw6ICNkYTI5MWM7JiN4YTsgICAgICB9JiN4YTsmI3hhOyAgICAgIC5jbHMtMyB7JiN4YTsgICAgICAgIGRpc3BsYXk6IG5vbmU7JiN4YTsgICAgICB9JiN4YTsgICAgPC9zdHlsZT4mI3hhOyAgPC9kZWZzPiYjeGE7ICAmI3hhOyAgPGc+JiN4YTsgICAgPGcgaWQ9IkViZW5lXzIiPiYjeGE7ICAgICAgPHBhdGggZD0iTTMxLjMxNDksNjIuMzYyMkMxMy40ODI4LDYyLjM2MjIsMCw0Ny41OTA1LDAsMzEuMzE0OCwwLDEyLjYzMjksMTUuNTU3MSwwLDMxLjA4MDcsMGMxOC42MDE2LDAsMzEuMjgxNSwxNS4zMzk5LDMxLjI4MTUsMzAuOTQ3MiwwLDE5LjA0OTUtMTUuNjU3NSwzMS40MTUtMzEuMDQ3MywzMS40MTVoMFoiIGNsYXNzPSJjbHMtMiIvPiYjeGE7ICAgICAgPHBhdGggZD0iTTUyLjM2MTgsMjYuOTAwNmwtMi43ODIuMDA2NiwzLjMyMDMsMy4yNjg1LTYuODE3LjAxNzhjLS4yMjMtMy45MjcxLTEuNzUwNS03LjUwMzgtNC4xNzAyLTEwLjMwMzJsNC43ODUtNC43ODU2LS4wMjU2LDQuNjYwMSwxLjk2NzgtMS45Njc2LS4wMjA5LTYuMDMxNC02LjAyNjEtLjAxNDktMS45NjY5LDEuOTY3NSw0LjY1OS0uMDI2Mi00Ljc2NzMsNC43NjcyYy0zLjA4MTgtMi44MzMzLTcuMTc4LTQuNTc5NS0xMS42ODQzLTQuNTc5NS05LjUzOTEsMC0xNy4yOTkzLDcuNzYwMy0xNy4yOTkzLDE3LjI5OTNzNy43NjAzLDE3LjI5OTMsMTcuMjk5MywxNy4yOTkzYzQuNTE5MywwLDguNjI2NS0xLjc1NjMsMTEuNzExMi00LjYwNDJsNC43OTQzLDQuNzk0My00LjY1OTEtLjAyNTMsMS45NjY4LDEuOTY4LDYuMDMxNy0uMDIxMy4wMTU0LTYuMDI1NS0xLjk2NzgtMS45NjgxLjAyNTYsNC42NjA2LTQuODE0OS00LjgxNTVjMi40MDA3LTIuNzg5LDMuOTE3Mi02LjM0Niw0LjE0NDgtMTAuMjQ5OGw2LjgyMjktLjAxODQtMy4zMDYsMy4yODQ0LDIuNzgyNy0uMDA1OSw0LjI0MDYtNC4yODktNC4yNjAxLTQuMjYyM1pNMjguODMzNiw0Ni40Nzg1Yy04LjQzNiwwLTE1LjI5OTMtNi44NjMzLTE1LjI5OTMtMTUuMjk5M3M2Ljg2MzMtMTUuMjk5MywxNS4yOTkzLTE1LjI5OTMsMTUuMjk5Myw2Ljg2MzMsMTUuMjk5MywxNS4yOTkzLTYuODYzMywxNS4yOTkzLTE1LjI5OTMsMTUuMjk5M1oiIGNsYXNzPSJjbHMtMSIvPiYjeGE7ICAgIDwvZz4mI3hhOyAgICA8ZyBjbGFzcz0iY2xzLTMiIGlkPSJFYmVuZV8zIj4mI3hhOyAgICAgIDxwYXRoIGQ9Ik0zMS4zMTQ5LDYyLjM2MjJDMTMuNDgyOCw2Mi4zNjIyLDAsNDcuNTkwNSwwLDMxLjMxNDgsMCwxMi42MzI5LDE1LjU1NzEsMCwzMS4wODA3LDBjMTguNjAxNiwwLDMxLjI4MTUsMTUuMzM5OSwzMS4yODE1LDMwLjk0NzIsMCwxOS4wNDk1LTE1LjY1NzUsMzEuNDE1LTMxLjA0NzMsMzEuNDE1aDBaIiBjbGFzcz0iY2xzLTIiLz4mI3hhOyAgICAgIDxwYXRoIGQ9Ik0zMC44MTc5LDQ4LjQ3ODVjLTkuNTM5MSwwLTE3LjI5OTMtNy43NjA3LTE3LjI5OTMtMTcuMjk5M3M3Ljc2MDMtMTcuMjk5MywxNy4yOTkzLTE3LjI5OTMsMTcuMjk5Myw3Ljc2MDMsMTcuMjk5MywxNy4yOTkzLTcuNzYwNywxNy4yOTkzLTE3LjI5OTMsMTcuMjk5M1pNMzAuODE3OSwxNS44Nzk5Yy04LjQzNiwwLTE1LjI5OTMsNi44NjMzLTE1LjI5OTMsMTUuMjk5M3M2Ljg2MzMsMTUuMjk5MywxNS4yOTkzLDE1LjI5OTMsMTUuMjk5My02Ljg2MzMsMTUuMjk5My0xNS4yOTkzLTYuODYzMy0xNS4yOTkzLTE1LjI5OTMtMTUuMjk5M1oiIGNsYXNzPSJjbHMtMSIvPiYjeGE7ICAgICAgPHBhdGggZD0iTTUwLjYwMzUsMTEuNzY1OGwuMDIwOSw2LjAzMTQtMS45Njc4LDEuOTY3Ni4wMjU2LTQuNjYwMS02LjEzMzIsNi4xMzQxLTEuNDEzNi0xLjQxMjQsNi4xMzQyLTYuMTM0Mi00LjY1OS4wMjYzLDEuOTY2OS0xLjk2NzUsNi4wMjYyLjAxNDlaIiBjbGFzcz0iY2xzLTEiLz4mI3hhOyAgICAgIDxwYXRoIGQ9Ik01MC42NjI4LDUwLjU5bC02LjAzMTYuMDIxMy0xLjk2NjgtMS45NjgsNC42NTkxLjAyNTMtNi4xMzQyLTYuMTM0MSwxLjQxMzYtMS40MTE1LDYuMTMzMyw2LjEzNDEtLjAyNTUtNC42NjA2LDEuOTY3OCwxLjk2ODEtLjAxNTQsNi4wMjU1WiIgY2xhc3M9ImNscy0xIi8+JiN4YTsgICAgPC9nPiYjeGE7ICA8L2c+JiN4YTs8L3N2Zz4=;" vertex="1" parent="1">
          <mxGeometry x="210" y="210" width="62" height="62" as="geometry" />
        </mxCell>
        <mxCell id="d-CWmxk7Mh6oMbrWVQdX-12" value="" style="shape=image;verticalLabelPosition=bottom;verticalAlign=top;imageAspect=0;aspect=fixed;image=data:image/svg+xml,PHN2ZyB4bWxucz0iaHR0cDovL3d3dy53My5vcmcvMjAwMC9zdmciIHZpZXdCb3g9IjAgMCA2Mi4zNjIyIDYyLjM2MjIiIHZlcnNpb249IjEuMSI+JiN4YTsgIDxkZWZzPiYjeGE7ICAgIDxzdHlsZT4mI3hhOyAgICAgIC5jbHMtMSB7JiN4YTsgICAgICAgIGZpbGw6ICNmZmY7JiN4YTsgICAgICB9JiN4YTsmI3hhOyAgICAgIC5jbHMtMiB7JiN4YTsgICAgICAgIGZpbGw6ICNkYTI5MWM7JiN4YTsgICAgICB9JiN4YTsgICAgPC9zdHlsZT4mI3hhOyAgPC9kZWZzPiYjeGE7ICAmI3hhOyAgPGc+JiN4YTsgICAgPGcgaWQ9IkViZW5lXzIiPiYjeGE7ICAgICAgPHBhdGggZD0iTTMxLjMxNDksNjIuMzYyMkMxMy40ODI4LDYyLjM2MjIsMCw0Ny41OTA1LDAsMzEuMzE0OCwwLDEyLjYzMjksMTUuNTU3MSwwLDMxLjA4MDcsMGMxOC42MDE2LDAsMzEuMjgxNSwxNS4zMzk5LDMxLjI4MTUsMzAuOTQ3MiwwLDE5LjA0OTUtMTUuNjU3NSwzMS40MTUtMzEuMDQ3MywzMS40MTVoMFoiIGNsYXNzPSJjbHMtMiIvPiYjeGE7ICAgICAgPGc+JiN4YTsgICAgICAgIDxwYXRoIGQ9Ik0zMS4yMTMzLDQ3LjY3OTJjLS4wMDU3LS4wNzA0LS4wMDkyLS4xMzg0LS4wMy0uMjA3LS4wMjA4LS4wNjg2LS4wNTU3LS4xMjczLS4wOTAxLS4xODktLjAyMjMtLjA0MDQtLjAzMDMtLjA4NTQtLjA1ODgtLjEyMzQtMS44MTIzLTIuNDE2NC0zLjIyNi00Ljg0ODQtNC4yODY5LTcuMjY5NS41MTQxLS4wNDE0LjkyMjYtLjQ1OTEuOTIyNi0uOTg0NCwwLS41NTE4LS40NDc4LTEtMS0xaC0uNzEyM2MtLjgyMjItMi4zMTk3LTEuMjkxNi00LjYxOTMtMS40MTg1LTYuODc4MWgxLjczMzFjLjU1MjIuMDAwMSwxLS40NDc2LDEtLjk5OTlzLS40NDc4LTEtMS0xaC0xLjc1NDRjLjA4NDItMi4zNTkuNTQ0MS00LjY2MjcsMS40MDYxLTYuODc5NGgxMC40NDI4Yy41MzQyLDEuMzk4MS45NDU3LDIuODQ4NSwxLjE5OTYsNC4zNDYyLjA4My40ODc4LjUwNTkuODMyNS45ODU0LjgzMjUuMDU1NywwLC4xMTEzLS4wMDQ0LjE2OC0uMDE0Mi41NDQ5LS4wOTIzLjkxMTEtLjYwODkuODE5My0xLjE1MzMtLjIzMzUtMS4zNzQ1LS41ODk5LTIuNzExOS0xLjA0MTMtNC4wMTEyaDYuMTcxOGMuODU4OCwxLjM0NzIsMS41MzA5LDIuODM1NiwxLjk2NDIsNC40Mzk1LjE0NTUuNTM0Mi43MDEyLjg0OTYsMS4yMjY2LjcwNDYuNTMzMi0uMTQ0Ljg0ODYtLjY5MjkuNzA1MS0xLjIyNjEtMi4wMzIyLTcuNTE3Ni04LjYyMjEtMTIuODU2OS0xNi4zOTg0LTEzLjI4NzEtOS45MDYyLS41NDItMTguNDM0Niw3LjA3NTctMTguOTgyOSwxNi45OTUxLS4yNjU2LDQuODA1MiwxLjM1Niw5LjQyNjMsNC41NjU5LDEzLjAxMTIsMy4yMSwzLjU4NTksNy42MjQsNS43MDcsMTIuNDI5Miw1Ljk3MTcuMDE5LjAwMS4wMzc2LjAwMi4wNTYyLjAwMi4xMTYxLDAsLjIzMTItLjAyNTQuMzQzLS4wNjY3LjA0MTYtLjAxNTMuMDc2NC0uMDM5Ni4xMTUyLS4wNjAxLjA0NzEtLjAyNDcuMDk3LS4wNDA2LjE0MS0uMDczNS4wMTQ4LS4wMTExLjAyMTUtLjAyODEuMDM1NS0uMDM5OS4wNTcyLS4wNDc4LjEwMTMtLjEwNS4xNDY3LS4xNjQ0LjAzMzQtLjA0NC4wNzA2LS4wODM2LjA5NTktLjEzMTguMDMwMS0uMDU2OC4wNDQ0LS4xMTk1LjA2MzItLjE4MjMuMDE4My0uMDYxNS4wNDAxLS4xMTk4LjA0NjQtLjE4MzUuMDAxNS0uMDE1LjAwOTktLjAyNzIuMDEwNy0uMDQyNC4wMDI2LS4wNDc3LS4wMTU5LS4wODk3LS4wMTk4LS4xMzZaTTIyLjU3NywyOS4wMjc3bC03LjMwNjItLjAwMWMuMjY4Ny0yLjQ3OSwxLjA5MTctNC44MTg5LDIuNDExOS02Ljg3ODFoNi4xNjQ4Yy0uNzcxMSwyLjIyMzktMS4xOTU3LDQuNTI1OS0xLjI3MDYsNi44NzlaTTI2LjgxNjYsMjAuMTQ4N2MuOTUxNi0xLjg3MTgsMi4xOTg1LTMuNjcwOSwzLjczMzgtNS4zODEzLjQwNjgtLjAxNTQuODE2NS0uMDA3OSwxLjIyNy4wMDc2LDEuNTAzMywxLjYxOTQsMi43NTY4LDMuNDI0NSwzLjcyNSw1LjM3MzhoLTguNjg1N1pNNDMuMTYyOCwyMC4xNDg3aC01LjQ2MzFjLS43OTU4LTEuNzc1Mi0xLjc5ODgtMy40NTA3LTIuOTk1OC01LjAwMDQsMy4zMTQxLjc0NTIsNi4yNTkyLDIuNTE1Myw4LjQ1ODksNS4wMDA0Wk0yMC40OTA0LDE4LjgzNTdjMi4wNTkzLTEuODQzMyw0LjUwOTUtMy4wODYyLDcuMTMyNy0zLjY3OTQtMS4yMTkxLDEuNTk0OC0yLjE5NzksMy4yNjc3LTIuOTc3OSw0Ljk5MjRoLTUuNDVjLjQwNjUtLjQ1NjcuODMyOC0uODk5MSwxLjI5NTItMS4zMTNaTTE1LjE3MzgsMzEuMDI2N2w3LjQyNDMuMDAxYy4xMTU2LDIuMjY2OC41NDc0LDQuNTY3MSwxLjI5NTIsNi44NzgxbC03LjA0OTItLjAwMDdjLTEuMDYyNi0yLjEyNTItMS42MzQ4LTQuNDYxOC0xLjY3MDMtNi44Nzg0Wk0xOS4yNDA0LDQxLjQ1MTljLS40NDA3LS40OTIzLS44MzU0LTEuMDEzMi0xLjIwNzktMS41NDY3bDYuNTg0Mi4wMDA2Yy44ODM4LDIuMTk4MSwyLjA0NDUsNC4zOTQ5LDMuNDk4OCw2LjU2OTYtMy40MTYzLS42NTg0LTYuNTE0Ny0yLjM4NjgtOC44NzUxLTUuMDIzNVoiIGNsYXNzPSJjbHMtMSIvPiYjeGE7ICAgICAgICA8cGF0aCBkPSJNMzQuMzU2MiwzNS40NjNsLjA4MTEuNDM5NSwxLjQyOTcsMy43MjU2LS4yMzYzLjI1MWMtLjE2MzEuMTA5NC0uMzI4MS4yMTk3LS40NzU2LjM1MzUtLjc4MDMuNzExOS0xLjIzNjMsMS42ODQ2LTEuMjg0MiwyLjc0MDItLjA0OTgsMS4wNTQ3LjMxNTQsMi4wNjU0LDEuMDI3MywyLjg0NTcuNzExOS43ODEyLDEuNjg0NiwxLjIzNzMsMi43NDAyLDEuMjg1Mi4wNjU0LjAwMzkuMTI1LjAwNDkuMTg2NS4wMDQ5Ljk4NDQsMCwxLjkyOTctLjM2NjIsMi42NTkyLTEuMDMyMi43ODEyLS43MTE5LDEuMjM3My0xLjY4NDYsMS4yODUyLTIuNzM5My4wNDk4LTEuMDU1Ny0uMzE1NC0yLjA2NjQtMS4wMjczLTIuODQ2Ny0uNzExOS0uNzgxMi0xLjY4NDYtMS4yMzczLTIuNzM5My0xLjI4NTItLjIxMjktLjAxMzctLjQ0MTQtLjAwMzktLjcwMzEuMDMwM2wtLjMyNjIuMDQxLS4xMDE2LS40Mjg3LTEuMjY4Ni0zLjM5MjZoLS4wMDFjLS4wMDg4LDAtLjAyODMtLjAyOTMtLjA0NDktLjA2MTVsLS4xNTQzLS4zMDA4LjI4NDItLjE4NDZjLjE4MDctLjExNzIuMzU1NS0uMjQzMi41MTc2LS4zOTE2LjI3NzMtLjI1Mi41MjI1LS41Njg0Ljc0OS0uOTY2OGwuMTY1LS4yODkxLjQwNDMuMTgwNywzLjc3NTQsMS4xMjYuMDE3Ni4zMDY2Yy0uMDY5MywxLjA4NTkuMjkxLDIuMTIyMSwxLjAxNTYsMi45MTYuNzQ3MS44MTkzLDEuODEzNSwxLjI4OTEsMi45MjQ4LDEuMjg5MS45ODgzLS4wMDEsMS45MzM2LS4zNjcyLDIuNjYxMS0xLjAzMDMsMS42MTEzLTEuNDY4OCwxLjcyNjYtMy45NzQ2LjI1ODgtNS41ODU5LS43MTE5LS43ODA4LTEuNjg1NS0xLjIzNzMtMi43NDAyLTEuMjg2MS0xLjA0NjktLjA1MDgtMi4wNjI1LjMxMzUtMi44NDU3LDEuMDI3My0uMjczNC4yNDktLjUwNjguNTQ3OS0uNzM1NC45NDI0bC0uMTYwMi4yNzU0LS4zOTM2LS4xNjMxLTMuNDUwMi0xLjAyNTRjLjAwNjguMDA4OC0uMDI5My4wMDg4LS4wNjkzLS4wMDFsLS4zMjMyLS4wNjI1LjAyMDUtLjMyODZjLjA2ODQtMS4wODQtLjI5Mi0yLjExNzctMS4wMTU2LTIuOTExMS0xLjQ2NzgtMS42MDg5LTMuOTczNi0xLjcyNTEtNS41ODY5LS4yNTczLS43ODAzLjcxMDktMS4yMzY4LDEuNjg0MS0xLjI4NTYsMi43MzkzLS4wNDg4LDEuMDU0Ny4zMTU5LDIuMDY1NCwxLjAyNzgsMi44NDU3LjcxMTQuNzgwMywxLjY4NDYsMS4yMzczLDIuNzQwMiwxLjI4NjFsLjE4NjUuMDA0OWMuMTI1LDAsLjI0NzEtLjAxNjYuMzY5MS0uMDMyMmwuNDQxNC0uMDUzN1pNMzcuNzYzNSw0NS44NTY2aC0uMDU3NmMtLjczMjQtLjAzNDItMS4zOTc1LS4zNDY3LTEuODg0OC0uODc5OS0uNDg2My0uNTM0Mi0uNzM1NC0xLjIyNTYtLjcwMzEtMS45NDYzLjAzNDItLjcyMjcuMzQ2Ny0xLjM4NzcuODc5OS0xLjg3NC41LS40NTUxLDEuMTQ2NS0uNzA2MSwxLjgyMDMtLjcwNjFsLjEyNy4wMDJjLjcyMTcuMDM0MiwxLjM4NjcuMzQ2NywxLjg3My44Nzk5cy43MzYzLDEuMjI0Ni43MDQxLDEuOTQ2M2MtLjAzNDIuNzIyNy0uMzQ2NywxLjM4NzctLjg3OTksMS44NzUtLjUuNDU1MS0xLjE2NS43MDMxLTEuODc4OS43MDMxWk00NS4yNTc2LDM3LjgyOTJjLS4wNDMsMC0uMDg1OS0uMDAxLS4xMjg5LS4wMDI5LS43MjI3LS4wMzMyLTEuMzg3Ny0uMzQ0Ny0xLjg3My0uODc3OS0xLjAwMzktMS4xMDI1LS45MjQ4LTIuODE1NC4xNzY4LTMuODIwMy41LS40NTUxLDEuMTQ1NS0uNzA2MSwxLjgxOTMtLjcwNjFsLjEyOTkuMDAzOWMuNzE4OC4wMzIyLDEuMzgzOC4zNDQ3LDEuODcxMS44Nzg5LjQ4NTQuNTMzMi43MzU0LDEuMjI0Ni43MDEyLDEuOTQ3My0uMDMzMi43MjE3LS4zNDQ3LDEuMzg2Ny0uODc3OSwxLjg3My0uNTAyLjQ1Ny0xLjE0MzYuNzA0MS0xLjgxODQuNzA0MVpNMzMuNTQ4NiwzNC4yOTljLS4wNDM5LDAtLjA4NzktLjAwMS0uMTMxOC0uMDAyOWgwYy0uNzIxNy0uMDMzMi0xLjM4NjctLjM0NTctMS44NzQtLjg3OTktLjQ4NjMtLjUzNDItLjczNTgtMS4yMjQ2LS43MDMxLTEuOTQ1OC4wMzMyLS43MjE3LjM0NTctMS4zODcyLjg3OTktMS44NzQsMS4wNTg2LS45NjU4LDIuODU1NS0uODgwOSwzLjgyMDMuMTc1OCwxLjAwMzksMS4xMDI1LjkyNDgsMi44MTU5LS4xNzY4LDMuODIwOC0uNTAyLjQ1OC0xLjE0MTYuNzA2MS0xLjgxNDUuNzA2MVoiIGNsYXNzPSJjbHMtMSIvPiYjeGE7ICAgICAgPC9nPiYjeGE7ICAgIDwvZz4mI3hhOyAgPC9nPiYjeGE7PC9zdmc+;" vertex="1" parent="1">
          <mxGeometry x="290" y="210" width="62" height="62" as="geometry" />
        </mxCell>
        <mxCell id="d-CWmxk7Mh6oMbrWVQdX-13" value="" style="shape=image;verticalLabelPosition=bottom;verticalAlign=top;imageAspect=0;aspect=fixed;image=data:image/svg+xml,PHN2ZyB4bWxucz0iaHR0cDovL3d3dy53My5vcmcvMjAwMC9zdmciIHZpZXdCb3g9IjAgMCA2Mi4zNjIyIDYyLjM2MjIiIHZlcnNpb249IjEuMSI+JiN4YTsgIDxkZWZzPiYjeGE7ICAgIDxzdHlsZT4mI3hhOyAgICAgIC5jbHMtMSB7JiN4YTsgICAgICAgIGZpbGw6ICNmZmY7JiN4YTsgICAgICB9JiN4YTsmI3hhOyAgICAgIC5jbHMtMiB7JiN4YTsgICAgICAgIGZpbGw6ICNkYTI5MWM7JiN4YTsgICAgICB9JiN4YTsgICAgPC9zdHlsZT4mI3hhOyAgPC9kZWZzPiYjeGE7ICAmI3hhOyAgPGc+JiN4YTsgICAgPGcgaWQ9IklDT04iPiYjeGE7ICAgICAgPHBhdGggZD0iTTMxLjMxNDksNjIuMzYyMkMxMy40ODI4LDYyLjM2MjIsMCw0Ny41OTA0LDAsMzEuMzE0OCwwLDEyLjYzMjksMTUuNTU3MSwwLDMxLjA4MDcsMCw0OS42ODIzLDAsNjIuMzYyMiwxNS4zMzk5LDYyLjM2MjIsMzAuOTQ3MmMwLDE5LjA0OTUtMTUuNjU3NSwzMS40MTUtMzEuMDQ3MywzMS40MTVoMFoiIGNsYXNzPSJjbHMtMiIvPiYjeGE7ICAgICAgPHBhdGggZD0iTTQ0LjIzMjgsMTkuODYyMWMtLjAwNjctMy4zOTAxLTUuNjE2MS01Ljk0NTYtMTMuMDU0MS01Ljk0NTZzLTEzLjA0NzksMi41NTU2LTEzLjA1NDYsNS45NDU3YzAsLjAwMTEtLjAwMDYuMDAyLS4wMDA2LjAwMzF2MjAuMzQ1N2MwLDMuODY2Miw2LjcyNjYsNS45NTIxLDEzLjA1NTIsNS45NTIxczEzLjA1NDctMi4wODU5LDEzLjA1NDctNS45NTIxdi0yMC4zNDU3YzAtLjAwMTEtLjAwMDYtLjAwMi0uMDAwNi0uMDAzMVpNMjAuMTIzNSwyOS43MTkyYzEuNzExNSwxLjA5MzQsNS4wNzQ3LDIuNDk5NSwxMS4wNTUyLDIuNDk5NSw1Ljk5MDMsMCw5LjM0OTgtMS40MTExLDExLjA1NDctMi41MDU2djUuMjM3MmMtMS4xMTA1LjkwMzMtNC4yNTE0LDIuODAyNi0xMS4wNTQ3LDIuODAyNi02Ljc3OTEsMC05LjkyOTgtMS44ODU4LTExLjA1NTItMi43OTM1di01LjI0MDJaTTQyLjIzMzQsMjguMTY2Yy0xLjExMDUuOTAzLTQuMjUxNCwyLjgwMjItMTEuMDU0NywyLjgwMjItNi43Nzk1LDAtOS45Mjk5LTEuODg1OS0xMS4wNTUyLTIuNzkzMnYtNS4wNjE2YzIuMjY5NywxLjY1MDYsNi4yODA5LDIuNzA2OCwxMS4wNTUyLDIuNzA2OHM4Ljc4NS0xLjA1NjIsMTEuMDU0Ny0yLjcwNjh2NS4wNTI1Wk0zMS4xNzg3LDE1LjkxNjVjNi44NDg2LDAsMTEuMDU0NywyLjMwMTgsMTEuMDU0NywzLjk1MTdzLTQuMjA2MSwzLjk1MjEtMTEuMDU0NywzLjk1MjEtMTEuMDU1Mi0yLjMwMTgtMTEuMDU1Mi0zLjk1MjEsNC4yMDU2LTMuOTUxNywxMS4wNTUyLTMuOTUxN1pNMzEuMTc4Nyw0NC4xNjMxYy02Ljg0OTYsMC0xMS4wNTUyLTIuMzAxOC0xMS4wNTUyLTMuOTUyMXYtMy43MDc1YzEuNzExNSwxLjA5MzQsNS4wNzQ3LDIuNDk5NSwxMS4wNTUyLDIuNDk5NSw1Ljk5MDMsMCw5LjM0OTgtMS40MTA4LDExLjA1NDctMi41MDU0djMuNzEzNGMwLDEuNjUwNC00LjIwNjEsMy45NTIxLTExLjA1NDcsMy45NTIxWiIgY2xhc3M9ImNscy0xIi8+JiN4YTsgICAgPC9nPiYjeGE7ICA8L2c+JiN4YTs8L3N2Zz4=;" vertex="1" parent="1">
          <mxGeometry x="50" y="290" width="62" height="62" as="geometry" />
        </mxCell>
        <mxCell id="d-CWmxk7Mh6oMbrWVQdX-14" value="" style="shape=image;verticalLabelPosition=bottom;verticalAlign=top;imageAspect=0;aspect=fixed;image=data:image/svg+xml,PHN2ZyB4bWxucz0iaHR0cDovL3d3dy53My5vcmcvMjAwMC9zdmciIHZpZXdCb3g9IjAgMCA2Mi4zNjIyIDYyLjM2MjIiIHZlcnNpb249IjEuMSI+JiN4YTsgIDxkZWZzPiYjeGE7ICAgIDxzdHlsZT4mI3hhOyAgICAgIC5jbHMtMSB7JiN4YTsgICAgICAgIGZpbGw6ICNmZmY7JiN4YTsgICAgICB9JiN4YTsmI3hhOyAgICAgIC5jbHMtMiB7JiN4YTsgICAgICAgIGZpbGw6ICNmZWZlZmU7JiN4YTsgICAgICB9JiN4YTsmI3hhOyAgICAgIC5jbHMtMyB7JiN4YTsgICAgICAgIGZpbGw6ICNkYTI5MWM7JiN4YTsgICAgICB9JiN4YTsgICAgPC9zdHlsZT4mI3hhOyAgPC9kZWZzPiYjeGE7ICAmI3hhOyAgPGc+JiN4YTsgICAgPGcgaWQ9IkhpbnRlcmdydW5kIj4mI3hhOyAgICAgIDxwYXRoIGQ9Ik0zMS4zMTQ5LDYyLjM2MzlDMTMuNDgyOCw2Mi4zNjM5LDAsNDcuNTkyMSwwLDMxLjMxNjQsMCwxMi42MzQ1LDE1LjU1NzEuMDAxNywzMS4wODA3LjAwMTcsNDkuNjgyMy4wMDE3LDYyLjM2MjIsMTUuMzQxNiw2Mi4zNjIyLDMwLjk0ODhjMCwxOS4wNDk1LTE1LjY1NzUsMzEuNDE1LTMxLjA0NzMsMzEuNDE1aDBaIiBjbGFzcz0iY2xzLTMiLz4mI3hhOyAgICA8L2c+JiN4YTsgICAgPGcgaWQ9IklDT04iPiYjeGE7ICAgICAgPGc+JiN4YTsgICAgICAgIDxjaXJjbGUgcj0iMTkuMzQ2NSIgY3k9IjMxLjE4MTEiIGN4PSIzMS4xODExIiBjbGFzcz0iY2xzLTMiLz4mI3hhOyAgICAgICAgPHBhdGggZD0iTTMxLjE4MTEsMTEuODM0NmMxMC42ODQ4LDAsMTkuMzQ2NSw4LjY2MTcsMTkuMzQ2NSwxOS4zNDY1cy04LjY2MTcsMTkuMzQ2NS0xOS4zNDY1LDE5LjM0NjUtMTkuMzQ2NS04LjY2MTctMTkuMzQ2NS0xOS4zNDY1UzIwLjQ5NjQsMTEuODM0NiwzMS4xODExLDExLjgzNDZNMzEuMTgxMSwxMC41ODQ2Yy0xMS4zNTY5LDAtMjAuNTk2NSw5LjIzOTUtMjAuNTk2NSwyMC41OTY1czkuMjM5NSwyMC41OTY1LDIwLjU5NjUsMjAuNTk2NSwyMC41OTY1LTkuMjM5NSwyMC41OTY1LTIwLjU5NjUtOS4yMzk1LTIwLjU5NjUtMjAuNTk2NS0yMC41OTY1aDBaIiBjbGFzcz0iY2xzLTIiLz4mI3hhOyAgICAgIDwvZz4mI3hhOyAgICAgIDxnPiYjeGE7ICAgICAgICA8cGF0aCBkPSJNMzguMDI5MywzMy42Njk5Yy0uMzQwOCwwLS42NzM4LS4xNzQ4LS44NjA0LS40ODkzLS4yODIyLS40NzQ2LS4xMjYtMS4wODg5LjM0ODYtMS4zNzA2LDIuMjQ4LTEuMzM1NCwzLjc2ODYtMy4xNDc1LDQuNTE3Ni01LjM4NTcuMTkyNC0uNTc0Ny4wODMtMS4xNTk3LS4zMzMtMS43ODc2LS43MzE0LTEuMTAzNS0xLjUwMi0yLjE5MjktMi4yOTEtMy4yMzgzLS40MjA5LS41NTg2LS45MDMzLS42ODEyLTEuNjAzNS0uNDEzMWwtLjIwNTEuMDc1N2MtLjEzNjcuMDQ5My0uMjc1NC4wOTYyLS40MDIzLjE2MzEtMS40OTkuNzkzLTIuOTI1OC42NDE2LTQuMDAyOS40MTk5LTEuNzI0Ni0uMzU2NC0zLjM0MDgtLjMyMTgtNC44MDI3LjEwMDEtLjUyMS4xNTE0LTEuMTQ0LjEzNDMtMS44NTMtLjA0OTgtLjQ0NjMtLjExNTctLjg4NDgtLjI2MDctMS4zMjMyLS40MDYyLS40OTY2LS4xNjQ2LS45NjU4LS4zMjA4LTEuNDM2LS40MjcyLS4wNzgxLS4wMTYxLS4zMTY5LS4wNzI4LS42NTIzLjM3NTVsLS42NjQxLjg3NzljLS42MTM4LjgwODEtMS4yMjgsMS42MTY3LTEuODA2NiwyLjQ1MDItLjQ2MjkuNjY3LS41NDU5LDEuMzgyOC0uMjUyOSwyLjE4OC42Nzc3LDEuODY1MiwxLjk1NDYsMy40MzEyLDQuMDE3Niw0LjkyODIuNDQ2OC4zMjQyLjU0NjQuOTUwMi4yMjIyLDEuMzk2NS0uMzI0Mi40NDczLS45NDk3LjU0NzktMS4zOTcuMjIyNy0yLjM2ODItMS43MTg4LTMuOTEzMS0zLjYzNjctNC43MjI3LTUuODYzOC0uNTE2MS0xLjQxOTQtLjM0NjctMi44MDcxLjQ5MDItNC4wMTIyLjU5NDItLjg1NjQsMS4yMjUxLTEuNjg4LDEuODU2NC0yLjUxOWwuNjU3Mi0uODY5NmMuNzA3NS0uOTQxOSwxLjY5MDQtMS4zNTE2LDIuNjkzNC0xLjEyNS41NjU5LjEyODQsMS4xMDQ1LjMwNzEsMS42MjUuNDguMzk2LjEzMTMuNzkyNS4yNjM3LDEuMTk1My4zNjg3LjQ5OC4xMjg5LjczMzQuMDgxNS43OTQ0LjA2NDUsMS43Nzc4LS41MTQyLDMuNzE2My0uNTYxLDUuNzYzMi0uMTM4MiwxLjE0MTYuMjM2MywxLjkxMzEuMTY4NSwyLjY2NDEtLjIyOS4yMDktLjExMDguNDMyNi0uMTk0OC42NTcyLS4yNzU5bC4xNzI5LS4wNjM1YzEuNTI3My0uNTgzLDIuOTU0MS0uMTkxNCwzLjkxMTEsMS4wNzcxLjgxMzUsMS4wNzc2LDEuNjA4NCwyLjIwMDcsMi4zNjIzLDMuMzM3OS43NTY4LDEuMTQyNi45NTIxLDIuMzYyMy41NjI1LDMuNTI2OS0uOTA2MiwyLjcwNjUtMi43MjA3LDQuODgzMy01LjM5MjYsNi40NzA3LS4xNjAyLjA5NTctLjMzNTkuMTQwNi0uNTA5OC4xNDA2WiIgY2xhc3M9ImNscy0xIi8+JiN4YTsgICAgICAgIDxwYXRoIGQ9Ik0yOS44MjAzLDQzLjUxMjdoLS4wNTY2Yy0xLjI4MjItLjAyMDUtMi40ODg4LS43MDYxLTMuMjI3MS0xLjgzNC0uMzU1NS0uNTQzOS0uNDc4NS0uODc3OS0uNTIyOS0xLjA3ODEtLjEyNTUtLjM1NTUtLjMyNTItMS4wNzgxLjIxNzgtMS42NDE2LjU0MS0uNTYxNSwxLjM5NTUtLjUxNTYsMi41MDU5LS4yMDQxLjExNzctLjU5OTYuMTQ2NS0xLjYyMy4wNjk4LTEuOTY3OC0uMjMxNC0uNjY5OS0uNDAwOS0uODY2Mi0uODEwNS0xLjM0MDgtLjEzODctLjE2MTEtLjI5MzktLjM0MDgtLjQ3MTctLjU2MjUtLjcwNjEtLjg2MTMtLjc0MTItMS44MTkzLS43NjY2LTIuNTE5NS0uMDA5OC0uMjY1Ni0uMDE4Ni0uNTE3MS0uMDYzLS42NzkybC0uMDMyMi0uMTcxNGMtLjA0MzktLjMzODQtLjE2NzUtLjg1OTktLjUwODMtMS40MjMzLS45MjcyLTEuNTM0Mi0uOTgxOS0yLjY3MjktLjkwMTktMy4yOTA1LS4xOTI0LS4yNTM5LS4yNjAzLS41OTUyLS4xNTE5LS45MjA0LjE3NDMtLjUyMzQuNzM5Ny0uODA4NiwxLjI2NTEtLjYzMjMuNzI2MS4yNDIyLDEuMTIwMSwxLjAyOTguODc3OSwxLjc1NjNoMGMuMDAxLDAtLjE3NjguNzMxLjYyMjYsMi4wNTI3LjQ5MTIuODEzLjY4OSwxLjU4MTEuNzY3MSwyLjEwODlsLjAxNjEuMDkzOGMuMDgyNS4zNTExLjA5NDcuNjk3My4xMDY5LDEuMDMzMi4wMjI1LjYxMDQuMDQ5OCwxLjAwMS4zMjEzLDEuMzMyLjE2NjUuMjA4LjMwNzEuMzcwMS40MzI2LjUxNDYuNDY0OC41MzkxLjgzMi45NjM5LDEuMjAwMiwyLjAzOTEuMTg3LjU0NzkuMzI4MSwzLjM0NDctLjYyOTQsNC4zMTM1LS4zNzI2LjM3Ny0uODkwNi41MDM5LTEuMzg1My4zNDI4LS4xNDY1LS4wNDg4LS4yNzgzLS4wODg5LS4zOTY1LS4xMjMuMzc1NS40OTYxLjkyNDMuNzkzLDEuNDk1MS44MDE4LjM4NTMtLjAwMjkuOTc0MS0uMTI4OSwxLjQ0OTItLjgwNzYuMjc2NC0uNDU5LjY2NzUtMi44NzcuODE0NS0zLjc4NzEuMDY2NC0uNDEyMS4xMjIxLS43NTEuMTYyMS0uOTU4LjE1NjItLjc4ODEuNjM0OC0xLjMzODkuOTgzNC0xLjc0MDIuMDgwMS0uMDkyOC4xNTgyLS4xNzk3LjIyMTctLjI2NDYuMTM1Ny0uMjY3Ni4zMDg2LS42NTcyLjM5MjYtMS4xMjIxLjAyODMtLjE1MTQuMDIwNS0uMzA4Ni4wMTk1LS40ODQ0LS4wMDEtLjE3MjktLjAwMi0uMzU2NC4wMDg4LS41NTQ3bC0uMDAyOS0uMDE3MS4wMTI3LS4xNTQzYy4wMTc2LS4yMDkuMjU0OS0xLjUxOS44ODY3LTIuNTY2NC44MDM3LTEuMzI5MS42MjExLTIuMDYxLjYxOTEtMi4wNjg0LS4yMzYzLS43MTE5LjE1NzItMS40OTg1Ljg4MDktMS43NDAyLjUyOTMtLjE3NjgsMS4wOTA4LjEwODQsMS4yNjU2LjYzMTMuMTA4NC4zMjUyLjA0MS42NjY1LS4xNTE0LjkyMDkuMDgwMS42MTcyLjAyNjQsMS43NTU5LS45MDIzLDMuMjkwNS0uMzYyMy42MDE2LS41NTk2LDEuNDM3LS42MDM1LDEuNjgyMWwtLjAwMzkuMDU4NmMtLjAxMjcuMTgyNi0uMDEwNy4zNTA2LS4wMDk4LjUwNTkuMDAyLjI3MjUuMDAyOS41NTU3LS4wNTE4Ljg1MzUtLjEwMzUuNTc2Mi0uMzA1NywxLjE0ODQtLjYxNzIsMS43NDlsLS4wNjc0LjExMjNjLS4xMDY0LjE1MzMtLjI0MjIuMzExNS0uMzg2Ny40Nzk1LS4yMzU0LjI3MDUtLjQ3OTUuNTUwOC0uNTMyMi44MTY0LS4wMzcxLjE5MDQtLjA4NzkuNTA2OC0uMTQ5NC44ODg3LS40MTQxLDIuNTYzNS0uNzA2MSwzLjk4MDUtMS4xNTA0LDQuNjE1Mi0uNzQwMiwxLjA1ODYtMS44NTQsMS42NjExLTMuMDYyNSwxLjY2MTFaTTM1Ljg0NzcsMzEuNzkzNWMwLC4wMDItLjAwMS4wMDQ0LS4wMDEuMDA2OCwwLS4wMDA1LjAwMS0uMDAyOS4wMDEtLjAwNjhaTTI1LjM0NTcsMjYuMzczYy0uMDAwNS4wMDE1LS4wMDEuMDAyOS0uMDAxLjAwNDQsMC0uMDAxNS4wMDA1LS4wMDI5LjAwMS0uMDA0NFoiIGNsYXNzPSJjbHMtMSIvPiYjeGE7ICAgICAgPC9nPiYjeGE7ICAgIDwvZz4mI3hhOyAgICA8ZyBpZD0iVG9ubmVfT3V0bGluZSI+JiN4YTsgICAgICA8cGF0aCBkPSJNNDUuMjMwNSw1My4xNjVjLTMuODE3NCwwLTcuOTI1OC0xLjM2OTEtNy45MjU4LTQuMzc1di0xMC4xNzk3YzAtLjA1NjYsMC0uMTU3Mi4wMTg2LS4yODMyLjI1OTgtMi44MTE1LDQuMjY0Ni00LjA5MjgsNy45MDcyLTQuMDkyOCwzLjY0NzUsMCw3LjY1NjIsMS4yODEyLDcuOTE2LDQuMDkyOC4wMTg2LjEyNi4wMTg2LjIyNjYuMDE4Ni4yODMydjEwLjE3OTdjMCwzLjAwNTktNC4xMTMzLDQuMzc1LTcuOTM0Niw0LjM3NVoiIGNsYXNzPSJjbHMtMyIvPiYjeGE7ICAgIDwvZz4mI3hhOyAgICA8ZyBpZD0iVG9ubmUiPiYjeGE7ICAgICAgPHBhdGggZD0iTTUxLjg4LDM4LjQ5Yy0uMTMtMS45My0zLjQ4LTIuOTgtNi42NS0yLjk4LTMuMTYsMC02LjUxLDEuMDUtNi42NCwyLjk4LS4wMS4wNC0uMDEuMDgtLjAxLjEydjEwLjE4YzAsMi4wMSwzLjQzLDMuMSw2LjY1LDMuMSwzLjIzLDAsNi42Ni0xLjA5LDYuNjYtMy4xdi0xMC4xOGMwLS4wNCwwLS4wOC0uMDEtLjEyWk01MC42NCw0OC43OWMwLC43NS0yLjExLDEuODUtNS40MSwxLjg1cy01LjQtMS4xLTUuNC0xLjg1di0xLjQzYy45Ny41NCwyLjY2LDEuMTMsNS40LDEuMTMsMi43NywwLDQuNDUtLjU4LDUuNDEtMS4xMnYxLjQyWk01MC42NCw0NS44NWMtLjQyLjM2LTEuOSwxLjM5LTUuNDEsMS4zOS0zLjQ4LDAtNC45Ny0xLjAxLTUuNC0xLjM4di0xLjg5Yy45Ny41NCwyLjY2LDEuMTMsNS40LDEuMTMsMi43NywwLDQuNDUtLjU4LDUuNDEtMS4xMnYxLjg3Wk01MC42NCw0Mi40NmMtLjQyLjM2LTEuOSwxLjM5LTUuNDEsMS4zOS0zLjQ4LDAtNC45Ny0xLjAxLTUuNC0xLjM4di0yYzEuMjguODIsMy4zOCwxLjI1LDUuNCwxLjI1czQuMTMtLjQzLDUuNDEtMS4yNXYxLjk5Wk00NS4yMyw0MC40N2MtMy4zLDAtNS40LTEuMS01LjQtMS44NiwwLS43NSwyLjEtMS44NSw1LjQtMS44NXM1LjQxLDEuMSw1LjQxLDEuODVjMCwuNzYtMi4xMSwxLjg2LTUuNDEsMS44NloiIGNsYXNzPSJjbHMtMSIvPiYjeGE7ICAgIDwvZz4mI3hhOyAgPC9nPiYjeGE7PC9zdmc+;" vertex="1" parent="1">
          <mxGeometry x="130" y="290" width="62" height="62" as="geometry" />
        </mxCell>
        <mxCell id="d-CWmxk7Mh6oMbrWVQdX-15" value="" style="shape=image;verticalLabelPosition=bottom;verticalAlign=top;imageAspect=0;aspect=fixed;image=data:image/svg+xml,PHN2ZyB4bWxucz0iaHR0cDovL3d3dy53My5vcmcvMjAwMC9zdmciIHZpZXdCb3g9IjAgMCA2Mi4zNjIyIDYyLjM2MjIiIHZlcnNpb249IjEuMSI+JiN4YTsgIDxkZWZzPiYjeGE7ICAgIDxzdHlsZT4mI3hhOyAgICAgIC5jbHMtMSB7JiN4YTsgICAgICAgIGZpbGw6ICNmZmY7JiN4YTsgICAgICB9JiN4YTsmI3hhOyAgICAgIC5jbHMtMiB7JiN4YTsgICAgICAgIGZpbGw6ICNmZWZlZmU7JiN4YTsgICAgICB9JiN4YTsmI3hhOyAgICAgIC5jbHMtMyB7JiN4YTsgICAgICAgIGZpbGw6ICNkYTI5MWM7JiN4YTsgICAgICB9JiN4YTsgICAgPC9zdHlsZT4mI3hhOyAgPC9kZWZzPiYjeGE7ICAmI3hhOyAgPGc+JiN4YTsgICAgPGcgaWQ9IkhpbnRlcmdydW5kIj4mI3hhOyAgICAgIDxwYXRoIGQ9Ik0zMS4zMTQ5LDYyLjM2MzlDMTMuNDgyOCw2Mi4zNjM5LDAsNDcuNTkyMSwwLDMxLjMxNjQsMCwxMi42MzQ1LDE1LjU1NzEuMDAxNywzMS4wODA3LjAwMTcsNDkuNjgyMy4wMDE3LDYyLjM2MjIsMTUuMzQxNiw2Mi4zNjIyLDMwLjk0ODhjMCwxOS4wNDk1LTE1LjY1NzUsMzEuNDE1LTMxLjA0NzMsMzEuNDE1aDBaIiBjbGFzcz0iY2xzLTMiLz4mI3hhOyAgICA8L2c+JiN4YTsgICAgPGcgaWQ9IklDT04iPiYjeGE7ICAgICAgPGc+JiN4YTsgICAgICAgIDxjaXJjbGUgcj0iMTkuMzQ2NSIgY3k9IjMxLjE4MTEiIGN4PSIzMS4xODExIiBjbGFzcz0iY2xzLTMiLz4mI3hhOyAgICAgICAgPHBhdGggZD0iTTMxLjE4MTEsMTEuODM0NmMxMC42ODQ4LDAsMTkuMzQ2NSw4LjY2MTcsMTkuMzQ2NSwxOS4zNDY1cy04LjY2MTcsMTkuMzQ2NS0xOS4zNDY1LDE5LjM0NjUtMTkuMzQ2NS04LjY2MTctMTkuMzQ2NS0xOS4zNDY1UzIwLjQ5NjQsMTEuODM0NiwzMS4xODExLDExLjgzNDZNMzEuMTgxMSwxMC41ODQ2Yy0xMS4zNTY5LDAtMjAuNTk2NSw5LjIzOTUtMjAuNTk2NSwyMC41OTY1czkuMjM5NSwyMC41OTY1LDIwLjU5NjUsMjAuNTk2NSwyMC41OTY1LTkuMjM5NSwyMC41OTY1LTIwLjU5NjUtOS4yMzk1LTIwLjU5NjUtMjAuNTk2NS0yMC41OTY1aDBaIiBjbGFzcz0iY2xzLTIiLz4mI3hhOyAgICAgIDwvZz4mI3hhOyAgICAgIDxnPiYjeGE7ICAgICAgICA8cGF0aCBkPSJNMjEuMjk1OSw0Mi45NTIxYy0uMjg0NywwLS41Njc0LS4xMjExLS43NjUxLS4zNTU1LS4zNTYtLjQyMTktLjMwMjItMS4wNTI3LjEyMDEtMS40MDkyLDEuMTk0My0xLjAwNjgsMy4xNjA2LTQuODY3MiwzLjU3MjMtNi4zODc3LTEuOTE3LS40MjI5LTIuNjMxOC0uNDM2NS0zLjE2OC0uNDQ2My0uMjg3Ni0uMDA1OS0uNTI5My0uMDEyNy0uODIwMy0uMDU1Ny0uMzY3Ny0uMDU0Ny0uNjc0My0uMzA4Ni0uNzk2OS0uNjYwMi0uMTIyMS0uMzUwNi0uMDQtLjc0MDIuMjEzOS0xLjAxMTcuMDk0Ny0uMTEwNC4xODk1LS4yMTQ4LjI5NTQtLjMwNDcsMS4zMTU0LTEuMTA1NSwzLjk3MjItMi4zMjU3LDYuNzM2My0yLjQyNjguMTQ1LS4wMzkxLjE5NzgtLjEwNDUuMjUxLS4yMjM2bC4xOTE5LS40NDgyYy43MzM0LTEuNzM4MywyLjQ1MTItNS44MDg2LDUuMzExLTcuMzc5OS45NTgtLjUyNjksMS45Nzk1LS43OTU0LDMuMjEyOS0uODQ0Ny4zMDI3LS4wMTIyLDEuMTA2NC0uMDQ0NCwxLjMxNTQtLjEwODkuMzM0LS4xMzkyLjY2OC0uMzg2MiwxLjAyMDUtLjY0NzUuNDc1Ni0uMzUyNSwxLjAxNTYtLjc1MiwxLjY4OTUtLjk0MzQuODI5MS0uMTY0NiwxLjIxMDktLjE5NzMsMS43Mjk1LjEwMDYuNzc1NC4zODk2LjkxMTEsMS4xMjExLjk1NjEsMS4zNjEzLjE3NzcuOTYxNC0uMTI3LDEuODE1NC0uNDg1NCwyLjIwMTctLjIwNDEuMjE5Mi0uNDE5OS40NDI0LS42NDE2LjY3MjktLjc2MzcuNzktMS41NTM3LDEuNjA3NC0yLjE4NzUsMi41ODAxLS41NDU5LDEuMDAxLS43OTY5LDEuMzg0OC0xLjQ4OTMsMi4wOTkxLjAwNzguMDQ1NC4wMjczLjEyMjYuMDcwMy4yNDY2LjA4NC4yNDE3LjE4ODUuNDc3MS4yOTMuNzEyOS4zMTc0LjcyMDcuNjc3NywxLjUzNzEuNTcyMywyLjUwMzQtLjA4Mi43NDM3LTEuNTYwNSwzLjkwMTktMS45Nzc1LDQuMjI1MS0uMzAwOC4yMzM0LS43MDkuMjc2NC0xLjA1MjcuMTA3NC0uMzQyOC0uMTY4LS41NjA1LS41MTY2LS41NjA1LS44OTc1LjAwMS0xLjQwOTItLjQzNjUtMi4xMTUyLS43NTQ5LTIuNjMwOS0uMTExMy0uMTc5Ny0uMjA1MS0uMzM1OS0uMjcwNS0uNDc0Ni0uMjM1NC0uNDk5NS0uMDIyNS0xLjA5NTcuNDc3NS0xLjMzMTUuNDk5LS4yMzU0LDEuMDk0Ny0uMDIxNSwxLjMzMTEuNDc3MS4wMzgxLjA4Mi4wOTY3LjE3MTQuMTYyMS4yNzY5LjEyMDEuMTk0My4yNjQ2LjQyNzcuNDA4Mi43MTUzLjEzMjgtLjMxMi4yMjg1LS41NjY5LjI1LS42OTUzLjA0NjktLjQyMjQtLjE2Ny0uOTA2Ny0uNDE1LTEuNDY4My0uMTI2LS4yODYxLS4yNTItLjU3MzItLjM1MjUtLjg2NDctLjEyMDEtLjM0NjItLjQ4ODMtMS40MDQ4LjMyOTEtMi4yMzg4LjU3MzItLjU4NS43MTQ4LS43ODU2LDEuMjY0Ni0xLjc4OTEuNzc3My0xLjE5NzgsMS42NzI5LTIuMTI1LDIuNDYzOS0yLjk0MjkuMTk0My0uMjAxMi4zODI4LS4zOTY1LjU2MTUtLjU4NzQuMDc0NC0uMTA3OS4xMjMxLS4xNjUyLjEwNzctLjM5NS0uMzA3Ny0uMDU2NC0uMjA3OS0uMDUxOC0uMzI1NS0uMDIxMS0uMjAxNC4wNzIzLS41NzUyLjMyMDMtLjk2MjkuNjA3NC0uNDE0MS4zMDY2LS44ODM4LjY1MzgtMS40NjU4Ljg5NTUtLjM5MDYuMTYyMS0uOTUwMi4yMTA0LTEuOTgwNS4yNTE1LS45MjQ4LjAzNzEtMS42NDM2LjIyMTctMi4zMjkxLjU5OTEtMi4yNTE1LDEuMjM3My0zLjc3OTgsNC44NTg0LTQuNDMyMSw2LjQwNTMtLjA4MjUuMTk0My0uMTUxOS4zNTg5LS4yMDg1LjQ4NTgtLjMzNTQuNzUxLS45NDU4LDEuMjMxLTEuNzY1NiwxLjM4NzItLjA1MjcuMDA5OC0uMTA2NC4wMTU2LS4xNjAyLjAxNzEtMS4xNjc1LjAzMTctMi4zNTIxLjMxNjQtMy4zNzMuNzEzOS41MTMyLjA5MzgsMS4xMzMzLjIyMjcsMS44OTUuNDAyMy40NDkyLjEwNjQuNzg1Mi40NTMxLjg5ODQuOTI3Ny40MTc1LDEuNzQ4LTIuNzI2MSw3LjQ0MjQtNC4zMTU0LDguNzgyMi0uMTg3NS4xNTgyLS40MTY1LjIzNTQtLjY0NC4yMzU0Wk00MC4zNDU3LDIxLjY4NTVoMFoiIGNsYXNzPSJjbHMtMSIvPiYjeGE7ICAgICAgICA8cGF0aCBkPSJNMjUuNzYwNyw0My43NTc4Yy0uMzE4OCwwLS42MzE4LS4xNTE0LS44MjU3LS40MzQ2LS4zMTI1LS40NTUxLS4xOTYzLTEuMDc3MS4yNTg4LTEuMzg5NiwzLjI1NzgtMi4yMzU0LDYuNDY4My03LjM5MjYsNi41MDA1LTcuNDQ0My4yOTA1LS40NzA3LjkwODItLjYxNjIsMS4zNzYtLjMyNTIuNDY5Ny4yOS42MTUyLjkwNjIuMzI1MiwxLjM3Ni0uMTM5Ni4yMjY2LTMuNDYxOSw1LjU2NjQtNy4wNjk4LDguMDQyLS4xNzI5LjExOTEtLjM3MDEuMTc1OC0uNTY0OS4xNzU4WiIgY2xhc3M9ImNscy0xIi8+JiN4YTsgICAgICA8L2c+JiN4YTsgICAgPC9nPiYjeGE7ICAgIDxnIGlkPSJUb25uZV9PdXRsaW5lIj4mI3hhOyAgICAgIDxwYXRoIGQ9Ik00NS4yMzA1LDUzLjE2NWMtMy44MTc0LDAtNy45MjU4LTEuMzY5MS03LjkyNTgtNC4zNzV2LTEwLjE3OTdjMC0uMDU2NiwwLS4xNTcyLjAxODYtLjI4MzIuMjU5OC0yLjgxMTUsNC4yNjQ2LTQuMDkyOCw3LjkwNzItNC4wOTI4LDMuNjQ3NSwwLDcuNjU2MiwxLjI4MTIsNy45MTYsNC4wOTI4LjAxODYuMTI2LjAxODYuMjI2Ni4wMTg2LjI4MzJ2MTAuMTc5N2MwLDMuMDA1OS00LjExMzMsNC4zNzUtNy45MzQ2LDQuMzc1WiIgY2xhc3M9ImNscy0zIi8+JiN4YTsgICAgPC9nPiYjeGE7ICAgIDxnIGlkPSJUb25uZSI+JiN4YTsgICAgICA8cGF0aCBkPSJNNTEuODgsMzguNDljLS4xMy0xLjkzLTMuNDgtMi45OC02LjY1LTIuOTgtMy4xNiwwLTYuNTEsMS4wNS02LjY0LDIuOTgtLjAxLjA0LS4wMS4wOC0uMDEuMTJ2MTAuMThjMCwyLjAxLDMuNDMsMy4xLDYuNjUsMy4xLDMuMjMsMCw2LjY2LTEuMDksNi42Ni0zLjF2LTEwLjE4YzAtLjA0LDAtLjA4LS4wMS0uMTJaTTUwLjY0LDQ4Ljc5YzAsLjc1LTIuMTEsMS44NS01LjQxLDEuODVzLTUuNC0xLjEtNS40LTEuODV2LTEuNDNjLjk3LjU0LDIuNjYsMS4xMyw1LjQsMS4xMywyLjc3LDAsNC40NS0uNTgsNS40MS0xLjEydjEuNDJaTTUwLjY0LDQ1Ljg1Yy0uNDIuMzYtMS45LDEuMzktNS40MSwxLjM5LTMuNDgsMC00Ljk3LTEuMDEtNS40LTEuMzh2LTEuODljLjk3LjU0LDIuNjYsMS4xMyw1LjQsMS4xMywyLjc3LDAsNC40NS0uNTgsNS40MS0xLjEydjEuODdaTTUwLjY0LDQyLjQ2Yy0uNDIuMzYtMS45LDEuMzktNS40MSwxLjM5LTMuNDgsMC00Ljk3LTEuMDEtNS40LTEuMzh2LTJjMS4yOC44MiwzLjM4LDEuMjUsNS40LDEuMjVzNC4xMy0uNDMsNS40MS0xLjI1djEuOTlaTTQ1LjIzLDQwLjQ3Yy0zLjMsMC01LjQtMS4xLTUuNC0xLjg2LDAtLjc1LDIuMS0xLjg1LDUuNC0xLjg1czUuNDEsMS4xLDUuNDEsMS44NWMwLC43Ni0yLjExLDEuODYtNS40MSwxLjg2WiIgY2xhc3M9ImNscy0xIi8+JiN4YTsgICAgPC9nPiYjeGE7ICA8L2c+JiN4YTs8L3N2Zz4=;" vertex="1" parent="1">
          <mxGeometry x="210" y="290" width="62" height="62" as="geometry" />
        </mxCell>
        <mxCell id="d-CWmxk7Mh6oMbrWVQdX-16" value="" style="shape=image;verticalLabelPosition=bottom;verticalAlign=top;imageAspect=0;aspect=fixed;image=data:image/svg+xml,PHN2ZyB4bWxucz0iaHR0cDovL3d3dy53My5vcmcvMjAwMC9zdmciIHZpZXdCb3g9IjAgMCA2Mi4zNjIyIDYyLjM2MjIiIHZlcnNpb249IjEuMSI+JiN4YTsgIDxkZWZzPiYjeGE7ICAgIDxzdHlsZT4mI3hhOyAgICAgIC5jbHMtMSB7JiN4YTsgICAgICAgIGZpbGw6ICNmZmY7JiN4YTsgICAgICB9JiN4YTsmI3hhOyAgICAgIC5jbHMtMiB7JiN4YTsgICAgICAgIGZpbGw6ICNmZWZlZmU7JiN4YTsgICAgICB9JiN4YTsmI3hhOyAgICAgIC5jbHMtMyB7JiN4YTsgICAgICAgIGZpbGw6ICNkYTI5MWM7JiN4YTsgICAgICB9JiN4YTsgICAgPC9zdHlsZT4mI3hhOyAgPC9kZWZzPiYjeGE7ICAmI3hhOyAgPGc+JiN4YTsgICAgPGcgaWQ9IkhpbnRlcmdydW5kIj4mI3hhOyAgICAgIDxwYXRoIGQ9Ik0zMS4zMTQ5LDYyLjM2MzlDMTMuNDgyOCw2Mi4zNjM5LDAsNDcuNTkyMSwwLDMxLjMxNjQsMCwxMi42MzQ1LDE1LjU1NzEuMDAxNywzMS4wODA3LjAwMTcsNDkuNjgyMy4wMDE3LDYyLjM2MjIsMTUuMzQxNiw2Mi4zNjIyLDMwLjk0ODhjMCwxOS4wNDk1LTE1LjY1NzUsMzEuNDE1LTMxLjA0NzMsMzEuNDE1aDBaIiBjbGFzcz0iY2xzLTMiLz4mI3hhOyAgICA8L2c+JiN4YTsgICAgPGcgaWQ9IklDT04iPiYjeGE7ICAgICAgPGc+JiN4YTsgICAgICAgIDxjaXJjbGUgcj0iMTkuMzQ2NSIgY3k9IjMxLjE4MTEiIGN4PSIzMS4xODExIiBjbGFzcz0iY2xzLTMiLz4mI3hhOyAgICAgICAgPHBhdGggZD0iTTMxLjE4MTEsMTEuODM0NmMxMC42ODQ4LDAsMTkuMzQ2NSw4LjY2MTcsMTkuMzQ2NSwxOS4zNDY1cy04LjY2MTcsMTkuMzQ2NS0xOS4zNDY1LDE5LjM0NjUtMTkuMzQ2NS04LjY2MTctMTkuMzQ2NS0xOS4zNDY1UzIwLjQ5NjQsMTEuODM0NiwzMS4xODExLDExLjgzNDZNMzEuMTgxMSwxMC41ODQ2Yy0xMS4zNTY5LDAtMjAuNTk2NSw5LjIzOTUtMjAuNTk2NSwyMC41OTY1czkuMjM5NSwyMC41OTY1LDIwLjU5NjUsMjAuNTk2NSwyMC41OTY1LTkuMjM5NSwyMC41OTY1LTIwLjU5NjUtOS4yMzk1LTIwLjU5NjUtMjAuNTk2NS0yMC41OTY1aDBaIiBjbGFzcz0iY2xzLTIiLz4mI3hhOyAgICAgIDwvZz4mI3hhOyAgICAgIDxnPiYjeGE7ICAgICAgICA8cGF0aCBkPSJNNDQuMjI5NSwzMS42MTIzYy0uMTQzNi0uNzIwNy0uODY2Mi0xLjUwNDktMi4wMzQyLTIuNzI0MS0uMzMzLS4zNDgxLS42NTcyLS42ODYtLjkwOTItLjk3NzEtLjIxLS4yNDIyLS40Mzc1LTEuMjYzMi0uNTg3OS0xLjkzOS0uMzQ3Ny0xLjU2NTktLjcwOC0zLjE4NTUtMS44Nzc5LTMuNzUtMS4xNTE0LS41NTM3LTIuMTExMy0uNDc0Ni0yLjg4NjctLjQwOTctLjMzODIuMDI4NS0uNjMzLjA0NzItLjkyNS4wMjUxbC0xLjEwMzMtMy43MTEyYy0uMTU4Mi0uNTI4My0uNzA3LS44MzItMS4yNDQxLS42NzMzLS41MjkzLjE1NzItLjgzMDYuNzEzOS0uNjczMywxLjI0MzdsLjU4MzgsMS45NjQ2LTIuNDgwMy0yLjk5NzhjLS4zNTI1LS40MjUzLS45ODI5LS40ODQ0LTEuNDA4Mi0uMTMyOC0uNDI1My4zNTIxLS40ODQ5Ljk4MjQtLjEzMjgsMS40MDgybDEuNzY2NywyLjEzNTNjLS4zMzUuMTgzNy0uNjYxOS40NDQ2LS45ODkuNzYwNy0uNDQ0Mi0uMzYzNS0xLjA4MzUtLjc5OC0yLjAyMDktMS4zMzg0LTEuMDI2NC0uNTkyMy0xLjY4MzYtLjM0NjItMi4wNTQyLS4wMzYxLTEuMDI0OS44NTY5LS41ODY0LDIuNzU4My42NDcsNi4xOTQ4LjA3NDIuMjA2NS4xMzUzLjM3NjUuMTc1My40OTYxLjAyOC4wODM0LjA3MjQuMTU1NS4xMTgzLjIyNTgtMy4xNTIyLDYuOTAyMi03LjgzNiwxMi45NzA5LTcuODg0OSwxMy4wMzMtLjMzODkuNDM2NS0uMjYwMywxLjA2NDUuMTc1OCwxLjQwMzMuMTgyNi4xNDI2LjM5ODQuMjEwOS42MTMzLjIxMDkuMjk3OSwwLC41OTI4LS4xMzI4Ljc5LS4zODU3LjA3OS0uMTAxOS44MjI4LTEuMDY0NiwxLjg4OTUtMi42MDk3LjExMTQuNTI3Mi4xOTU5LDEuMTY2OC4xOTIxLDEuOTM0OS0uMDAyNC41NTI3LjQ0MjksMS4wMDIuOTk1MSwxLjAwNDloLjAwNDljLjU1MDMsMCwuOTk3MS0uNDQ0MywxLS45OTUxLjAxMDItMi4wODY5LS41MjAyLTMuNDg2NC0uNzYzNi00LjA4NzMuNTg0OC0uOTA2MSwxLjIwNjUtMS45MDUsMS44Mzg4LTIuOTg2NS4wMTEzLDAsLjAyMDEuMDAwNS4wMzE3LjAwMDUsMS4wNjA1LDAsMy4zMjI4LS4yNjk1LDQuMjMyOS0yLjQ1NDEuMjEyOS0uNTA5OC0uMDI4My0xLjA5NTItLjUzODEtMS4zMDc2LS41MTA3LS4yMTQ4LTEuMDk1Ny4wMjg4LTEuMzA3Ni41MzgxLS4yNDExLjU3NzktLjcxNDIuODgwOS0xLjE5ODQsMS4wNDQ2Ljc1ODQtMS40MDgzLDEuNDk4Mi0yLjg5NjEsMi4xNjAzLTQuNDI3NGwuMDc0Mi0uMjcyOWMuMDAyLS4wMTMyLjIwMTctMS4zNzMsMS40NjQ4LTIuOTIzMywxLjM1NTUtMS42NjI2LDEuNjAzLTEuNjYzNiwyLjkxOTQtLjg5MTEsMS4yOTY5Ljc2MDMsMi4zNjMzLjY3MDQsMy4yMTY4LjU5OTEuNjY1LS4wNTYyLDEuMTg5NS0uMDk5NiwxLjg0MjguMjEzOS4zMjAzLjIxNjguNjM0OCwxLjYyODQuODAyNywyLjM4NjcuMjYxNywxLjE3NTMuNDg3MywyLjE5MDQsMS4wMjgzLDIuODE0OS4yNzA1LjMxMjUuNjE4Mi42NzU4Ljk3NjYsMS4wNTAzLjUyNTQuNTQ4MywxLjQwNDMsMS40NjYzLDEuNTEyNywxLjY4NjUtLjAwMzkuMDU1Ny0uMDg0LjI0MzItLjI1MzkuMzc4OS0uMDQyLjAzMjItLjE1MzMuMTEwNC0uMjI0Ni4wOTc3LS4xNDM2LS4wMzcxLS41MTM3LS4zNTI1LS43NTg4LS41NjE1LS42Njg5LS41Njk4LTEuNTg0LTEuMzQ5Ni0yLjgzNS0xLjQ1MDItLjY5NjMtLjA1NTItMS4yOTQ5LS40MzY1LTEuOTI5Ny0uODQwMy0uOTc0Ni0uNjE5Ni0yLjQ0NTMtMS41NTc2LTQuMDE0Ni0uMTU3Mi0uNDExNi4zNjcyLS40NDc4Ljk5OTUtLjA4MDEsMS40MTE2LjM2ODIuNDEyNiwxLC40NDgyLDEuNDEyMS4wODA2LjM2MzMtLjMyNDcuNDgxNC0uMzY1MiwxLjYwOTQuMzUyNS43MzYzLjQ2ODgsMS42NTIzLDEuMDUxMywyLjg0MjgsMS4xNDcuNjA2NC4wNDc5LDEuMTYxMS41MjE1LDEuNjk4Mi45Nzg1LjUzMDMuNDUyMSwxLjA3OTEuOTE4OSwxLjc2NDYsMS4wMTc2LjczNjMuMTA3NCwxLjQ4MzQtLjE3NzcsMi4wNDc5LS43NzU0LjU1NjYtLjU4ODkuODIwMy0xLjM2NTIuNjg3NS0yLjAyNTRaTTI4LjAyNTIsMjMuMzQ5OWMtLjI5ODYuNDE4My0uNTQwNy44MjE0LS43MzQxLDEuMTk2OC0uMzE3NS0uOTc3Ni0uNDg3Ni0xLjYzNzUtLjU2MzUtMi4wNzA2LjY1MzEuMzkzMywxLjA1MTYuNjc3OCwxLjI5NzcuODczOFoiIGNsYXNzPSJjbHMtMSIvPiYjeGE7ICAgICAgICA8cGF0aCBkPSJNMzAuNjI5OSwzMi4zMDI3Yy0uNTY0OS41MzQyLTEuMjUzNCwyLjg3Ny0yLjA1MDMsNi45Njc4LS40NDE0LS4zMTY0LS44Njg3LS43MjI3LTEuMDI5My0xLjE2Ny0uMDcwOC0uMTk1My0uMTM2Ny0uNTA4OC4xMDY0LS45NzE3LjI1NzMtLjQ4OTMuMDY5OC0xLjA5MzgtLjQxODktMS4zNTA2LS40OTEyLS4yNTc4LTEuMDkzOC0uMDY5My0xLjM1MDYuNDE4OS0uNDQ4Ny44NTI1LS41MjI5LDEuNzQ4LS4yMTQ4LDIuNTkxOC42ODEyLDEuODY2MiwyLjk5MzIsMi44NTM1LDMuMjU0NCwyLjk1OWwxLjEzODcuNDYzOS4yMjE3LTEuMjA5Yy41NjQ1LTMuMDc0MiwxLjQwNjctNi43NDksMS43MTc4LTcuMjUyLjQwMTQtLjM3OTkuNDE4LTEuMDEyNy4wMzgxLTEuNDEzMS0uMzc4OS0uNDAxNC0xLjAxMzItLjQxOC0xLjQxMzEtLjAzODFaIiBjbGFzcz0iY2xzLTEiLz4mI3hhOyAgICAgIDwvZz4mI3hhOyAgICA8L2c+JiN4YTsgICAgPGcgaWQ9IlRvbm5lX091dGxpbmUiPiYjeGE7ICAgICAgPHBhdGggZD0iTTQ1LjIzMDUsNTMuMTY1Yy0zLjgxNzQsMC03LjkyNTgtMS4zNjkxLTcuOTI1OC00LjM3NXYtMTAuMTc5N2MwLS4wNTY2LDAtLjE1NzIuMDE4Ni0uMjgzMi4yNTk4LTIuODExNSw0LjI2NDYtNC4wOTI4LDcuOTA3Mi00LjA5MjgsMy42NDc1LDAsNy42NTYyLDEuMjgxMiw3LjkxNiw0LjA5MjguMDE4Ni4xMjYuMDE4Ni4yMjY2LjAxODYuMjgzMnYxMC4xNzk3YzAsMy4wMDU5LTQuMTEzMyw0LjM3NS03LjkzNDYsNC4zNzVaIiBjbGFzcz0iY2xzLTMiLz4mI3hhOyAgICA8L2c+JiN4YTsgICAgPGcgaWQ9IlRvbm5lIj4mI3hhOyAgICAgIDxwYXRoIGQ9Ik01MS44OCwzOC40OWMtLjEzLTEuOTMtMy40OC0yLjk4LTYuNjUtMi45OC0zLjE2LDAtNi41MSwxLjA1LTYuNjQsMi45OC0uMDEuMDQtLjAxLjA4LS4wMS4xMnYxMC4xOGMwLDIuMDEsMy40MywzLjEsNi42NSwzLjEsMy4yMywwLDYuNjYtMS4wOSw2LjY2LTMuMXYtMTAuMThjMC0uMDQsMC0uMDgtLjAxLS4xMlpNNTAuNjQsNDguNzljMCwuNzUtMi4xMSwxLjg1LTUuNDEsMS44NXMtNS40LTEuMS01LjQtMS44NXYtMS40M2MuOTcuNTQsMi42NiwxLjEzLDUuNCwxLjEzLDIuNzcsMCw0LjQ1LS41OCw1LjQxLTEuMTJ2MS40MlpNNTAuNjQsNDUuODVjLS40Mi4zNi0xLjksMS4zOS01LjQxLDEuMzktMy40OCwwLTQuOTctMS4wMS01LjQtMS4zOHYtMS44OWMuOTcuNTQsMi42NiwxLjEzLDUuNCwxLjEzLDIuNzcsMCw0LjQ1LS41OCw1LjQxLTEuMTJ2MS44N1pNNTAuNjQsNDIuNDZjLS40Mi4zNi0xLjksMS4zOS01LjQxLDEuMzktMy40OCwwLTQuOTctMS4wMS01LjQtMS4zOHYtMmMxLjI4LjgyLDMuMzgsMS4yNSw1LjQsMS4yNXM0LjEzLS40Myw1LjQxLTEuMjV2MS45OVpNNDUuMjMsNDAuNDdjLTMuMywwLTUuNC0xLjEtNS40LTEuODYsMC0uNzUsMi4xLTEuODUsNS40LTEuODVzNS40MSwxLjEsNS40MSwxLjg1YzAsLjc2LTIuMTEsMS44Ni01LjQxLDEuODZaIiBjbGFzcz0iY2xzLTEiLz4mI3hhOyAgICA8L2c+JiN4YTsgIDwvZz4mI3hhOzwvc3ZnPg==;" vertex="1" parent="1">
          <mxGeometry x="290" y="290" width="62" height="62" as="geometry" />
        </mxCell>
        <mxCell id="d-CWmxk7Mh6oMbrWVQdX-17" value="" style="shape=image;verticalLabelPosition=bottom;verticalAlign=top;imageAspect=0;aspect=fixed;image=data:image/svg+xml,PHN2ZyB4bWxucz0iaHR0cDovL3d3dy53My5vcmcvMjAwMC9zdmciIHZpZXdCb3g9IjAgMCA2Mi4zNjIyIDYyLjM2MjIiIHZlcnNpb249IjEuMSI+JiN4YTsgIDxkZWZzPiYjeGE7ICAgIDxzdHlsZT4mI3hhOyAgICAgIC5jbHMtMSB7JiN4YTsgICAgICAgIGZpbGw6ICNmZmY7JiN4YTsgICAgICB9JiN4YTsmI3hhOyAgICAgIC5jbHMtMiB7JiN4YTsgICAgICAgIGZpbGw6ICNkYTI5MWM7JiN4YTsgICAgICB9JiN4YTsgICAgPC9zdHlsZT4mI3hhOyAgPC9kZWZzPiYjeGE7ICAmI3hhOyAgPGc+JiN4YTsgICAgPGcgaWQ9IkViZW5lXzIiPiYjeGE7ICAgICAgPHBhdGggZD0iTTMxLjMxNDksNjIuMzYyMkMxMy40ODI4LDYyLjM2MjIsMCw0Ny41OTA1LDAsMzEuMzE0OCwwLDEyLjYzMjksMTUuNTU3MSwwLDMxLjA4MDcsMGMxOC42MDE2LDAsMzEuMjgxNSwxNS4zMzk5LDMxLjI4MTUsMzAuOTQ3MiwwLDE5LjA0OTUtMTUuNjU3NSwzMS40MTUtMzEuMDQ3MywzMS40MTVoMFoiIGNsYXNzPSJjbHMtMiIvPiYjeGE7ICAgICAgPGc+JiN4YTsgICAgICAgIDxwYXRoIGQ9Ik0xOS4xODE2LDM5LjE0MzZjLS41NTIyLDAtMS0uNDQ3My0xLTF2LTEzLjY1NTNjMC0uNTUyMi40NDc4LTEsMS0xczEsLjQ0NzgsMSwxdjEzLjY1NTNjMCwuNTUyNy0uNDQ3OCwxLTEsMVoiIGNsYXNzPSJjbHMtMSIvPiYjeGE7ICAgICAgICA8cGF0aCBkPSJNMjMuMTgxNiwzOS4xNDM2Yy0uNTUyMiwwLTEtLjQ0NzMtMS0xdi0xNS4xOTQzYzAtLjU1MjIuNDQ3OC0xLDEtMXMxLC40NDc4LDEsMXYxNS4xOTQzYzAsLjU1MjctLjQ0NzgsMS0xLDFaIiBjbGFzcz0iY2xzLTEiLz4mI3hhOyAgICAgICAgPHBhdGggZD0iTTI3LjE4MTYsMzkuMTQzNmMtLjU1MjIsMC0xLS40NDczLTEtMXYtMTYuNzU5OGMwLS41NTIyLjQ0NzgtMSwxLTFzMSwuNDQ3OCwxLDF2MTYuNzU5OGMwLC41NTI3LS40NDc4LDEtMSwxWiIgY2xhc3M9ImNscy0xIi8+JiN4YTsgICAgICAgIDxwYXRoIGQ9Ik0zMS4xODE2LDM5LjE0MzZjLS41NTIyLDAtMS0uNDQ3My0xLTF2LTE1LjE4OTVjMC0uNTUyMi40NDc4LTEsMS0xczEsLjQ0NzgsMSwxdjE1LjE4OTVjMCwuNTUyNy0uNDQ3OCwxLTEsMVoiIGNsYXNzPSJjbHMtMSIvPiYjeGE7ICAgICAgICA8cGF0aCBkPSJNMzUuMTgxNiwzOS4xNDM2Yy0uNTUyNywwLTEtLjQ0NzMtMS0xdi0xMy42NTUzYzAtLjU1MjIuNDQ3My0xLDEtMXMxLC40NDc4LDEsMXYxMy42NTUzYzAsLjU1MjctLjQ0NzMsMS0xLDFaIiBjbGFzcz0iY2xzLTEiLz4mI3hhOyAgICAgICAgPHBhdGggZD0iTTM5LjE4MTYsMzkuMTQzNmMtLjU1MjcsMC0xLS40NDczLTEtMXYtMTIuMjE2M2MwLS41NTIyLjQ0NzMtMSwxLTFzMSwuNDQ3OCwxLDF2MTIuMjE2M2MwLC41NTI3LS40NDczLDEtMSwxWiIgY2xhc3M9ImNscy0xIi8+JiN4YTsgICAgICAgIDxwYXRoIGQ9Ik00My4xODE2LDM5LjE0MzZjLS41NTI3LDAtMS0uNDQ3My0xLTF2LTEzLjY1NTNjMC0uNTUyMi40NDczLTEsMS0xczEsLjQ0NzgsMSwxdjEzLjY1NTNjMCwuNTUyNy0uNDQ3MywxLTEsMVoiIGNsYXNzPSJjbHMtMSIvPiYjeGE7ICAgICAgICA8cGF0aCBkPSJNNDcuMTgxNiwzOS4xNDM2Yy0uNTUyNywwLTEtLjQ0NzMtMS0xdi0xNS4xODk1YzAtLjU1MjIuNDQ3My0xLDEtMXMxLC40NDc4LDEsMXYxNS4xODk1YzAsLjU1MjctLjQ0NzMsMS0xLDFaIiBjbGFzcz0iY2xzLTEiLz4mI3hhOyAgICAgICAgPHBhdGggZD0iTTE1LjE4MDcsMzkuMTQzNmMtLjU1MjIsMC0xLS40NDczLTEtMXYtMTIuMjIwMmMwLS41NTIyLjQ0NzgtMSwxLTFzMSwuNDQ3OCwxLDF2MTIuMjIwMmMwLC41NTI3LS40NDc4LDEtMSwxWiIgY2xhc3M9ImNscy0xIi8+JiN4YTsgICAgICA8L2c+JiN4YTsgICAgPC9nPiYjeGE7ICA8L2c+JiN4YTs8L3N2Zz4=;" vertex="1" parent="1">
          <mxGeometry x="50" y="370" width="62" height="62" as="geometry" />
        </mxCell>
        <mxCell id="d-CWmxk7Mh6oMbrWVQdX-18" value="" style="shape=image;verticalLabelPosition=bottom;verticalAlign=top;imageAspect=0;aspect=fixed;image=data:image/svg+xml,PHN2ZyB4bWxucz0iaHR0cDovL3d3dy53My5vcmcvMjAwMC9zdmciIHZpZXdCb3g9IjAgMCA2Mi4zNjIyIDYyLjM2MjIiIHZlcnNpb249IjEuMSI+JiN4YTsgIDxkZWZzPiYjeGE7ICAgIDxzdHlsZT4mI3hhOyAgICAgIC5jbHMtMSB7JiN4YTsgICAgICAgIGZpbGw6ICNmZmY7JiN4YTsgICAgICB9JiN4YTsmI3hhOyAgICAgIC5jbHMtMiB7JiN4YTsgICAgICAgIGZpbGw6ICNmZWZlZmU7JiN4YTsgICAgICB9JiN4YTsmI3hhOyAgICAgIC5jbHMtMyB7JiN4YTsgICAgICAgIGZpbGw6ICNkYTI5MWM7JiN4YTsgICAgICB9JiN4YTsgICAgPC9zdHlsZT4mI3hhOyAgPC9kZWZzPiYjeGE7ICAmI3hhOyAgPGc+JiN4YTsgICAgPGcgaWQ9IkhpbnRlcmdydW5kIj4mI3hhOyAgICAgIDxwYXRoIGQ9Ik0zMS4zMTQ5LDYyLjM2MzlDMTMuNDgyOCw2Mi4zNjM5LDAsNDcuNTkyMSwwLDMxLjMxNjQsMCwxMi42MzQ1LDE1LjU1NzEuMDAxNywzMS4wODA3LjAwMTcsNDkuNjgyMy4wMDE3LDYyLjM2MjIsMTUuMzQxNiw2Mi4zNjIyLDMwLjk0ODhjMCwxOS4wNDk1LTE1LjY1NzUsMzEuNDE1LTMxLjA0NzMsMzEuNDE1aDBaIiBjbGFzcz0iY2xzLTMiLz4mI3hhOyAgICA8L2c+JiN4YTsgICAgPGcgaWQ9IklDT04iPiYjeGE7ICAgICAgPGc+JiN4YTsgICAgICAgIDxjaXJjbGUgcj0iMTkuMzQ2NSIgY3k9IjMxLjE4MTEiIGN4PSIzMS4xODExIiBjbGFzcz0iY2xzLTMiLz4mI3hhOyAgICAgICAgPHBhdGggZD0iTTMxLjE4MTEsMTEuODM0NmMxMC42ODQ4LDAsMTkuMzQ2NSw4LjY2MTcsMTkuMzQ2NSwxOS4zNDY1cy04LjY2MTcsMTkuMzQ2NS0xOS4zNDY1LDE5LjM0NjUtMTkuMzQ2NS04LjY2MTctMTkuMzQ2NS0xOS4zNDY1UzIwLjQ5NjQsMTEuODM0NiwzMS4xODExLDExLjgzNDZNMzEuMTgxMSwxMC41ODQ2Yy0xMS4zNTY5LDAtMjAuNTk2NSw5LjIzOTUtMjAuNTk2NSwyMC41OTY1czkuMjM5NSwyMC41OTY1LDIwLjU5NjUsMjAuNTk2NSwyMC41OTY1LTkuMjM5NSwyMC41OTY1LTIwLjU5NjUtOS4yMzk1LTIwLjU5NjUtMjAuNTk2NS0yMC41OTY1aDBaIiBjbGFzcz0iY2xzLTIiLz4mI3hhOyAgICAgIDwvZz4mI3hhOyAgICAgIDxwYXRoIGQ9Ik0yOS4zOTIyLDQzLjI3NzRjLS4zNjg3LDAtLjY3NDMtLjIxMzktLjg1NC0uNjEzMy0uOTg5My0yLjIwMDItMi4wMTIyLTQuNDc1Ni0yLjk2ODMtNi43MzU0LS4xNDUtLjM0MjgtLjEzNjctLjkzNTUuMDkyMy0xLjIxNDguMjEzOS0uMjYwNy43ODY2LS4zNjMzLDEuMTY2LS4yOTIsMS4yOTc5LjI0MTIsMi41NzQ3LS4xNjIxLDMuNTA3OC0xLjEwNzRzMS4zMzQtMi4yOTA1LDEuMDcyMy0zLjU5NzJsLS4wMDc4LS4wMzk2Yy0uMDU1Ny0uMjc0NC0uMTI1LS42MTU3LjAxNDItLjgzMi4xNzg3LS4yNzczLjUzMTItLjUxODYuODM4NC0uNTc0Mi4yMzI0LS4wNDM5LjQ2NDguMDA3My42NDU1LjE0MjYuMTkwNC4xNDMxLjMxMDUuMzY0My4zMzc5LjYyMzUuMDcyMy42ODI2LjEwODQsMS4zNjQ3LjE0NTUsMi4wODY0LjAxMjcuMjU1NC4wMjY0LjUxNDYuMDQyLjc3OTMuMDAxLjAyNDkuMDE5NS4wNDY0LjA0Mi4wNTAzLDEuMzAyNy4yMTY4LDIuNDMwNy0uMDkzMywzLjM2MTMtLjkxOTQuMTA2NC0uMDk0Mi4yMS0uMjA3LjMxNjQtLjM0NDIuMzIwMy0uNDEyMS43MDktLjU1NjYsMS4xNTA0LS40MzguNTAzOS4xMzk2LjkwOTIuNzIxNy45NzA3LDEuMTc3Ny4yMjI3LDEuNjYxMS0uMTg5NSwzLjE4NjUtMS4yOTk4LDQuODAwOC0uMzkwNi41NzEzLS45MzA3LjczNDQtMS40MzU1LjQzOTUtLjM0NTctLjIwMTItLjY2NS0uNjE5MS0uMjI3NS0xLjQ2ODguMjMyNC0uNDUwMi40NDI0LS45MjQ4LjY0NTUtMS4zODI4LjA5MTgtLjIwNTEuMTgyNi0uNDExMS4yNzY0LS42MTUyLDAtLjAwMSwwLS4wMDIuMDAxLS4wMDI5LS4wMDM5LjAwMi0uMDA4OC4wMDM5LS4wMTI3LjAwNTktMS4zMTI1LjcxNDgtMi43ODkxLjkxNDEtNC41MDU5LjYxNDMtLjA4NzktLjAwNjgtLjI0OS4wNDc5LS4yOTc5LjExMjMtMS4xMDQsMS40NjE5LTIuNTM3MSwyLjI4MDMtNC4zODA5LDIuNTAyLS4wMjM0LjAwMjktLjAzNTIuMDE3Ni0uMDQwNS4wMjU0LS4wMDQ5LjAwNzgtLjAxMjIuMDI0NC0uMDA0NC4wNDU5bC4wMzE3LjA4NjljLjA2NzkuMTg4NS4xMzA0LjM2MDQuMjA0MS41MjczLjM4ODcuODc3OS43NzkzLDEuNzU1OSwxLjE2OTksMi42MzI4bC44MzExLDEuODY3MmMuMDYyNS4xMzk2LjEyNy4yODMyLjE1NTguNDM5NS4xMDUuNTY0NS0uMTA3OS45NzE3LS41OTk2LDEuMTQ3NS0uMTMyOC4wNDY5LS4yNjE3LjA3MDMtLjM4MzMuMDcwM1pNMTguNjUyNCwzNC40MTEyYy0xLjA5NzcsMC0yLjI1OTMtLjQwNjItMy40NTktMS4yMTk3LS40ODU4LS4zMzAxLS42MDYtLjgxOTMtLjMyMDMtMS4zMTA1LjI3NTQtLjQ3MzEuNzYwNy0uNjEwNCwxLjI5NzktLjM2NTIuMTg2NS4wODUuMzYxOC4xOTI5LjUzMTIuMjk2OS4xMTI4LjA2OTguMjI1Ni4xMzkyLjM0MTguMjAyMSwxLjM0NjcuNzI0NiwyLjQ0OTcuNTg5OCwzLjU3NTctLjQzOSwxLjM5NTUtMS4yNzM0LDIuMjg0Mi0yLjg5NywzLjIyMDctNC43MzI5LjEwOTktLjIxNTMuMjE0NC0uNDMyNi4zMTkzLS42NTA0LjQwMzgtLjgzODQuODIxOC0xLjcwNTYsMS41MjItMi40MTQ2LDEuMTg5LTEuMjA1MSwyLjk5MTItMS44ODA0LDQuODAyMi0xLjgyNjIsMS43NjEyLjA1OTYsMy4zNTAxLjgxMDUsNC40NzMxLDIuMTE0My40NDYzLjUxODEsMS4wNzcxLjkxMDIsMS42ODQ2LDEuMjY2Ni41LjI5NDksMS4zNzMuMDQ1NCwxLjc5MS0uMzY1Ny40NzI3LS40NjM5LDEuNTc4MS0xLjU1MDgsMi4wMTg2LTIuNjM5Ni4xMTQzLS4yNTM0LjIxMzktLjQ4NjMuMzA4Ni0uNzA3LjIwNy0uNDgxOS4zODU3LS44OTc5LjYwOTQtMS4yOTc5LjMxNTQtLjU2NTQuODM4OS0uODAwMywxLjMzMy0uNjAwMS4yMjU2LjEwNC4zOTE2LjI5MzkuNDcxNy41MzY2LjA5NDcuMjgyMi4wNjU0LjYwOTQtLjA3NzEuODc1LS4xMDI1LjE1MTktLjMyMDMuNTkwMy0uMzkzNi43NjUxLS4xMzQ4LjMyMTMtLjEyOTkuNTIyLjI3MTUuNzI4NS44NDQ3LjQzNTEsMS43MTQ4Ljk1MDcsMi41ODU5LDEuNTMyNy43MTk3LjQ4MDUsMS4wNzUyLDEuMzI1Mi45MDUzLDIuMTUxNC0uMTU3Mi43Njk1LS42Mzk2LDEuMjgxMi0xLjM5NTUsMS40ODFsLS40ODU0LjEyOTRjLS41NzQyLjE1NDMtMS4xNjguMzE0LTEuNzYwNy40MzUxLS4zNjEzLjA3MzctLjU3NzEuMjQzNy0uNzQ0MS41ODY0LS4xNTYyLjMxOTMtLjM2NjIuNjUzOC0uNjQwNiwxLjAyMzktLjM3MjEuNDk2Ni0uODY5MS41OTQyLTEuMzcyMS4yNjEyLS40NTYxLS4zMDIyLS41NjI1LS43ODQ3LS4yODkxLTEuMzIyOC4yODQyLS41NTgxLjYyMjEtMS4yMDI2LDEuMDQtMS43OTA1LjE0MjYtLjIwMDcuNDIxOS0uMzU2OS44NTQ1LS40NzcxLjcxODgtLjE5OTcsMS40NTYxLS4zODA5LDIuMTY4OS0uNTU2MmwuMTM5Ni0uMDM0N2MuNDUyMS0uMDg4OS40ODYzLS4xODk5LjQ4NjMtLjE5MDkuMDA0OS0uMDI3OC4wMTU2LS4xMDM1LS40MDA0LS4zMjE4bC0uMTcyOS0uMTA1NWMtLjU2ODQtLjM0NzctMS4xNTcyLS43MDY1LTEuNzU1OS0xLjAxNTEtLjQzMjYtLjIyNTEtLjc3MjUuMDU5MS0xLjE2ODkuNDUxMi0uMTYwMi4xNTkyLS4yOTQ5LjM0MzMtLjQzNjUuNTM4Ni0uMDU1Ny4wNzc2LS4xMTIzLjE1NDgtLjE2OTkuMjMxLS44NDY3LDEuMTA3NC0xLjg0MzgsMS43MDUxLTIuOTYxOSwxLjc3NTktMS4xNjAyLjA3MTgtMi40NDczLS40NzYxLTMuNDI4Ny0xLjQ2OTItLjEyMjEtLjEyMzUtLjI0MTItLjI1LS4zNTk0LS4zNzY1LS4xNTIzLS4xNjExLS4zMDM3LS4zMjI4LS40NjE5LS40Nzc1LTEuMDE4Ni0xLjAwMzQtMi40ODg4LTEuNDEwMi0zLjkyOTItMS4wODU5LTEuNDI3Ny4zMjAzLTIuNTcwOCwxLjMwMzctMy4wNTgxLDIuNjMwOS0uMzc3LDEuMDI2NC0uMjY4MSwyLjA4NTQuMzIyOCwzLjE0NzUuMzgyOC42ODcuMzA4NiwxLjI0NjYtLjIwMzYsMS41MzU2LS4yNTIuMTQxNi0uNTE3MS4xNzcyLS43NjMyLjEwMzUtLjMwNTctLjA5MDgtLjU3MjMtLjM0MTMtLjc3MS0uNzI0MS0uMTA0NS0uMjAwNy0uMTk5Mi0uNDA2Mi0uMjg1Mi0uNTkzMy0uMDA5OC0uMDIxNS0uMDIyNS0uMDIzNC0uMDM4Ni0uMDI0OS0uMDA5MywwLS4wMjIuMDAyOS0uMDMyMi4wMTU2LS4xOTE0LjIzODMtLjM3OTkuNDc5NS0uNTY4NC43MjA3LS41Mjc4LjY3NjgtMS4wNzM3LDEuMzc2LTEuNjg1MSwxLjk5NjYtMS4wNTE4LDEuMDY2NC0yLjIyNzUsMS42MDE2LTMuNDg3MywxLjYwMTZaIiBjbGFzcz0iY2xzLTEiLz4mI3hhOyAgICA8L2c+JiN4YTsgICAgPGcgaWQ9IlRvbm5lX091dGxpbmUiPiYjeGE7ICAgICAgPHBhdGggZD0iTTQ1LjIzMDUsNTMuMTY1Yy0zLjgxNzQsMC03LjkyNTgtMS4zNjkxLTcuOTI1OC00LjM3NXYtMTAuMTc5N2MwLS4wNTY2LDAtLjE1NzIuMDE4Ni0uMjgzMi4yNTk4LTIuODExNSw0LjI2NDYtNC4wOTI4LDcuOTA3Mi00LjA5MjgsMy42NDc1LDAsNy42NTYyLDEuMjgxMiw3LjkxNiw0LjA5MjguMDE4Ni4xMjYuMDE4Ni4yMjY2LjAxODYuMjgzMnYxMC4xNzk3YzAsMy4wMDU5LTQuMTEzMyw0LjM3NS03LjkzNDYsNC4zNzVaIiBjbGFzcz0iY2xzLTMiLz4mI3hhOyAgICA8L2c+JiN4YTsgICAgPGcgaWQ9IlRvbm5lIj4mI3hhOyAgICAgIDxwYXRoIGQ9Ik01MS44OCwzOC40OWMtLjEzLTEuOTMtMy40OC0yLjk4LTYuNjUtMi45OC0zLjE2LDAtNi41MSwxLjA1LTYuNjQsMi45OC0uMDEuMDQtLjAxLjA4LS4wMS4xMnYxMC4xOGMwLDIuMDEsMy40MywzLjEsNi42NSwzLjEsMy4yMywwLDYuNjYtMS4wOSw2LjY2LTMuMXYtMTAuMThjMC0uMDQsMC0uMDgtLjAxLS4xMlpNNTAuNjQsNDguNzljMCwuNzUtMi4xMSwxLjg1LTUuNDEsMS44NXMtNS40LTEuMS01LjQtMS44NXYtMS40M2MuOTcuNTQsMi42NiwxLjEzLDUuNCwxLjEzLDIuNzcsMCw0LjQ1LS41OCw1LjQxLTEuMTJ2MS40MlpNNTAuNjQsNDUuODVjLS40Mi4zNi0xLjksMS4zOS01LjQxLDEuMzktMy40OCwwLTQuOTctMS4wMS01LjQtMS4zOHYtMS44OWMuOTcuNTQsMi42NiwxLjEzLDUuNCwxLjEzLDIuNzcsMCw0LjQ1LS41OCw1LjQxLTEuMTJ2MS44N1pNNTAuNjQsNDIuNDZjLS40Mi4zNi0xLjksMS4zOS01LjQxLDEuMzktMy40OCwwLTQuOTctMS4wMS01LjQtMS4zOHYtMmMxLjI4LjgyLDMuMzgsMS4yNSw1LjQsMS4yNXM0LjEzLS40Myw1LjQxLTEuMjV2MS45OVpNNDUuMjMsNDAuNDdjLTMuMywwLTUuNC0xLjEtNS40LTEuODYsMC0uNzUsMi4xLTEuODUsNS40LTEuODVzNS40MSwxLjEsNS40MSwxLjg1YzAsLjc2LTIuMTEsMS44Ni01LjQxLDEuODZaIiBjbGFzcz0iY2xzLTEiLz4mI3hhOyAgICA8L2c+JiN4YTsgIDwvZz4mI3hhOzwvc3ZnPg==;" vertex="1" parent="1">
          <mxGeometry x="130" y="370" width="62" height="62" as="geometry" />
        </mxCell>
        <mxCell id="d-CWmxk7Mh6oMbrWVQdX-19" value="" style="shape=image;verticalLabelPosition=bottom;verticalAlign=top;imageAspect=0;aspect=fixed;image=data:image/svg+xml,PHN2ZyB4bWxucz0iaHR0cDovL3d3dy53My5vcmcvMjAwMC9zdmciIHZpZXdCb3g9IjAgMCA2Mi4zNjIyIDYyLjM2MjIiIHZlcnNpb249IjEuMSI+JiN4YTsgIDxkZWZzPiYjeGE7ICAgIDxzdHlsZT4mI3hhOyAgICAgIC5jbHMtMSB7JiN4YTsgICAgICAgIGZpbGw6ICNmZmY7JiN4YTsgICAgICB9JiN4YTsmI3hhOyAgICAgIC5jbHMtMiB7JiN4YTsgICAgICAgIGZpbGw6ICNmZWZlZmU7JiN4YTsgICAgICB9JiN4YTsmI3hhOyAgICAgIC5jbHMtMyB7JiN4YTsgICAgICAgIGZpbGw6ICNkYTI5MWM7JiN4YTsgICAgICB9JiN4YTsgICAgPC9zdHlsZT4mI3hhOyAgPC9kZWZzPiYjeGE7ICAmI3hhOyAgPGc+JiN4YTsgICAgPGcgaWQ9IkhpbnRlcmdydW5kIj4mI3hhOyAgICAgIDxwYXRoIGQ9Ik0zMS4zMTQ5LDYyLjM2MzlDMTMuNDgyOCw2Mi4zNjM5LDAsNDcuNTkyMSwwLDMxLjMxNjQsMCwxMi42MzQ1LDE1LjU1NzEuMDAxNywzMS4wODA3LjAwMTcsNDkuNjgyMy4wMDE3LDYyLjM2MjIsMTUuMzQxNiw2Mi4zNjIyLDMwLjk0ODhjMCwxOS4wNDk1LTE1LjY1NzUsMzEuNDE1LTMxLjA0NzMsMzEuNDE1aDBaIiBjbGFzcz0iY2xzLTMiLz4mI3hhOyAgICA8L2c+JiN4YTsgICAgPGcgaWQ9IklDT04iPiYjeGE7ICAgICAgPGc+JiN4YTsgICAgICAgIDxjaXJjbGUgcj0iMTkuMzQ2NSIgY3k9IjMxLjE4MTEiIGN4PSIzMS4xODExIiBjbGFzcz0iY2xzLTMiLz4mI3hhOyAgICAgICAgPHBhdGggZD0iTTMxLjE4MTEsMTEuODM0NmMxMC42ODQ4LDAsMTkuMzQ2NSw4LjY2MTcsMTkuMzQ2NSwxOS4zNDY1cy04LjY2MTcsMTkuMzQ2NS0xOS4zNDY1LDE5LjM0NjUtMTkuMzQ2NS04LjY2MTctMTkuMzQ2NS0xOS4zNDY1UzIwLjQ5NjQsMTEuODM0NiwzMS4xODExLDExLjgzNDZNMzEuMTgxMSwxMC41ODQ2Yy0xMS4zNTY5LDAtMjAuNTk2NSw5LjIzOTUtMjAuNTk2NSwyMC41OTY1czkuMjM5NSwyMC41OTY1LDIwLjU5NjUsMjAuNTk2NSwyMC41OTY1LTkuMjM5NSwyMC41OTY1LTIwLjU5NjUtOS4yMzk1LTIwLjU5NjUtMjAuNTk2NS0yMC41OTY1aDBaIiBjbGFzcz0iY2xzLTIiLz4mI3hhOyAgICAgIDwvZz4mI3hhOyAgICAgIDxnPiYjeGE7ICAgICAgICA8cGF0aCBkPSJNMjguMTQ3Miw0Mi40Mjg2aC0uMDExN2MtMS4wNTgxLS4wMDc4LTEuOTgzOS0uNDcyNy0yLjUzOTYtMS4yNzU0LS41NjM1LS44MTM1LS42ODIxLTEuODkxNi0uMzE3NC0yLjg4MTguMjI5NS0uNjIyMS42MTA0LTEuMTcxOSwxLjE2MTEtMS42NzQ4LS4xMjUtLjEyNzktLjI0NDEtLjI0NTEtLjM2NDMtLjMxNDUtLjYxMjgtLjM1MTYtMS4zNDk2LS40MTk5LTIuMTkxNC0uMTk4Mi0uNzAzMS4xODM2LTEuMzY2Ny40ODA1LTIuMTYxMS44NDk2LTEuMDAyOS40NjY4LTEuMjc2OS45MzE2LTEuMTI2LDEuOTE0MS4wMzEyLjIwOC4xMTgyLjM2MDQuMjgxMi40OTMyLjAzMjcuMDI3My4xNzgyLjA3MTMuNDIzOC4wNC4zMjcxLS4wNDMuNTg2NC0uMTgzNi42NDg0LS4yNjg2LjA5MDgtLjEyNS4xNTk3LS4yOTY5LjIzMjktLjQ3ODUuMjIzNi0uNTQ3OS42NTA0LS43OTMsMS4xMzY3LS43MDcuNTE1MS4wOTE4Ljg1NC41NjM1Ljc2OTUsMS4wNzUyLS4wNTc2LjM0NjctLjEzNzIuNzEtLjMzMDEsMS4wMjI1LS4zOTI2LjYzMzgtMS4wMjgzLDEuMDYzNS0xLjg5MTEsMS4yNzgzLTEuMjg0Ny4zMTg0LTIuNDY4My0uMjQ4LTMuMDEwNy0xLjQ0OTItLjI1MTUtLjU1MzctLjMyNTctMS4xNzU4LS4yMzI5LTEuOTU1MS4wNzk2LS42NzE5LjM0OTEtMS4yNjA3LjgwMDgtMS43NDguNTU4MS0uNjAzNSwxLjI1MzktLjkxMTEsMS45MjY4LTEuMjA5bC4zMDYyLS4xMzY3Yy4zODcyLS4xNzU4Ljc3NTktLjM0ODYsMS4xNjQxLS41MjE1LjU5NjItLjI2NDYsMS4xOTI0LS41MzAzLDEuNzgzMi0uODA2Ni4zMDQ3LS4xNDE2LjUzMDgtLjM5MzYuNjkxNC0uNzY4Ni4wNzMyLS4xNzE5LjIwMDItLjU5MDgtLjIwNDYtLjc4NDItLjE3MDQtLjA4MTEtLjM2NTItLjE0ODktLjU5NjctLjIwNzUtLjkyNTMtLjIzMzQtMi4wMDI5LS41NTI3LTIuOTc3NS0xLjE1MzgtMS40NTQxLS44OTYtMi4zNDQyLTEuOTk0Ni0yLjcyMTItMy4zNTc5LS4zOTMxLTEuNDE5NC0uMzA0Mi0yLjcyNzEuMjY0Ni0zLjg4NTcuOTM2NS0xLjkxMTYsMi43MjEyLTMuMTMxOCw0Ljk5MDgtMy4zNTc5Ljk4MDUtLjA5NzcsMi40Mjk0LjA3OCwzLjM2MDUuMzY2MSwxLjE4Ni4zNjcyLDIuMTk0MiwxLjAzOTQsMy4wNDA5LDEuODkxNC40NTQxLjQ1NzUsMS40MTgsMS41OTA4LDIuMDU1NywyLjM0MDhsLjMyOTEuMzg2MmMuMjg3MS4zMzUuMzE1NC43ODE3LjA3NTIsMS4xNjY1LS4yNDU2LjM5MzEtLjY3ODIuNTUxMy0xLjEwMDYuNDAxOS0uMTkxNC0uMDY3NC0uMzczNS0uMTk5Ny0uNTU3Ni0uNDA0My0uMTQ1NS0uMTYxMS0uNDE2NS0uNDc3NS0uNzE2OC0uODI4MS0uNDU5NS0uNTM2MS0uOTg3OC0xLjE1NDgtMS4yMjAyLTEuMzkzMS0uNzMtLjc0ODUtMS4zODMyLTEuMzYyMi0yLjEwNTQtMS42MzIyLTEuMjc5OC0uNDc5NS0zLjA1NDQtLjYyMTEtNC4yNDI5LS4xNjA3LTEuNDAxNC41NDMtMi4yNTk4LDEuNzY2My0yLjM5MTIsMy4xNzU5LS4xMjAxLDEuMjg2Ni4zMTY0LDIuMzIwOCwxLjMzNSwzLjE2MTYuNzc4My42NDI2LDEuNzM1OCwxLjA3MzIsMi45MjgyLDEuMzE2OS42NTMzLjEzMjgsMS4xNTE5LjM0ODYsMS41Njg0LjY3OTIuOTgwNS43Nzg4LDEuMjI5LDIuMDI4OC42MzQzLDMuMTg0MS0uMTI3NC4yNDYxLS4yODM3LjQ3MTctLjQ0MjQuNjg3NS41NTUyLjIyMzYsMS4wMjI5LjU2MTUsMS4zOTg0LDEuMDA4OC4xODEyLS4yNS4zMDM3LS41MjY0LjM3NzQtLjg0NDcuMTM1My0uNTg3OS4xMTU3LTEuMjA0MS0uMDYxLTEuODgyOC0uMDc1Mi0uMjktLjAzNzEtLjU4MjUuMTA4NC0uODIyOC4xMzgyLS4yMjguMzU5OS0uMzg3Mi42MjQ1LS40NDg3LjUxNjEtLjExODcsMS4wMzI3LjIyMDIsMS4xODAyLjc3MjUuMDY0NS4yNDQxLjEyNzQuNDg4My4xNjQxLjczNjMuMTI4NC44ODA5LjA1MjcsMS43NDEyLS4yMjUxLDIuNTU1Ny0uMzMwMS45Njc4LTEuMDA2MywxLjc2MjctMi4wNjg0LDIuNDMwNy0uNTQ4My4zNDQ3LS44Nzc5Ljc2OTUtMS4wMDgzLDEuMjk4OC0uMTQ4OS42MDY0LjAzMTIsMS4wMTc2LjUzNTYsMS4yMjM2LjEyNS4wNDk4LjI4NzEuMDc1Mi40NTkuMTAxNmwuMjMxNC4wMzgxYy41OTM4LjEwOTQuOTQ0OC41MzMyLjg5NCwxLjA4MDEtLjA0NzkuNTE5NS0uNDg1NC44ODA5LTEuMDY1OS44ODA5WiIgY2xhc3M9ImNscy0xIi8+JiN4YTsgICAgICAgIDxwYXRoIGQ9Ik0zMy45NjEzLDQxLjQ1NTNjLS42MjM5LS4xMTE3LTEuMjE5MS0uMzg5LTEuNjkzNS0uODY5OC0uNjQ5Ny0uNjYtLjg5MTMtMS40MTU3LS43MTctMi4yNDQ2LjE4NTEtLjg4MzYuNzYtMS41MDY4LDEuNjYzLTEuODAxNC4zMDk2LS4xMDAzLjY0OS0uMDQ1NS45MDg2LjE1NTguMjU4Mi4xOTguNDAxNi41MTA1LjM4NDIuODM0Ny0uMDMyLjU5OTUtLjUzMDguODE5Ni0uNzQ0Mi45MTQ0LS4xNjkuMDczOS0uMjc0MS4xOS0uMjk1NS4zMjYxcy4wNDM2LjI4MjYuMTc5Ni40MDQyYy4zNzI4LjMzMzcuODE3Mi40MzkxLDEuMzU0NS4zMjUuNzU4Mi0uMTYxOCwxLjE5OTctLjUzMzIsMS4zNS0xLjEzNDIuMjk0OC0xLjE4NjMtLjAwMzUtMi4xMDE5LS45MTE5LTIuNzk2NC0uMzg0OC0uMjk0MS0uNzc5Ni0uNTc3Mi0xLjE3NDQtLjg2MDItLjM2MzEtLjI2MDUtLjcyNjMtLjUyLTEuMDgxOS0uNzg5MS0uNzUwNy0uNTY3LTEuMzA0Ni0xLjE2MDMtMS42OTM4LTEuODEyNC0uMjgyLS40NzUxLS4xODI1LTEuMDQxNy4yMzY5LTEuMzQ3NS40NTE1LS4zMzAzLDEuMDA2LS4yMzgsMS4zNzguMjI3NS4wNTkxLjA3NDYuMTEzOS4xNTA0LjE2OTcuMjI2OC4wNjI5LjA4NjcuMTI0Ny4xNzM2LjE5NDYuMjU0MS4wMTE2LjAxMjUuMDIyMy4wMjUzLjAzMzkuMDM3OC4yODExLS42OTQyLjY5OTYtMS4yOTY5LDEuMjY0Ny0xLjgyMDctLjUxOTMtLjM1NzQtLjk1NDUtLjgyNDgtMS4zMjU3LTEuNDIyLS4yODE5LS40NTMzLS4xNjg2LTEuMDAzLjI2OTctMS4zMDY0LjQzLS4yOTYuOTUxMi0uMjMxNCwxLjMwMjMuMTU2OS4wNTguMDY0LjExMDQuMTM2OC4xNjE4LjIxbC4wNjI4LjA4NzFjLjU0NDEuNzEyMSwxLjIyMDgsMS4wODI4LDIuMDE1OCwxLjEwMzIuMjk4MS4wMDgzLjY1MzQtLjA2NCwxLjA1NjQtLjIxNTEsMS4zNTM4LS41MDcsMi41MDA0LS41NjY2LDMuNjE1NS0uMTg5NywxLjExMi4zNzczLDEuODU4OCwxLjA4NzksMi4yMTkxLDIuMTExOC4zMzMyLjk0ODEuMzAwNywxLjkyMTUtLjA5MzYsMi44OTMxLS40MzM5LDEuMDcxMS0xLjEzMjYsMS44MDkxLTIuMDc0NCwyLjE5My0xLjA2MzUuNDMxNi0yLjE2OTkuMzI3Ni0zLjI4Ni0uMzAzOS0uNTM3Ny0uMzA0Ny0uOTQ3NS0uODQ3My0xLjEyMTUtMS40ODc2LS4xNzI5LS42MzUyLS4wOTg1LTEuMjk5OS4yMDQ1LTEuODIzMS4yNDc5LS40MzEzLjc1MDItLjYyNjYsMS4xOTktLjQ1MTQuNDUwNS4xNzEuNzA1Ni42NDY4LjYwNiwxLjEzMDktLjAxMjYuMDY0Ny0uMDM0LjEyODgtLjA1NTQuMTkzLS4xMjUyLjQ5OTQuMDQ0Mi42MTcxLjExNzUuNjY3OS40OTQzLjM0NzUsMS4wMDA2LjQ0MDEsMS41MDM5LjI3MjQuNjY5NS0uMjIwNCwxLjE3NDUtLjk2ODIsMS4yMjg2LTEuODE4Ny4wNjI4LS45ODc4LS4zNDgxLTEuMzM1Ny0uNjYyOC0xLjUxMTYtLjY3OTktLjM4MDctMS40MjM1LS40NDQtMi4yMS0uMTkwNWwtLjE0ODUuMDQ3OGMtLjYyMDIuMjAwNC0xLjI2MjYuNDA3OC0xLjkyOTguNDk5MS0xLjEzNTEuMTU1OC0yLjE0NDUsMS4yMjE2LTIuMjUxMSwyLjM3NjIuMTg1Ny4xMjY1LjM3NjMuMjU4OS41NTQzLjQwNTkuMTQ3MS4xMjA2LjI5NjYuMjM4Ni40NDY4LjM1NzguNDA5NC4zMjMzLjgzMzUuNjU4MywxLjIxMjQsMS4wNDY2LjY3MDkuNjg1NywxLjAwODEsMS42MTEyLDEuMDI5LDIuODI5My4wMjY0LDEuNDkxOS0uNTUzMywyLjYyOTItMS43MjM5LDMuMzgxOC0uNzQ1My40Nzc2LTEuNzY5LjY5ODEtMi43MjgzLjUyNjJaIiBjbGFzcz0iY2xzLTEiLz4mI3hhOyAgICAgIDwvZz4mI3hhOyAgICA8L2c+JiN4YTsgICAgPGcgaWQ9IlRvbm5lX091dGxpbmUiPiYjeGE7ICAgICAgPHBhdGggZD0iTTQ1LjIzMDUsNTMuMTY1Yy0zLjgxNzQsMC03LjkyNTgtMS4zNjkxLTcuOTI1OC00LjM3NXYtMTAuMTc5N2MwLS4wNTY2LDAtLjE1NzIuMDE4Ni0uMjgzMi4yNTk4LTIuODExNSw0LjI2NDYtNC4wOTI4LDcuOTA3Mi00LjA5MjgsMy42NDc1LDAsNy42NTYyLDEuMjgxMiw3LjkxNiw0LjA5MjguMDE4Ni4xMjYuMDE4Ni4yMjY2LjAxODYuMjgzMnYxMC4xNzk3YzAsMy4wMDU5LTQuMTEzMyw0LjM3NS03LjkzNDYsNC4zNzVaIiBjbGFzcz0iY2xzLTMiLz4mI3hhOyAgICA8L2c+JiN4YTsgICAgPGcgaWQ9IlRvbm5lIj4mI3hhOyAgICAgIDxwYXRoIGQ9Ik01MS44OCwzOC40OWMtLjEzLTEuOTMtMy40OC0yLjk4LTYuNjUtMi45OC0zLjE2LDAtNi41MSwxLjA1LTYuNjQsMi45OC0uMDEuMDQtLjAxLjA4LS4wMS4xMnYxMC4xOGMwLDIuMDEsMy40MywzLjEsNi42NSwzLjEsMy4yMywwLDYuNjYtMS4wOSw2LjY2LTMuMXYtMTAuMThjMC0uMDQsMC0uMDgtLjAxLS4xMlpNNTAuNjQsNDguNzljMCwuNzUtMi4xMSwxLjg1LTUuNDEsMS44NXMtNS40LTEuMS01LjQtMS44NXYtMS40M2MuOTcuNTQsMi42NiwxLjEzLDUuNCwxLjEzLDIuNzcsMCw0LjQ1LS41OCw1LjQxLTEuMTJ2MS40MlpNNTAuNjQsNDUuODVjLS40Mi4zNi0xLjksMS4zOS01LjQxLDEuMzktMy40OCwwLTQuOTctMS4wMS01LjQtMS4zOHYtMS44OWMuOTcuNTQsMi42NiwxLjEzLDUuNCwxLjEzLDIuNzcsMCw0LjQ1LS41OCw1LjQxLTEuMTJ2MS44N1pNNTAuNjQsNDIuNDZjLS40Mi4zNi0xLjksMS4zOS01LjQxLDEuMzktMy40OCwwLTQuOTctMS4wMS01LjQtMS4zOHYtMmMxLjI4LjgyLDMuMzgsMS4yNSw1LjQsMS4yNXM0LjEzLS40Myw1LjQxLTEuMjV2MS45OVpNNDUuMjMsNDAuNDdjLTMuMywwLTUuNC0xLjEtNS40LTEuODYsMC0uNzUsMi4xLTEuODUsNS40LTEuODVzNS40MSwxLjEsNS40MSwxLjg1YzAsLjc2LTIuMTEsMS44Ni01LjQxLDEuODZaIiBjbGFzcz0iY2xzLTEiLz4mI3hhOyAgICA8L2c+JiN4YTsgIDwvZz4mI3hhOzwvc3ZnPg==;" vertex="1" parent="1">
          <mxGeometry x="210" y="370" width="62" height="62" as="geometry" />
        </mxCell>
        <mxCell id="d-CWmxk7Mh6oMbrWVQdX-20" value="" style="shape=image;verticalLabelPosition=bottom;verticalAlign=top;imageAspect=0;aspect=fixed;image=data:image/svg+xml,PHN2ZyB4bWxucz0iaHR0cDovL3d3dy53My5vcmcvMjAwMC9zdmciIHZpZXdCb3g9IjAgMCA2Mi4zNjIyIDYyLjM2MjIiIHZlcnNpb249IjEuMSI+JiN4YTsgIDxkZWZzPiYjeGE7ICAgIDxzdHlsZT4mI3hhOyAgICAgIC5jbHMtMSB7JiN4YTsgICAgICAgIGZpbGw6ICNmZmY7JiN4YTsgICAgICB9JiN4YTsmI3hhOyAgICAgIC5jbHMtMiB7JiN4YTsgICAgICAgIGZpbGw6ICNmZWZlZmU7JiN4YTsgICAgICB9JiN4YTsmI3hhOyAgICAgIC5jbHMtMyB7JiN4YTsgICAgICAgIGZpbGw6ICNkYTI5MWM7JiN4YTsgICAgICB9JiN4YTsgICAgPC9zdHlsZT4mI3hhOyAgPC9kZWZzPiYjeGE7ICAmI3hhOyAgPGc+JiN4YTsgICAgPGcgaWQ9IkhpbnRlcmdydW5kIj4mI3hhOyAgICAgIDxwYXRoIGQ9Ik0zMS4zMTQ5LDYyLjM2MzlDMTMuNDgyOCw2Mi4zNjM5LDAsNDcuNTkyMSwwLDMxLjMxNjQsMCwxMi42MzQ1LDE1LjU1NzEuMDAxNywzMS4wODA3LjAwMTcsNDkuNjgyMy4wMDE3LDYyLjM2MjIsMTUuMzQxNiw2Mi4zNjIyLDMwLjk0ODhjMCwxOS4wNDk1LTE1LjY1NzUsMzEuNDE1LTMxLjA0NzMsMzEuNDE1aDBaIiBjbGFzcz0iY2xzLTMiLz4mI3hhOyAgICA8L2c+JiN4YTsgICAgPGcgaWQ9IklDT04iPiYjeGE7ICAgICAgPGc+JiN4YTsgICAgICAgIDxjaXJjbGUgcj0iMTkuMzQ2NSIgY3k9IjMxLjE4MTEiIGN4PSIzMS4xODExIiBjbGFzcz0iY2xzLTMiLz4mI3hhOyAgICAgICAgPHBhdGggZD0iTTMxLjE4MTEsMTEuODM0NmMxMC42ODQ4LDAsMTkuMzQ2NSw4LjY2MTcsMTkuMzQ2NSwxOS4zNDY1cy04LjY2MTcsMTkuMzQ2NS0xOS4zNDY1LDE5LjM0NjUtMTkuMzQ2NS04LjY2MTctMTkuMzQ2NS0xOS4zNDY1UzIwLjQ5NjQsMTEuODM0NiwzMS4xODExLDExLjgzNDZNMzEuMTgxMSwxMC41ODQ2Yy0xMS4zNTY5LDAtMjAuNTk2NSw5LjIzOTUtMjAuNTk2NSwyMC41OTY1czkuMjM5NSwyMC41OTY1LDIwLjU5NjUsMjAuNTk2NSwyMC41OTY1LTkuMjM5NSwyMC41OTY1LTIwLjU5NjUtOS4yMzk1LTIwLjU5NjUtMjAuNTk2NS0yMC41OTY1aDBaIiBjbGFzcz0iY2xzLTIiLz4mI3hhOyAgICAgIDwvZz4mI3hhOyAgICAgIDxnIGlkPSJHcm91cC1jb3B5Ij4mI3hhOyAgICAgICAgPHBhdGggZD0iTTMxLjQxOCw0NC42Nzc3Yy0uNjMxOCwwLTEuMjYwMy0uMTY1LTEuODAxOC0uNDkxMi0uOTE2NS0uNTUyNy0xLjQ2MjktMS41MDg4LTEuNDYyOS0yLjU1ODZsLS4wNDQ0LTUuODc3Yy0uMDE1MS0uMjYwNy0uMzc0LTEuMTI5OS0uNjM2Mi0xLjc2NTYtLjU5NTctMS40NDQzLTEuMjEyNC0yLjkzODUtMS4wOTYyLTQuMDU3MS4xNzUzLTEuNjkzNCwyLjExOTYtNS4yMjE3LDIuNTczMi01LjY1ODcuMzIzMi0uMzEyLjg2NTItLjgzNDUsMS43MDE3LS44MzQ1aDEuNDIzOGMuODM1LDAsMS4zNzcuNTIyNSwxLjcwMTIuODM0NS40NTMxLjQzNiwyLjM5NjUsMy45NjM5LDIuNTczMiw1LjY1NzcuMTYwMiwxLjUzNjYtLjcxMjksMy4zNzI2LTEuMTMyOCw0LjI1NDQtLjA1ODYuMTI0LS4xMDY0LjIyMzYtLjEzNTcuMjkzLS4yMTY4LjUwOTgtLjgwMzcuNzQzMi0xLjMxMTUuNTMwMy0uNTA3OC0uMjE1OC0uNzQ2MS0uODAyNy0uNTMwMy0xLjMxMTUuMDM3MS0uMDg2OS4wOTY3LS4yMTM5LjE3MTktLjM3MDEuMzE0NS0uNjYyMSwxLjA1MDgtMi4yMTE0Ljk0OTItMy4xODktLjEyMDEtMS4xNTg3LTEuNjkxNC00LjA1OTEtMi4wMjA1LTQuNDc3NS0uMDQ4OC0uMDQyLS4yMTQ4LS4yMDEyLS4yODMyLS4yMjQ2bC0xLjQwNTMuMDAyOWMtLjA1MDguMDIxLS4yMTUzLjE3OTctLjMxMzUuMjc0NC0uMjgwOC4zNjYyLTEuODUyMSwzLjI2NjEtMS45NzIyLDQuNDI0OC0uMDY0LjYxNjcuNTQ5OCwyLjEwNC45NTYxLDMuMDg4NC40NzAyLDEuMTQwNi43NTk4LDEuODY4Mi43ODUyLDIuNDM5NWwuMDQ1NCwxLjAzMDMuMDAxLDQuOTM1NWMwLC4zNDI4LjE4NTEuNjU5Mi40OTUxLjg0NTcuNDMzMS4yNjA3LDEuMDQxNS4yNzU0LDEuNDgwNS4wMzYxbDcuODk5NC00LjU4MDFjMS41NTM3LS45OTMyLDEuNTQ1OS0xLjQ0OTIsMS41MjE1LTIuOTYtLjAwMzktLjE5MjQtLjAwNjgtLjM5NDUtLjAwNjgtLjYwNzR2LTcuNjcxNGMwLTEuODE3OS0uMTQ1NS0yLjM1NzQtMS4yMzM0LTIuOTc0MWwtNi43NTQ5LTMuNTc5MWMtMS4yNzQ0LS43MjI3LTIuODMzNS0uNzMtNC4wOTM4LS4wMzU2bC02LjMzNTQsMy42MTMzYy0xLjg2NzIsMS4wMzEyLTIuMzc1LDEuNjY5NC0yLjM3NSwyLjk3NTZ2Ny42NzE0YzAsMS41NDg4Ljc4MzIsMy4wMTU2LDIuMDk0MiwzLjkyMjkuMTc3Ny4xMTcyLDIuNTA5MywxLjU2MDUsMi41MDk4LDEuNTYxNS40NjkyLjI5LjYxNDMuOTA3Mi4zMjMyLDEuMzc2LS4yOTE1LjQ2OTctLjkwNjcuNjE3Mi0xLjM3Ny4zMjMyLTEuMTI2LS42OTczLTIuNDkwMi0xLjU0MzktMi41OTUyLTEuNjE3Mi0xLjg1MDEtMS4yODAzLTIuOTU1MS0zLjM2MTMtMi45NTUxLTUuNTY2NHYtNy42NzE0YzAtMi42MjQ1LDEuNjc3Ny0zLjc3MDUsMy4zOTYtNC43MTk3bDYuMzM1NC0zLjYxMzNjMS44NzYtMS4wMzU2LDQuMTg1MS0xLjAyMzksNi4wMzQ3LjAyNTlsNi43NTQ5LDMuNTc5MWMyLjExMDQsMS4xOTYzLDIuMjcxNSwyLjcxMzQsMi4yNzE1LDQuNzI4bC4wMDU5LDguMjQ1NmMuMDI3MywxLjY1NTMuMDUwOCwzLjA4NC0yLjQ4MDUsNC43MDEybC03Ljk2LDQuNjE2MmMtLjUyMzQuMjg0Mi0xLjEwODQuNDIzOC0xLjY5MDQuNDIzOFoiIGNsYXNzPSJjbHMtMSIvPiYjeGE7ICAgICAgPC9nPiYjeGE7ICAgIDwvZz4mI3hhOyAgICA8ZyBpZD0iVG9ubmVfT3V0bGluZSI+JiN4YTsgICAgICA8cGF0aCBkPSJNNDUuMjMwNSw1My4xNjVjLTMuODE3NCwwLTcuOTI1OC0xLjM2OTEtNy45MjU4LTQuMzc1di0xMC4xNzk3YzAtLjA1NjYsMC0uMTU3Mi4wMTg2LS4yODMyLjI1OTgtMi44MTE1LDQuMjY0Ni00LjA5MjgsNy45MDcyLTQuMDkyOCwzLjY0NzUsMCw3LjY1NjIsMS4yODEyLDcuOTE2LDQuMDkyOC4wMTg2LjEyNi4wMTg2LjIyNjYuMDE4Ni4yODMydjEwLjE3OTdjMCwzLjAwNTktNC4xMTMzLDQuMzc1LTcuOTM0Niw0LjM3NVoiIGNsYXNzPSJjbHMtMyIvPiYjeGE7ICAgIDwvZz4mI3hhOyAgICA8ZyBpZD0iVG9ubmUiPiYjeGE7ICAgICAgPHBhdGggZD0iTTUxLjg4LDM4LjQ5Yy0uMTMtMS45My0zLjQ4LTIuOTgtNi42NS0yLjk4LTMuMTYsMC02LjUxLDEuMDUtNi42NCwyLjk4LS4wMS4wNC0uMDEuMDgtLjAxLjEydjEwLjE4YzAsMi4wMSwzLjQzLDMuMSw2LjY1LDMuMSwzLjIzLDAsNi42Ni0xLjA5LDYuNjYtMy4xdi0xMC4xOGMwLS4wNCwwLS4wOC0uMDEtLjEyWk01MC42NCw0OC43OWMwLC43NS0yLjExLDEuODUtNS40MSwxLjg1cy01LjQtMS4xLTUuNC0xLjg1di0xLjQzYy45Ny41NCwyLjY2LDEuMTMsNS40LDEuMTMsMi43NywwLDQuNDUtLjU4LDUuNDEtMS4xMnYxLjQyWk01MC42NCw0NS44NWMtLjQyLjM2LTEuOSwxLjM5LTUuNDEsMS4zOS0zLjQ4LDAtNC45Ny0xLjAxLTUuNC0xLjM4di0xLjg5Yy45Ny41NCwyLjY2LDEuMTMsNS40LDEuMTMsMi43NywwLDQuNDUtLjU4LDUuNDEtMS4xMnYxLjg3Wk01MC42NCw0Mi40NmMtLjQyLjM2LTEuOSwxLjM5LTUuNDEsMS4zOS0zLjQ4LDAtNC45Ny0xLjAxLTUuNC0xLjM4di0yYzEuMjguODIsMy4zOCwxLjI1LDUuNCwxLjI1czQuMTMtLjQzLDUuNDEtMS4yNXYxLjk5Wk00NS4yMyw0MC40N2MtMy4zLDAtNS40LTEuMS01LjQtMS44NiwwLS43NSwyLjEtMS44NSw1LjQtMS44NXM1LjQxLDEuMSw1LjQxLDEuODVjMCwuNzYtMi4xMSwxLjg2LTUuNDEsMS44NloiIGNsYXNzPSJjbHMtMSIvPiYjeGE7ICAgIDwvZz4mI3hhOyAgPC9nPiYjeGE7PC9zdmc+;" vertex="1" parent="1">
          <mxGeometry x="290" y="370" width="62" height="62" as="geometry" />
        </mxCell>
        <mxCell id="d-CWmxk7Mh6oMbrWVQdX-21" value="" style="shape=image;verticalLabelPosition=bottom;verticalAlign=top;imageAspect=0;aspect=fixed;image=data:image/svg+xml,PHN2ZyB4bWxucz0iaHR0cDovL3d3dy53My5vcmcvMjAwMC9zdmciIHZpZXdCb3g9IjAgMCA2Mi4zNjIyIDYyLjM2MjIiIHZlcnNpb249IjEuMSI+JiN4YTsgIDxkZWZzPiYjeGE7ICAgIDxzdHlsZT4mI3hhOyAgICAgIC5jbHMtMSB7JiN4YTsgICAgICAgIGZpbGw6ICNmZmY7JiN4YTsgICAgICB9JiN4YTsmI3hhOyAgICAgIC5jbHMtMiB7JiN4YTsgICAgICAgIGZpbGw6ICNmZWZlZmU7JiN4YTsgICAgICB9JiN4YTsmI3hhOyAgICAgIC5jbHMtMyB7JiN4YTsgICAgICAgIGZpbGw6ICNkYTI5MWM7JiN4YTsgICAgICB9JiN4YTsgICAgPC9zdHlsZT4mI3hhOyAgPC9kZWZzPiYjeGE7ICAmI3hhOyAgPGc+JiN4YTsgICAgPGcgaWQ9IkhpbnRlcmdydW5kIj4mI3hhOyAgICAgIDxwYXRoIGQ9Ik0zMS4zMTQ5LDYyLjM2MzlDMTMuNDgyOCw2Mi4zNjM5LDAsNDcuNTkyMSwwLDMxLjMxNjQsMCwxMi42MzQ1LDE1LjU1NzEuMDAxNywzMS4wODA3LjAwMTcsNDkuNjgyMy4wMDE3LDYyLjM2MjIsMTUuMzQxNiw2Mi4zNjIyLDMwLjk0ODhjMCwxOS4wNDk1LTE1LjY1NzUsMzEuNDE1LTMxLjA0NzMsMzEuNDE1aDBaIiBjbGFzcz0iY2xzLTMiLz4mI3hhOyAgICA8L2c+JiN4YTsgICAgPGcgaWQ9IklDT04iPiYjeGE7ICAgICAgPGc+JiN4YTsgICAgICAgIDxjaXJjbGUgcj0iMTkuMzQ2NSIgY3k9IjMxLjE4MTEiIGN4PSIzMS4xODExIiBjbGFzcz0iY2xzLTMiLz4mI3hhOyAgICAgICAgPHBhdGggZD0iTTMxLjE4MTEsMTEuODM0NmMxMC42ODQ4LDAsMTkuMzQ2NSw4LjY2MTcsMTkuMzQ2NSwxOS4zNDY1cy04LjY2MTcsMTkuMzQ2NS0xOS4zNDY1LDE5LjM0NjUtMTkuMzQ2NS04LjY2MTctMTkuMzQ2NS0xOS4zNDY1UzIwLjQ5NjQsMTEuODM0NiwzMS4xODExLDExLjgzNDZNMzEuMTgxMSwxMC41ODQ2Yy0xMS4zNTY5LDAtMjAuNTk2NSw5LjIzOTUtMjAuNTk2NSwyMC41OTY1czkuMjM5NSwyMC41OTY1LDIwLjU5NjUsMjAuNTk2NSwyMC41OTY1LTkuMjM5NSwyMC41OTY1LTIwLjU5NjUtOS4yMzk1LTIwLjU5NjUtMjAuNTk2NS0yMC41OTY1aDBaIiBjbGFzcz0iY2xzLTIiLz4mI3hhOyAgICAgIDwvZz4mI3hhOyAgICAgIDxwYXRoIGQ9Ik0yOS4zOTIyLDQzLjI3NzRjLS4zNjg3LDAtLjY3NDMtLjIxMzktLjg1NC0uNjEzMy0uOTg5My0yLjIwMDItMi4wMTIyLTQuNDc1Ni0yLjk2ODMtNi43MzU0LS4xNDUtLjM0MjgtLjEzNjctLjkzNTUuMDkyMy0xLjIxNDguMjEzOS0uMjYwNy43ODY2LS4zNjMzLDEuMTY2LS4yOTIsMS4yOTc5LjI0MTIsMi41NzQ3LS4xNjIxLDMuNTA3OC0xLjEwNzRzMS4zMzQtMi4yOTA1LDEuMDcyMy0zLjU5NzJsLS4wMDc4LS4wMzk2Yy0uMDU1Ny0uMjc0NC0uMTI1LS42MTU3LjAxNDItLjgzMi4xNzg3LS4yNzczLjUzMTItLjUxODYuODM4NC0uNTc0Mi4yMzI0LS4wNDM5LjQ2NDguMDA3My42NDU1LjE0MjYuMTkwNC4xNDMxLjMxMDUuMzY0My4zMzc5LjYyMzUuMDcyMy42ODI2LjEwODQsMS4zNjQ3LjE0NTUsMi4wODY0LjAxMjcuMjU1NC4wMjY0LjUxNDYuMDQyLjc3OTMuMDAxLjAyNDkuMDE5NS4wNDY0LjA0Mi4wNTAzLDEuMzAyNy4yMTY4LDIuNDMwNy0uMDkzMywzLjM2MTMtLjkxOTQuMTA2NC0uMDk0Mi4yMS0uMjA3LjMxNjQtLjM0NDIuMzIwMy0uNDEyMS43MDktLjU1NjYsMS4xNTA0LS40MzguNTAzOS4xMzk2LjkwOTIuNzIxNy45NzA3LDEuMTc3Ny4yMjI3LDEuNjYxMS0uMTg5NSwzLjE4NjUtMS4yOTk4LDQuODAwOC0uMzkwNi41NzEzLS45MzA3LjczNDQtMS40MzU1LjQzOTUtLjM0NTctLjIwMTItLjY2NS0uNjE5MS0uMjI3NS0xLjQ2ODguMjMyNC0uNDUwMi40NDI0LS45MjQ4LjY0NTUtMS4zODI4LjA5MTgtLjIwNTEuMTgyNi0uNDExMS4yNzY0LS42MTUyLDAtLjAwMSwwLS4wMDIuMDAxLS4wMDI5LS4wMDM5LjAwMi0uMDA4OC4wMDM5LS4wMTI3LjAwNTktMS4zMTI1LjcxNDgtMi43ODkxLjkxNDEtNC41MDU5LjYxNDMtLjA4NzktLjAwNjgtLjI0OS4wNDc5LS4yOTc5LjExMjMtMS4xMDQsMS40NjE5LTIuNTM3MSwyLjI4MDMtNC4zODA5LDIuNTAyLS4wMjM0LjAwMjktLjAzNTIuMDE3Ni0uMDQwNS4wMjU0LS4wMDQ5LjAwNzgtLjAxMjIuMDI0NC0uMDA0NC4wNDU5bC4wMzE3LjA4NjljLjA2NzkuMTg4NS4xMzA0LjM2MDQuMjA0MS41MjczLjM4ODcuODc3OS43NzkzLDEuNzU1OSwxLjE2OTksMi42MzI4bC44MzExLDEuODY3MmMuMDYyNS4xMzk2LjEyNy4yODMyLjE1NTguNDM5NS4xMDUuNTY0NS0uMTA3OS45NzE3LS41OTk2LDEuMTQ3NS0uMTMyOC4wNDY5LS4yNjE3LjA3MDMtLjM4MzMuMDcwM1pNMTguNjUyNCwzNC40MTEyYy0xLjA5NzcsMC0yLjI1OTMtLjQwNjItMy40NTktMS4yMTk3LS40ODU4LS4zMzAxLS42MDYtLjgxOTMtLjMyMDMtMS4zMTA1LjI3NTQtLjQ3MzEuNzYwNy0uNjEwNCwxLjI5NzktLjM2NTIuMTg2NS4wODUuMzYxOC4xOTI5LjUzMTIuMjk2OS4xMTI4LjA2OTguMjI1Ni4xMzkyLjM0MTguMjAyMSwxLjM0NjcuNzI0NiwyLjQ0OTcuNTg5OCwzLjU3NTctLjQzOSwxLjM5NTUtMS4yNzM0LDIuMjg0Mi0yLjg5NywzLjIyMDctNC43MzI5LjEwOTktLjIxNTMuMjE0NC0uNDMyNi4zMTkzLS42NTA0LjQwMzgtLjgzODQuODIxOC0xLjcwNTYsMS41MjItMi40MTQ2LDEuMTg5LTEuMjA1MSwyLjk5MTItMS44ODA0LDQuODAyMi0xLjgyNjIsMS43NjEyLjA1OTYsMy4zNTAxLjgxMDUsNC40NzMxLDIuMTE0My40NDYzLjUxODEsMS4wNzcxLjkxMDIsMS42ODQ2LDEuMjY2Ni41LjI5NDksMS4zNzMuMDQ1NCwxLjc5MS0uMzY1Ny40NzI3LS40NjM5LDEuNTc4MS0xLjU1MDgsMi4wMTg2LTIuNjM5Ni4xMTQzLS4yNTM0LjIxMzktLjQ4NjMuMzA4Ni0uNzA3LjIwNy0uNDgxOS4zODU3LS44OTc5LjYwOTQtMS4yOTc5LjMxNTQtLjU2NTQuODM4OS0uODAwMywxLjMzMy0uNjAwMS4yMjU2LjEwNC4zOTE2LjI5MzkuNDcxNy41MzY2LjA5NDcuMjgyMi4wNjU0LjYwOTQtLjA3NzEuODc1LS4xMDI1LjE1MTktLjMyMDMuNTkwMy0uMzkzNi43NjUxLS4xMzQ4LjMyMTMtLjEyOTkuNTIyLjI3MTUuNzI4NS44NDQ3LjQzNTEsMS43MTQ4Ljk1MDcsMi41ODU5LDEuNTMyNy43MTk3LjQ4MDUsMS4wNzUyLDEuMzI1Mi45MDUzLDIuMTUxNC0uMTU3Mi43Njk1LS42Mzk2LDEuMjgxMi0xLjM5NTUsMS40ODFsLS40ODU0LjEyOTRjLS41NzQyLjE1NDMtMS4xNjguMzE0LTEuNzYwNy40MzUxLS4zNjEzLjA3MzctLjU3NzEuMjQzNy0uNzQ0MS41ODY0LS4xNTYyLjMxOTMtLjM2NjIuNjUzOC0uNjQwNiwxLjAyMzktLjM3MjEuNDk2Ni0uODY5MS41OTQyLTEuMzcyMS4yNjEyLS40NTYxLS4zMDIyLS41NjI1LS43ODQ3LS4yODkxLTEuMzIyOC4yODQyLS41NTgxLjYyMjEtMS4yMDI2LDEuMDQtMS43OTA1LjE0MjYtLjIwMDcuNDIxOS0uMzU2OS44NTQ1LS40NzcxLjcxODgtLjE5OTcsMS40NTYxLS4zODA5LDIuMTY4OS0uNTU2MmwuMTM5Ni0uMDM0N2MuNDUyMS0uMDg4OS40ODYzLS4xODk5LjQ4NjMtLjE5MDkuMDA0OS0uMDI3OC4wMTU2LS4xMDM1LS40MDA0LS4zMjE4bC0uMTcyOS0uMTA1NWMtLjU2ODQtLjM0NzctMS4xNTcyLS43MDY1LTEuNzU1OS0xLjAxNTEtLjQzMjYtLjIyNTEtLjc3MjUuMDU5MS0xLjE2ODkuNDUxMi0uMTYwMi4xNTkyLS4yOTQ5LjM0MzMtLjQzNjUuNTM4Ni0uMDU1Ny4wNzc2LS4xMTIzLjE1NDgtLjE2OTkuMjMxLS44NDY3LDEuMTA3NC0xLjg0MzgsMS43MDUxLTIuOTYxOSwxLjc3NTktMS4xNjAyLjA3MTgtMi40NDczLS40NzYxLTMuNDI4Ny0xLjQ2OTItLjEyMjEtLjEyMzUtLjI0MTItLjI1LS4zNTk0LS4zNzY1LS4xNTIzLS4xNjExLS4zMDM3LS4zMjI4LS40NjE5LS40Nzc1LTEuMDE4Ni0xLjAwMzQtMi40ODg4LTEuNDEwMi0zLjkyOTItMS4wODU5LTEuNDI3Ny4zMjAzLTIuNTcwOCwxLjMwMzctMy4wNTgxLDIuNjMwOS0uMzc3LDEuMDI2NC0uMjY4MSwyLjA4NTQuMzIyOCwzLjE0NzUuMzgyOC42ODcuMzA4NiwxLjI0NjYtLjIwMzYsMS41MzU2LS4yNTIuMTQxNi0uNTE3MS4xNzcyLS43NjMyLjEwMzUtLjMwNTctLjA5MDgtLjU3MjMtLjM0MTMtLjc3MS0uNzI0MS0uMTA0NS0uMjAwNy0uMTk5Mi0uNDA2Mi0uMjg1Mi0uNTkzMy0uMDA5OC0uMDIxNS0uMDIyNS0uMDIzNC0uMDM4Ni0uMDI0OS0uMDA5MywwLS4wMjIuMDAyOS0uMDMyMi4wMTU2LS4xOTE0LjIzODMtLjM3OTkuNDc5NS0uNTY4NC43MjA3LS41Mjc4LjY3NjgtMS4wNzM3LDEuMzc2LTEuNjg1MSwxLjk5NjYtMS4wNTE4LDEuMDY2NC0yLjIyNzUsMS42MDE2LTMuNDg3MywxLjYwMTZaIiBjbGFzcz0iY2xzLTEiLz4mI3hhOyAgICA8L2c+JiN4YTsgICAgPGcgaWQ9IlRvbm5lX091dGxpbmUiPiYjeGE7ICAgICAgPHBhdGggZD0iTTQ1LjIzMDUsNTMuMTY1Yy0zLjgxNzQsMC03LjkyNTgtMS4zNjkxLTcuOTI1OC00LjM3NXYtMTAuMTc5N2MwLS4wNTY2LDAtLjE1NzIuMDE4Ni0uMjgzMi4yNTk4LTIuODExNSw0LjI2NDYtNC4wOTI4LDcuOTA3Mi00LjA5MjgsMy42NDc1LDAsNy42NTYyLDEuMjgxMiw3LjkxNiw0LjA5MjguMDE4Ni4xMjYuMDE4Ni4yMjY2LjAxODYuMjgzMnYxMC4xNzk3YzAsMy4wMDU5LTQuMTEzMyw0LjM3NS03LjkzNDYsNC4zNzVaIiBjbGFzcz0iY2xzLTMiLz4mI3hhOyAgICA8L2c+JiN4YTsgICAgPGcgaWQ9IlRvbm5lIj4mI3hhOyAgICAgIDxwYXRoIGQ9Ik01MS44OCwzOC40OWMtLjEzLTEuOTMtMy40OC0yLjk4LTYuNjUtMi45OC0zLjE2LDAtNi41MSwxLjA1LTYuNjQsMi45OC0uMDEuMDQtLjAxLjA4LS4wMS4xMnYxMC4xOGMwLDIuMDEsMy40MywzLjEsNi42NSwzLjEsMy4yMywwLDYuNjYtMS4wOSw2LjY2LTMuMXYtMTAuMThjMC0uMDQsMC0uMDgtLjAxLS4xMlpNNTAuNjQsNDguNzljMCwuNzUtMi4xMSwxLjg1LTUuNDEsMS44NXMtNS40LTEuMS01LjQtMS44NXYtMS40M2MuOTcuNTQsMi42NiwxLjEzLDUuNCwxLjEzLDIuNzcsMCw0LjQ1LS41OCw1LjQxLTEuMTJ2MS40MlpNNTAuNjQsNDUuODVjLS40Mi4zNi0xLjksMS4zOS01LjQxLDEuMzktMy40OCwwLTQuOTctMS4wMS01LjQtMS4zOHYtMS44OWMuOTcuNTQsMi42NiwxLjEzLDUuNCwxLjEzLDIuNzcsMCw0LjQ1LS41OCw1LjQxLTEuMTJ2MS44N1pNNTAuNjQsNDIuNDZjLS40Mi4zNi0xLjksMS4zOS01LjQxLDEuMzktMy40OCwwLTQuOTctMS4wMS01LjQtMS4zOHYtMmMxLjI4LjgyLDMuMzgsMS4yNSw1LjQsMS4yNXM0LjEzLS40Myw1LjQxLTEuMjV2MS45OVpNNDUuMjMsNDAuNDdjLTMuMywwLTUuNC0xLjEtNS40LTEuODYsMC0uNzUsMi4xLTEuODUsNS40LTEuODVzNS40MSwxLjEsNS40MSwxLjg1YzAsLjc2LTIuMTEsMS44Ni01LjQxLDEuODZaIiBjbGFzcz0iY2xzLTEiLz4mI3hhOyAgICA8L2c+JiN4YTsgIDwvZz4mI3hhOzwvc3ZnPg==;" vertex="1" parent="1">
          <mxGeometry x="390" y="280" width="160" height="160" as="geometry" />
        </mxCell>
        <mxCell id="d-CWmxk7Mh6oMbrWVQdX-22" value="" style="shape=image;verticalLabelPosition=bottom;verticalAlign=top;imageAspect=0;aspect=fixed;image=data:image/svg+xml,PHN2ZyB4bWxucz0iaHR0cDovL3d3dy53My5vcmcvMjAwMC9zdmciIHZpZXdCb3g9IjAgMCA2Mi4zNjIyIDYyLjM2MjIiIHZlcnNpb249IjEuMSI+JiN4YTsgIDxkZWZzPiYjeGE7ICAgIDxzdHlsZT4mI3hhOyAgICAgIC5jbHMtMSB7JiN4YTsgICAgICAgIGZpbGw6ICNmZmY7JiN4YTsgICAgICB9JiN4YTsmI3hhOyAgICAgIC5jbHMtMiB7JiN4YTsgICAgICAgIGZpbGw6ICNmZWZlZmU7JiN4YTsgICAgICB9JiN4YTsmI3hhOyAgICAgIC5jbHMtMyB7JiN4YTsgICAgICAgIGZpbGw6ICNkYTI5MWM7JiN4YTsgICAgICB9JiN4YTsgICAgPC9zdHlsZT4mI3hhOyAgPC9kZWZzPiYjeGE7ICAmI3hhOyAgPGc+JiN4YTsgICAgPGcgaWQ9IkhpbnRlcmdydW5kIj4mI3hhOyAgICAgIDxwYXRoIGQ9Ik0zMS4zMTQ5LDYyLjM2MzlDMTMuNDgyOCw2Mi4zNjM5LDAsNDcuNTkyMSwwLDMxLjMxNjQsMCwxMi42MzQ1LDE1LjU1NzEuMDAxNywzMS4wODA3LjAwMTcsNDkuNjgyMy4wMDE3LDYyLjM2MjIsMTUuMzQxNiw2Mi4zNjIyLDMwLjk0ODhjMCwxOS4wNDk1LTE1LjY1NzUsMzEuNDE1LTMxLjA0NzMsMzEuNDE1aDBaIiBjbGFzcz0iY2xzLTMiLz4mI3hhOyAgICA8L2c+JiN4YTsgICAgPGcgaWQ9IklDT04iPiYjeGE7ICAgICAgPGc+JiN4YTsgICAgICAgIDxjaXJjbGUgcj0iMTkuMzQ2NSIgY3k9IjMxLjE4MTEiIGN4PSIzMS4xODExIiBjbGFzcz0iY2xzLTMiLz4mI3hhOyAgICAgICAgPHBhdGggZD0iTTMxLjE4MTEsMTEuODM0NmMxMC42ODQ4LDAsMTkuMzQ2NSw4LjY2MTcsMTkuMzQ2NSwxOS4zNDY1cy04LjY2MTcsMTkuMzQ2NS0xOS4zNDY1LDE5LjM0NjUtMTkuMzQ2NS04LjY2MTctMTkuMzQ2NS0xOS4zNDY1UzIwLjQ5NjQsMTEuODM0NiwzMS4xODExLDExLjgzNDZNMzEuMTgxMSwxMC41ODQ2Yy0xMS4zNTY5LDAtMjAuNTk2NSw5LjIzOTUtMjAuNTk2NSwyMC41OTY1czkuMjM5NSwyMC41OTY1LDIwLjU5NjUsMjAuNTk2NSwyMC41OTY1LTkuMjM5NSwyMC41OTY1LTIwLjU5NjUtOS4yMzk1LTIwLjU5NjUtMjAuNTk2NS0yMC41OTY1aDBaIiBjbGFzcz0iY2xzLTIiLz4mI3hhOyAgICAgIDwvZz4mI3hhOyAgICAgIDxnPiYjeGE7ICAgICAgICA8cGF0aCBkPSJNMjguMTQ3Miw0Mi40Mjg2aC0uMDExN2MtMS4wNTgxLS4wMDc4LTEuOTgzOS0uNDcyNy0yLjUzOTYtMS4yNzU0LS41NjM1LS44MTM1LS42ODIxLTEuODkxNi0uMzE3NC0yLjg4MTguMjI5NS0uNjIyMS42MTA0LTEuMTcxOSwxLjE2MTEtMS42NzQ4LS4xMjUtLjEyNzktLjI0NDEtLjI0NTEtLjM2NDMtLjMxNDUtLjYxMjgtLjM1MTYtMS4zNDk2LS40MTk5LTIuMTkxNC0uMTk4Mi0uNzAzMS4xODM2LTEuMzY2Ny40ODA1LTIuMTYxMS44NDk2LTEuMDAyOS40NjY4LTEuMjc2OS45MzE2LTEuMTI2LDEuOTE0MS4wMzEyLjIwOC4xMTgyLjM2MDQuMjgxMi40OTMyLjAzMjcuMDI3My4xNzgyLjA3MTMuNDIzOC4wNC4zMjcxLS4wNDMuNTg2NC0uMTgzNi42NDg0LS4yNjg2LjA5MDgtLjEyNS4xNTk3LS4yOTY5LjIzMjktLjQ3ODUuMjIzNi0uNTQ3OS42NTA0LS43OTMsMS4xMzY3LS43MDcuNTE1MS4wOTE4Ljg1NC41NjM1Ljc2OTUsMS4wNzUyLS4wNTc2LjM0NjctLjEzNzIuNzEtLjMzMDEsMS4wMjI1LS4zOTI2LjYzMzgtMS4wMjgzLDEuMDYzNS0xLjg5MTEsMS4yNzgzLTEuMjg0Ny4zMTg0LTIuNDY4My0uMjQ4LTMuMDEwNy0xLjQ0OTItLjI1MTUtLjU1MzctLjMyNTctMS4xNzU4LS4yMzI5LTEuOTU1MS4wNzk2LS42NzE5LjM0OTEtMS4yNjA3LjgwMDgtMS43NDguNTU4MS0uNjAzNSwxLjI1MzktLjkxMTEsMS45MjY4LTEuMjA5bC4zMDYyLS4xMzY3Yy4zODcyLS4xNzU4Ljc3NTktLjM0ODYsMS4xNjQxLS41MjE1LjU5NjItLjI2NDYsMS4xOTI0LS41MzAzLDEuNzgzMi0uODA2Ni4zMDQ3LS4xNDE2LjUzMDgtLjM5MzYuNjkxNC0uNzY4Ni4wNzMyLS4xNzE5LjIwMDItLjU5MDgtLjIwNDYtLjc4NDItLjE3MDQtLjA4MTEtLjM2NTItLjE0ODktLjU5NjctLjIwNzUtLjkyNTMtLjIzMzQtMi4wMDI5LS41NTI3LTIuOTc3NS0xLjE1MzgtMS40NTQxLS44OTYtMi4zNDQyLTEuOTk0Ni0yLjcyMTItMy4zNTc5LS4zOTMxLTEuNDE5NC0uMzA0Mi0yLjcyNzEuMjY0Ni0zLjg4NTcuOTM2NS0xLjkxMTYsMi43MjEyLTMuMTMxOCw0Ljk5MDgtMy4zNTc5Ljk4MDUtLjA5NzcsMi40Mjk0LjA3OCwzLjM2MDUuMzY2MSwxLjE4Ni4zNjcyLDIuMTk0MiwxLjAzOTQsMy4wNDA5LDEuODkxNC40NTQxLjQ1NzUsMS40MTgsMS41OTA4LDIuMDU1NywyLjM0MDhsLjMyOTEuMzg2MmMuMjg3MS4zMzUuMzE1NC43ODE3LjA3NTIsMS4xNjY1LS4yNDU2LjM5MzEtLjY3ODIuNTUxMy0xLjEwMDYuNDAxOS0uMTkxNC0uMDY3NC0uMzczNS0uMTk5Ny0uNTU3Ni0uNDA0My0uMTQ1NS0uMTYxMS0uNDE2NS0uNDc3NS0uNzE2OC0uODI4MS0uNDU5NS0uNTM2MS0uOTg3OC0xLjE1NDgtMS4yMjAyLTEuMzkzMS0uNzMtLjc0ODUtMS4zODMyLTEuMzYyMi0yLjEwNTQtMS42MzIyLTEuMjc5OC0uNDc5NS0zLjA1NDQtLjYyMTEtNC4yNDI5LS4xNjA3LTEuNDAxNC41NDMtMi4yNTk4LDEuNzY2My0yLjM5MTIsMy4xNzU5LS4xMjAxLDEuMjg2Ni4zMTY0LDIuMzIwOCwxLjMzNSwzLjE2MTYuNzc4My42NDI2LDEuNzM1OCwxLjA3MzIsMi45MjgyLDEuMzE2OS42NTMzLjEzMjgsMS4xNTE5LjM0ODYsMS41Njg0LjY3OTIuOTgwNS43Nzg4LDEuMjI5LDIuMDI4OC42MzQzLDMuMTg0MS0uMTI3NC4yNDYxLS4yODM3LjQ3MTctLjQ0MjQuNjg3NS41NTUyLjIyMzYsMS4wMjI5LjU2MTUsMS4zOTg0LDEuMDA4OC4xODEyLS4yNS4zMDM3LS41MjY0LjM3NzQtLjg0NDcuMTM1My0uNTg3OS4xMTU3LTEuMjA0MS0uMDYxLTEuODgyOC0uMDc1Mi0uMjktLjAzNzEtLjU4MjUuMTA4NC0uODIyOC4xMzgyLS4yMjguMzU5OS0uMzg3Mi42MjQ1LS40NDg3LjUxNjEtLjExODcsMS4wMzI3LjIyMDIsMS4xODAyLjc3MjUuMDY0NS4yNDQxLjEyNzQuNDg4My4xNjQxLjczNjMuMTI4NC44ODA5LjA1MjcsMS43NDEyLS4yMjUxLDIuNTU1Ny0uMzMwMS45Njc4LTEuMDA2MywxLjc2MjctMi4wNjg0LDIuNDMwNy0uNTQ4My4zNDQ3LS44Nzc5Ljc2OTUtMS4wMDgzLDEuMjk4OC0uMTQ4OS42MDY0LjAzMTIsMS4wMTc2LjUzNTYsMS4yMjM2LjEyNS4wNDk4LjI4NzEuMDc1Mi40NTkuMTAxNmwuMjMxNC4wMzgxYy41OTM4LjEwOTQuOTQ0OC41MzMyLjg5NCwxLjA4MDEtLjA0NzkuNTE5NS0uNDg1NC44ODA5LTEuMDY1OS44ODA5WiIgY2xhc3M9ImNscy0xIi8+JiN4YTsgICAgICAgIDxwYXRoIGQ9Ik0zMy45NjEzLDQxLjQ1NTNjLS42MjM5LS4xMTE3LTEuMjE5MS0uMzg5LTEuNjkzNS0uODY5OC0uNjQ5Ny0uNjYtLjg5MTMtMS40MTU3LS43MTctMi4yNDQ2LjE4NTEtLjg4MzYuNzYtMS41MDY4LDEuNjYzLTEuODAxNC4zMDk2LS4xMDAzLjY0OS0uMDQ1NS45MDg2LjE1NTguMjU4Mi4xOTguNDAxNi41MTA1LjM4NDIuODM0Ny0uMDMyLjU5OTUtLjUzMDguODE5Ni0uNzQ0Mi45MTQ0LS4xNjkuMDczOS0uMjc0MS4xOS0uMjk1NS4zMjYxcy4wNDM2LjI4MjYuMTc5Ni40MDQyYy4zNzI4LjMzMzcuODE3Mi40MzkxLDEuMzU0NS4zMjUuNzU4Mi0uMTYxOCwxLjE5OTctLjUzMzIsMS4zNS0xLjEzNDIuMjk0OC0xLjE4NjMtLjAwMzUtMi4xMDE5LS45MTE5LTIuNzk2NC0uMzg0OC0uMjk0MS0uNzc5Ni0uNTc3Mi0xLjE3NDQtLjg2MDItLjM2MzEtLjI2MDUtLjcyNjMtLjUyLTEuMDgxOS0uNzg5MS0uNzUwNy0uNTY3LTEuMzA0Ni0xLjE2MDMtMS42OTM4LTEuODEyNC0uMjgyLS40NzUxLS4xODI1LTEuMDQxNy4yMzY5LTEuMzQ3NS40NTE1LS4zMzAzLDEuMDA2LS4yMzgsMS4zNzguMjI3NS4wNTkxLjA3NDYuMTEzOS4xNTA0LjE2OTcuMjI2OC4wNjI5LjA4NjcuMTI0Ny4xNzM2LjE5NDYuMjU0MS4wMTE2LjAxMjUuMDIyMy4wMjUzLjAzMzkuMDM3OC4yODExLS42OTQyLjY5OTYtMS4yOTY5LDEuMjY0Ny0xLjgyMDctLjUxOTMtLjM1NzQtLjk1NDUtLjgyNDgtMS4zMjU3LTEuNDIyLS4yODE5LS40NTMzLS4xNjg2LTEuMDAzLjI2OTctMS4zMDY0LjQzLS4yOTYuOTUxMi0uMjMxNCwxLjMwMjMuMTU2OS4wNTguMDY0LjExMDQuMTM2OC4xNjE4LjIxbC4wNjI4LjA4NzFjLjU0NDEuNzEyMSwxLjIyMDgsMS4wODI4LDIuMDE1OCwxLjEwMzIuMjk4MS4wMDgzLjY1MzQtLjA2NCwxLjA1NjQtLjIxNTEsMS4zNTM4LS41MDcsMi41MDA0LS41NjY2LDMuNjE1NS0uMTg5NywxLjExMi4zNzczLDEuODU4OCwxLjA4NzksMi4yMTkxLDIuMTExOC4zMzMyLjk0ODEuMzAwNywxLjkyMTUtLjA5MzYsMi44OTMxLS40MzM5LDEuMDcxMS0xLjEzMjYsMS44MDkxLTIuMDc0NCwyLjE5My0xLjA2MzUuNDMxNi0yLjE2OTkuMzI3Ni0zLjI4Ni0uMzAzOS0uNTM3Ny0uMzA0Ny0uOTQ3NS0uODQ3My0xLjEyMTUtMS40ODc2LS4xNzI5LS42MzUyLS4wOTg1LTEuMjk5OS4yMDQ1LTEuODIzMS4yNDc5LS40MzEzLjc1MDItLjYyNjYsMS4xOTktLjQ1MTQuNDUwNS4xNzEuNzA1Ni42NDY4LjYwNiwxLjEzMDktLjAxMjYuMDY0Ny0uMDM0LjEyODgtLjA1NTQuMTkzLS4xMjUyLjQ5OTQuMDQ0Mi42MTcxLjExNzUuNjY3OS40OTQzLjM0NzUsMS4wMDA2LjQ0MDEsMS41MDM5LjI3MjQuNjY5NS0uMjIwNCwxLjE3NDUtLjk2ODIsMS4yMjg2LTEuODE4Ny4wNjI4LS45ODc4LS4zNDgxLTEuMzM1Ny0uNjYyOC0xLjUxMTYtLjY3OTktLjM4MDctMS40MjM1LS40NDQtMi4yMS0uMTkwNWwtLjE0ODUuMDQ3OGMtLjYyMDIuMjAwNC0xLjI2MjYuNDA3OC0xLjkyOTguNDk5MS0xLjEzNTEuMTU1OC0yLjE0NDUsMS4yMjE2LTIuMjUxMSwyLjM3NjIuMTg1Ny4xMjY1LjM3NjMuMjU4OS41NTQzLjQwNTkuMTQ3MS4xMjA2LjI5NjYuMjM4Ni40NDY4LjM1NzguNDA5NC4zMjMzLjgzMzUuNjU4MywxLjIxMjQsMS4wNDY2LjY3MDkuNjg1NywxLjAwODEsMS42MTEyLDEuMDI5LDIuODI5My4wMjY0LDEuNDkxOS0uNTUzMywyLjYyOTItMS43MjM5LDMuMzgxOC0uNzQ1My40Nzc2LTEuNzY5LjY5ODEtMi43MjgzLjUyNjJaIiBjbGFzcz0iY2xzLTEiLz4mI3hhOyAgICAgIDwvZz4mI3hhOyAgICA8L2c+JiN4YTsgICAgPGcgaWQ9IlRvbm5lX091dGxpbmUiPiYjeGE7ICAgICAgPHBhdGggZD0iTTQ1LjIzMDUsNTMuMTY1Yy0zLjgxNzQsMC03LjkyNTgtMS4zNjkxLTcuOTI1OC00LjM3NXYtMTAuMTc5N2MwLS4wNTY2LDAtLjE1NzIuMDE4Ni0uMjgzMi4yNTk4LTIuODExNSw0LjI2NDYtNC4wOTI4LDcuOTA3Mi00LjA5MjgsMy42NDc1LDAsNy42NTYyLDEuMjgxMiw3LjkxNiw0LjA5MjguMDE4Ni4xMjYuMDE4Ni4yMjY2LjAxODYuMjgzMnYxMC4xNzk3YzAsMy4wMDU5LTQuMTEzMyw0LjM3NS03LjkzNDYsNC4zNzVaIiBjbGFzcz0iY2xzLTMiLz4mI3hhOyAgICA8L2c+JiN4YTsgICAgPGcgaWQ9IlRvbm5lIj4mI3hhOyAgICAgIDxwYXRoIGQ9Ik01MS44OCwzOC40OWMtLjEzLTEuOTMtMy40OC0yLjk4LTYuNjUtMi45OC0zLjE2LDAtNi41MSwxLjA1LTYuNjQsMi45OC0uMDEuMDQtLjAxLjA4LS4wMS4xMnYxMC4xOGMwLDIuMDEsMy40MywzLjEsNi42NSwzLjEsMy4yMywwLDYuNjYtMS4wOSw2LjY2LTMuMXYtMTAuMThjMC0uMDQsMC0uMDgtLjAxLS4xMlpNNTAuNjQsNDguNzljMCwuNzUtMi4xMSwxLjg1LTUuNDEsMS44NXMtNS40LTEuMS01LjQtMS44NXYtMS40M2MuOTcuNTQsMi42NiwxLjEzLDUuNCwxLjEzLDIuNzcsMCw0LjQ1LS41OCw1LjQxLTEuMTJ2MS40MlpNNTAuNjQsNDUuODVjLS40Mi4zNi0xLjksMS4zOS01LjQxLDEuMzktMy40OCwwLTQuOTctMS4wMS01LjQtMS4zOHYtMS44OWMuOTcuNTQsMi42NiwxLjEzLDUuNCwxLjEzLDIuNzcsMCw0LjQ1LS41OCw1LjQxLTEuMTJ2MS44N1pNNTAuNjQsNDIuNDZjLS40Mi4zNi0xLjksMS4zOS01LjQxLDEuMzktMy40OCwwLTQuOTctMS4wMS01LjQtMS4zOHYtMmMxLjI4LjgyLDMuMzgsMS4yNSw1LjQsMS4yNXM0LjEzLS40Myw1LjQxLTEuMjV2MS45OVpNNDUuMjMsNDAuNDdjLTMuMywwLTUuNC0xLjEtNS40LTEuODYsMC0uNzUsMi4xLTEuODUsNS40LTEuODVzNS40MSwxLjEsNS40MSwxLjg1YzAsLjc2LTIuMTEsMS44Ni01LjQxLDEuODZaIiBjbGFzcz0iY2xzLTEiLz4mI3hhOyAgICA8L2c+JiN4YTsgIDwvZz4mI3hhOzwvc3ZnPg==;" vertex="1" parent="1">
          <mxGeometry x="600" y="280" width="160" height="160" as="geometry" />
        </mxCell>
        <mxCell id="d-CWmxk7Mh6oMbrWVQdX-23" value="" style="shape=image;verticalLabelPosition=bottom;verticalAlign=top;imageAspect=0;aspect=fixed;image=data:image/svg+xml,PHN2ZyB4bWxucz0iaHR0cDovL3d3dy53My5vcmcvMjAwMC9zdmciIHZpZXdCb3g9IjAgMCA2Mi4zNjIyIDYyLjM2MjIiIHZlcnNpb249IjEuMSI+JiN4YTsgIDxkZWZzPiYjeGE7ICAgIDxzdHlsZT4mI3hhOyAgICAgIC5jbHMtMSB7JiN4YTsgICAgICAgIGZpbGw6ICNmNmZiZmY7JiN4YTsgICAgICB9JiN4YTsmI3hhOyAgICAgIC5jbHMtMiB7JiN4YTsgICAgICAgIGZpbGw6ICNmZmY7JiN4YTsgICAgICB9JiN4YTsmI3hhOyAgICAgIC5jbHMtMyB7JiN4YTsgICAgICAgIGZpbGw6ICNkYTI5MWM7JiN4YTsgICAgICB9JiN4YTsgICAgPC9zdHlsZT4mI3hhOyAgPC9kZWZzPiYjeGE7ICAmI3hhOyAgPGc+JiN4YTsgICAgPGcgaWQ9IkViZW5lXzIiPiYjeGE7ICAgICAgPHBhdGggZD0iTTMxLjMxNDksNjIuMzYyMkMxMy40ODI4LDYyLjM2MjIsMCw0Ny41OTA1LDAsMzEuMzE0OCwwLDEyLjYzMjksMTUuNTU3MSwwLDMxLjA4MDcsMGMxOC42MDE2LDAsMzEuMjgxNSwxNS4zMzk5LDMxLjI4MTUsMzAuOTQ3MiwwLDE5LjA0OTUtMTUuNjU3NSwzMS40MTUtMzEuMDQ3MywzMS40MTVoMFoiIGNsYXNzPSJjbHMtMyIvPiYjeGE7ICAgICAgPGc+JiN4YTsgICAgICAgIDxnPiYjeGE7ICAgICAgICAgIDxwYXRoIGQ9Ik00Mi45MDM0LDM2LjAxOTVoLTkuOTAxNGMtLjU1MjcsMC0xLS40NDczLTEtMXMuNDQ3My0xLDEtMWg4LjQ1OTFjLjE4MTksMCwuMzI1OS0uMTY4LjI5MzgtLjM0NzEtLjcwMTgtMy45MTUzLTMuNzAwOS02Ljc4MDItOC4yNTk2LTcuNzkwMS0uNDI2OC0uMDk0Ny0uNzQyMi0uNDU0Ni0uNzgwMy0uODg5Mi0uMDM3OC0uNDMwOS4yMDU3LS44MzY4LjYwMy0xLjAwNjksMS4wMzQ2LS40NDMsMi4wMjU5LTEuMDIzLDIuNTkwNy0xLjk5NjUsMi43NjE4LTQuNzYwNC0xLjE0MjYtOS42Njg3LTUuODA4Ni04LjgyMDItMi4xMzYyLjM4ODUtMy45MTI5LDIuMDM3MS00LjQzNiw0LjE0NDQtLjcwNTcsMi44NDI2Ljc2MzcsNS42MDYzLDMuMzIzOCw2LjY2OC40MDI4LjE2NzUuNjUwOS41NzY3LjYxMjgsMS4wMTEycy0uMzUzNS43OTQ0LS43Nzk4Ljg4OTJjLTMuOTM4Ljg3MjEtNi41MjE1LDIuNzg1Ni03LjY3OTcsNS42ODc1LS4yMDQ2LjUxMjItLjc4NTIuNzY1MS0xLjI5OTMuNTU4MS0uNTEzMi0uMjA0Ni0uNzYyNy0uNzg2Ni0uNTU4MS0xLjI5OTMsMS4xNzYzLTIuOTQ3OCwzLjQ4NDktNS4wNDc5LDYuODc3LTYuMjYyNy0yLjA0LTEuNzQ2MS0zLjA4MjctNC40OTk3LTIuNTIzNi03LjM1NDMuNTk0My0zLjAzNDQsMy4wNjU1LTUuNDY1NSw2LjEwODktNi4wMTE2LDQuODQ3Mi0uODY5Nyw5LjA4MjEsMi44NTE3LDkuMDgyMSw3LjU0MzYsMCwyLjI5NTktMS4wMTE3LDQuNDEyMS0yLjY5NzMsNS44NDI4LDQuNjYzMSwxLjc3OTgsNy41ODExLDUuNjA2OSw3Ljc3MTUsMTAuMzkzMS4wMTA3LjI3MjUtLjA4OTguNTM3MS0uMjc4My43MzM0LS4xODg1LjE5NTMtLjQ0ODIuMzA2Ni0uNzIwNy4zMDY2WiIgY2xhc3M9ImNscy0xIi8+JiN4YTsgICAgICAgICAgPHBhdGggZD0iTTIzLjQ5MDgsNDguNzgyMmMtMS4xMTc3LDAtMi4yMjU2LS4yNzE1LTMuMjQ0MS0uODA3Ni0xLjY2Ny0uODc3LTIuODg1Ny0yLjM1NDUtMy40MzIxLTQuMTU5Mi0uNTQ3NC0xLjgwNzYtLjMwMTMtMy44MTE1LjY3NDgtNS40OTcxLjk3ODUtMS42OTA0LDIuNTk4MS0yLjkwNDMsNC40NDQ4LTMuMzMxMSwzLjM2OTEtLjc3NDQsNi44MTEsMS4wNDc5LDguMDY2OSw0LjI1NDloMTEuMzkxNmMuNjM1MSwwLDEuMjQ0Mi4yNTE5LDEuNjkzNy43MDA1bC40NzUzLjQ3NDNjLjc2MS43NTk1Ljc2MTcsMS45OTIyLjAwMTQsMi43NTI1bC0uNTIxLjUyMWMtLjQxOTYuNDE5Ni0uOTg4Ni42NTUzLTEuNTgyLjY1NTNoLS4zNTg1bC0xLjExMzQsMS4xMTM0Yy0uMDYwNC4wNjA0LS4xNTgyLjA2MDQtLjIxODYsMGwtMS4xMTM0LTEuMTEzNGgtLjEyNWwtMS4xMjE1LDEuMTIyNGMtLjA1NTMuMDU1My0uMTQ1LjA1NTQtLjIwMDMsMGwtMS4xMjI1LTEuMTIyNWgtLjEyNWwtMS4xMTcsMS4xMTg3Yy0uMDU3My4wNTc0LS4xNTAzLjA1NzUtLjIwNzcuMDAwMmwtMS4wNzk3LTEuMDc3OS0uMDk5Mi0uMDQxLTMuNDU4LjAwMWMtLjc3MiwxLjk2ODgtMi4zNjI4LDMuNDYtNC4zODQ4LDQuMTAzNS0uNjk4Mi4yMjE3LTEuNDEzNi4zMzItMi4xMjUuMzMyWk0yMy40OTg2LDM2LjA1ODZjLS40MjQ4LDAtLjg1NDUuMDQ3OS0xLjI4MzIuMTQ3NS0xLjUxMDMuMzQ4Ni0yLjgzODksMS4zNDY3LTMuNjQ0NSwyLjczODMtLjgwMzIsMS4zODc3LTEuMDA3MywzLjAzMTItLjU2MDEsNC41MDk4LjQ0ODcsMS40ODE0LDEuNDQ5MiwyLjY5NDMsMi44MTc5LDMuNDE0MSwxLjM2ODcuNzIwNywyLjkzNDEuODU5NCw0LjQwODIuMzkwNiwxLjY5NjMtLjUzOTEsMy4wMjI5LTEuODA1NywzLjY0MDEtMy40NzM2LjE1MTQtLjQxMTEuNTQ0NC0uNjg4NS45Nzc1LS42ODg1bDMuNjA2NC0uMDAxYy4zNzExLDAsLjcxOTcuMTQ0NS45ODE0LjQwODJsLjI5NjkuMjk2OS43MDUxLS43MDUxaDEuMTYwMmwuNzA1MS43MDUxLjcwNDEtLjcwNTFoMS4xNjAybC43MDUxLjcwNTEuNzA1MS0uNzA1MWguODc1Yy4yNjM3LDAsLjUxMTctLjEwMjUuNjk4Mi0uMjlsLjUyMDUtLjUyMDVjLjI3MTUtLjI3MDUuMjcxNS0uNzExOSwwLS45ODQ0bC0uNDcyNy0uNDcxN2MtLjIxNjgtLjIxNzgtLjUwNDktLjMzNjktLjgxMjUtLjMzNjloLTExLjUzNzZjLS40MzMxLDAtLjgyNjctLjI3NzMtLjk3ODUtLjY5MDQtLjg0NDItMi4yODQyLTMuMDI3OC0zLjc0MzItNS4zNzc5LTMuNzQzMloiIGNsYXNzPSJjbHMtMiIvPiYjeGE7ICAgICAgICA8L2c+JiN4YTsgICAgICAgIDxwYXRoIGQ9Ik0yMi41NTYyLDQyLjgwODRjLS41NjAzLjU2MDMtMS40Njg4LjU2MDMtMi4wMjksMHMtLjU2MDMtMS40Njg4LDAtMi4wMjkxLDEuNDY4Ny0uNTYwMywyLjAyOSwwYy41NjAzLjU2MDMuNTYwMywxLjQ2ODgsMCwyLjAyOTFaIiBjbGFzcz0iY2xzLTIiLz4mI3hhOyAgICAgIDwvZz4mI3hhOyAgICA8L2c+JiN4YTsgIDwvZz4mI3hhOzwvc3ZnPg==;" vertex="1" parent="1">
          <mxGeometry x="50" y="450" width="62" height="62" as="geometry" />
        </mxCell>
        <mxCell id="d-CWmxk7Mh6oMbrWVQdX-24" value="" style="shape=image;verticalLabelPosition=bottom;verticalAlign=top;imageAspect=0;aspect=fixed;image=data:image/svg+xml,PHN2ZyB4bWxucz0iaHR0cDovL3d3dy53My5vcmcvMjAwMC9zdmciIHZpZXdCb3g9IjAgMCA2Mi4zNjIyIDYyLjM2MjIiIHZlcnNpb249IjEuMSI+JiN4YTsgIDxkZWZzPiYjeGE7ICAgIDxzdHlsZT4mI3hhOyAgICAgIC5jbHMtMSB7JiN4YTsgICAgICAgIGZpbGw6ICNmZmY7JiN4YTsgICAgICB9JiN4YTsmI3hhOyAgICAgIC5jbHMtMiB7JiN4YTsgICAgICAgIGZpbGw6ICNkYTI5MWM7JiN4YTsgICAgICB9JiN4YTsgICAgPC9zdHlsZT4mI3hhOyAgPC9kZWZzPiYjeGE7ICAmI3hhOyAgPGc+JiN4YTsgICAgPGcgaWQ9IkViZW5lXzQiPiYjeGE7ICAgICAgPHBhdGggZD0iTTMxLjMxNDksNjIuMzYyMkMxMy40ODI4LDYyLjM2MjIsMCw0Ny41OTA1LDAsMzEuMzE0OCwwLDEyLjYzMjksMTUuNTU3MSwwLDMxLjA4MDcsMGMxOC42MDE2LDAsMzEuMjgxNSwxNS4zMzk5LDMxLjI4MTUsMzAuOTQ3MiwwLDE5LjA0OTUtMTUuNjU3NSwzMS40MTUtMzEuMDQ3MywzMS40MTVoMFoiIGNsYXNzPSJjbHMtMiIvPiYjeGE7ICAgICAgPHBhdGggZD0iTTQzLjI5LDQzLjQ4NjNoLTIzLjUzMTdjLS41NTIyLDAtMS0uNDQ3My0xLTEsMC01LjE2NiwzLjE4NTUtOS44MDQ3LDcuODMxNS0xMS43NjU2LTEuNzA5LTEuNDMxMi0yLjczNjMtMy41NjItMi43MzYzLTUuODc1NSwwLTIuMDY5OC44MTItNC4wMDk4LDIuMjg2MS01LjQ2MjksMS40NzM2LTEuNDUzMSwzLjQxOTktMi4yNDgsNS40OTc2LTIuMjA3LDQuMDkwMy4wNTk2LDcuNDgsMy40MzU1LDcuNTU2Miw3LjUyNTkuMDQzLDIuMzc0NS0uOTg1NCw0LjU2MDUtMi43MzM0LDYuMDIwNSw0LjY0NTUsMS45NjE5LDcuODMwMSw2LjU5OTYsNy44MzAxLDExLjc2NDYsMCwuNTUyNy0uNDQ3MywxLTEsMVpNMjEuMTM3LDQxLjQ4NjNoMjAuNzc0OGMuMTc1NiwwLC4zMTY4LS4xNTYuMjk0Ny0uMzMwMi0uNTYzMS00LjQzOTctMy44OTk0LTguMTg4My04LjM0NTItOS4xNzI3LS40MjY4LS4wOTQ3LS43NDIyLS40NTQxLS43ODAzLS44ODkyLS4wMzgxLS40MzQzLjIwOTYtLjg0MzEuNjEyNC0xLjAxMDguNzI1OC0uMzAyMSwxLjM5OTUtLjczNiwxLjkxNzMtMS4zMjc1LDMuNzEyNS00LjI0MDcuMjg3NC05LjUxODYtNC4wMDI5LTkuNTgwNi0xLjU0MzUtLjAyMDUtMi45NzUxLjU1NjYtNC4wNjQ1LDEuNjMxMy0xLjgzNjUsMS44MTAyLTIuMjgyMyw0LjY0MjMtLjgwOTMsNy4yMzQ2LjU2NzQuOTk4NSwxLjU4MjUsMS41ODk2LDIuNjM1MywyLjA0ODYuMzkzNS4xNzE1LjYzNDUuNTc1Ni41OTY5LDEuMDA0NS0uMDM4MS40MzUxLS4zNTQuNzk0NC0uNzc5OC44ODkyLTQuNDQ1OS45ODQ1LTcuNzgxNyw0LjczMzEtOC4zNDQzLDkuMTcyOC0uMDIyMS4xNzQyLjExOTIuMzMwMi4yOTQ3LjMzMDJaIiBjbGFzcz0iY2xzLTEiLz4mI3hhOyAgICAgIDxnPiYjeGE7ICAgICAgICA8cGF0aCBkPSJNMTguMjMyNCwzNS4xMTEzaC00LjM4ODJjLTEuNjEyOCwwLTIuOTI1My0xLjMxMjUtMi45MjUzLTIuOTI1OHYtNy40MzQ2YzAtMS42MTMzLDEuMzEyNS0yLjkyNTgsMi45MjUzLTIuOTI1OGg3LjI1MjRjLjM0NTIsMCwuNjI1LjI3OTguNjI1LjYyNXMtLjI3OTguNjI1LS42MjUuNjI1aC03LjI1MjRjLS45MjM4LDAtMS42NzUzLjc1Mi0xLjY3NTMsMS42NzU4djcuNDM0NmMwLC45MjM4Ljc1MTUsMS42NzU4LDEuNjc1MywxLjY3NThoNC4zODgyYy4zNDUyLDAsLjYyNS4yODAzLjYyNS42MjVzLS4yNzk4LjYyNS0uNjI1LjYyNVoiIGNsYXNzPSJjbHMtMSIvPiYjeGE7ICAgICAgICA8cGF0aCBkPSJNMTYuOTczNiwzOC41NDU5aC0xLjYyODljLS4zNDUyLDAtLjYyNS0uMjgwMy0uNjI1LS42MjVzLjI3OTgtLjYyNS42MjUtLjYyNWgxLjYyODljLjM0NTIsMCwuNjI1LjI4MDMuNjI1LjYyNXMtLjI3OTguNjI1LS42MjUuNjI1WiIgY2xhc3M9ImNscy0xIi8+JiN4YTsgICAgICA8L2c+JiN4YTsgICAgICA8cGF0aCBkPSJNNTAuODE4NCwzOC41MjkzaC0zLjU2OTNjLS4zNDQ3LDAtLjYyNS0uMjgwMy0uNjI1LS42MjVzLjI4MDMtLjYyNS42MjUtLjYyNWgyLjYwNTFjLjE2MzcsMCwuMjk2Ny0uMTQ2Ni4yNzQtLjMwODgtLjM5MDMtMi43ODc1LTIuNDk4NS01LjEzMDUtNS4yOTktNS43NTA4LS4yNjY2LS4wNTkxLS40NjM5LS4yODQyLS40ODgzLS41NTU3LS4wMjM0LS4yNzE1LjEzMTgtLjUyNzMuMzgzOC0uNjMxOCwxLjM1NDUtLjU2MjUsMi4yMzA1LTEuODcyNiwyLjIzMDUtMy4zMzg5LDAtMS45OTI3LTEuNjIxMS0zLjYxMzgtMy42MTMzLTMuNjEzOC0uMjEyOSwwLS43MTI5LDAtMS4yODQyLjI4MDgtLjMwNTcuMTUxOS0uNjg0Ni4wMjQ5LS44MzU5LS4yODUyLS4xNTIzLS4zMTAxLS4wMjU0LS42ODQ2LjI4NTItLjgzNjkuODMxMS0uNDA4NywxLjU2MDUtLjQwODcsMS44MzUtLjQwODcsMi42ODE2LDAsNC44NjMzLDIuMTgxNiw0Ljg2MzMsNC44NjM4LDAsMS40NzMxLS42NTYyLDIuODI5Ni0xLjc0OCwzLjczNzMsMi45NjQ0LDEuMjQzOCw0Ljk5NjQsNC4yMDQyLDQuOTg2Myw3LjQ5ODItLjAwMS4zMzUyLS4yODk4LjYwMDQtLjYyNS42MDA0WiIgY2xhc3M9ImNscy0xIi8+JiN4YTsgICAgPC9nPiYjeGE7ICA8L2c+JiN4YTs8L3N2Zz4=;" vertex="1" parent="1">
          <mxGeometry x="130" y="450" width="62" height="62" as="geometry" />
        </mxCell>
        <mxCell id="d-CWmxk7Mh6oMbrWVQdX-25" value="" style="shape=image;verticalLabelPosition=bottom;verticalAlign=top;imageAspect=0;aspect=fixed;image=data:image/svg+xml,PHN2ZyB4bWxucz0iaHR0cDovL3d3dy53My5vcmcvMjAwMC9zdmciIHZpZXdCb3g9IjAgMCA2Mi4zNjIyIDYyLjM2MjIiIHZlcnNpb249IjEuMSI+JiN4YTsgIDxkZWZzPiYjeGE7ICAgIDxzdHlsZT4mI3hhOyAgICAgIC5jbHMtMSB7JiN4YTsgICAgICAgIGZpbGw6ICNmNmZiZmY7JiN4YTsgICAgICB9JiN4YTsmI3hhOyAgICAgIC5jbHMtMiB7JiN4YTsgICAgICAgIGZpbGw6ICNmZmY7JiN4YTsgICAgICB9JiN4YTsmI3hhOyAgICAgIC5jbHMtMyB7JiN4YTsgICAgICAgIGZpbGw6ICNkYTI5MWM7JiN4YTsgICAgICB9JiN4YTsmI3hhOyAgICAgIC5jbHMtNCB7JiN4YTsgICAgICAgIGRpc3BsYXk6IG5vbmU7JiN4YTsgICAgICAgIGZpbGw6IG5vbmU7JiN4YTsgICAgICAgIHN0cm9rZTogI2ZmZjsmI3hhOyAgICAgICAgc3Ryb2tlLWxpbmVqb2luOiByb3VuZDsmI3hhOyAgICAgICAgc3Ryb2tlLXdpZHRoOiAycHg7JiN4YTsgICAgICB9JiN4YTsgICAgPC9zdHlsZT4mI3hhOyAgPC9kZWZzPiYjeGE7ICAmI3hhOyAgPGc+JiN4YTsgICAgPGcgaWQ9IkViZW5lXzIiPiYjeGE7ICAgICAgPHBhdGggZD0iTTIyLjQ4MjMsMjEuMDI1M2MtLjc0OC0uNjYzLS45NzM5LS41NTUtMi4wNTItLjU1NS0yLjM0MTEsMC00LjIzODgsMS44OTc4LTQuMjM4OCw0LjIzODksMCwxLjc2NjEsMS4wODA2LDMuMjc4NiwyLjYxNjEsMy45MTU4LTMuMzQ4MS43NDE3LTUuODU0MiwzLjcyMzYtNS44NTQyLDcuMjk1MWg0LjA4MTciIGNsYXNzPSJjbHMtNCIvPiYjeGE7ICAgICAgPHBhdGggZD0iTTMxLjMxNDksNjIuMzYyMkMxMy40ODI4LDYyLjM2MjIsMCw0Ny41OTA1LDAsMzEuMzE0OCwwLDEyLjYzMjksMTUuNTU3MSwwLDMxLjA4MDcsMGMxOC42MDE2LDAsMzEuMjgxNSwxNS4zMzk5LDMxLjI4MTUsMzAuOTQ3MiwwLDE5LjA0OTUtMTUuNjU3NSwzMS40MTUtMzEuMDQ3MywzMS40MTVoMFoiIGNsYXNzPSJjbHMtMyIvPiYjeGE7ICAgICAgPGc+JiN4YTsgICAgICAgIDxwYXRoIGQ9Ik00My4wMTE0LDQzLjYyODdoLTIzLjUzMTdjLS41NTIyLDAtMS0uNDQ3My0xLTEsMC01LjE2NiwzLjE4NTUtOS44MDQ3LDcuODMxNS0xMS43NjU2LTEuNzA5LTEuNDMxMi0yLjczNjMtMy41NjItMi43MzYzLTUuODc1NSwwLTIuMDY5OC44MTItNC4wMDk4LDIuMjg2MS01LjQ2MjksMS40NzM2LTEuNDUzMSwzLjQxOC0yLjI0OCw1LjQ5NzYtMi4yMDcsNC4wOTAzLjA1OTYsNy40OCwzLjQzNTUsNy41NTYyLDcuNTI1OS4wNDMsMi4zNzQ1LS45ODU0LDQuNTYwNS0yLjczMzQsNi4wMjA1LDQuNjQ1NSwxLjk2MTksNy44MzAxLDYuNTk5Niw3LjgzMDEsMTEuNzY0NiwwLC41NTI3LS40NDczLDEtMSwxWk0yMC44NDM4LDQxLjYyODdoMjAuODAzOWMuMTY3OCwwLC4zMDI5LS4xNDkyLjI4Mi0uMzE1Ny0uNTU3Ni00LjQ0Ni0zLjg5NjQtOC4yMDE2LTguMzQ3LTkuMTg3Mi0uNDI2OC0uMDk0Ny0uNzQyMi0uNDU0Ni0uNzgwMy0uODg5Mi0uMDM4MS0uNDM0My4yMDk2LS44NDMxLjYxMjQtMS4wMTA4LjcyNTgtLjMwMjEsMS4zOTk1LS43MzYsMS45MTczLTEuMzI3NSwzLjcxMjUtNC4yNDA3LjI4NzQtOS41MTg2LTQuMDAyOS05LjU4MDYtMS41MjI1LS4wMjA1LTIuOTc0Ni41NTY2LTQuMDY0NSwxLjYzMTMtMS44MzY1LDEuODEwMi0yLjI4MjMsNC42NDIzLS44MDkzLDcuMjM0Ni41Njc0Ljk5ODUsMS41ODI1LDEuNTg5NiwyLjYzNTMsMi4wNDg2LjM5MzUuMTcxNS42MzQ1LjU3NTYuNTk2OSwxLjAwNDUtLjAzODEuNDM0Ni0uMzU0Ljc5NDQtLjc3OTguODg5Mi00LjQ1MDcuOTg1NS03Ljc4OSw0Ljc0MTItOC4zNDYxLDkuMTg3Mi0uMDIwOS4xNjY1LjExNDIuMzE1Ny4yODIuMzE1N1oiIGNsYXNzPSJjbHMtMSIvPiYjeGE7ICAgICAgICA8cGF0aCBkPSJNNDkuOTcyNCwzOC42NzE3aC0yLjcxODhjLS4zNDQ3LDAtLjYyNS0uMjgwMy0uNjI1LS42MjVzLjI4MDMtLjYyNS42MjUtLjYyNWgxLjc0MTRjLjE3MDcsMCwuMzA5My0uMTUyOC4yODUzLS4zMjE4LS4zOTUxLTIuNzgxOC0yLjUwMS01LjExODUtNS4yOTYyLTUuNzM3OC0uMjY2Ni0uMDU5MS0uNDYzOS0uMjg0Mi0uNDg4My0uNTU1Ny0uMDIzNC0uMjcxNS4xMzE4LS41MjczLjM4MzgtLjYzMTgsMS4zNTQ1LS41NjI1LDIuMjMwNS0xLjg3MywyLjIzMDUtMy4zMzg5LDAtMS45OTI3LTEuNjIxMS0zLjYxMzgtMy42MTQzLTMuNjEzOC0uMjA1MSwwLS40MDYyLjAxNzYtLjYwMDYuMDUxOC0uMzM1LjA1OTEtLjY2MzEtLjE2NzUtLjcyMjctLjUwODMtLjA1OTYtLjMzOTguMTY4LS42NjM2LjUwNzgtLjcyMzEuMjY3Ni0uMDQ2OS41NDItLjA3MDMuODE1NC0uMDcwMywyLjY4MjYsMCw0Ljg2NDMsMi4xODE2LDQuODY0Myw0Ljg2MzgsMCwxLjQ3MzEtLjY1NzIsMi44MjkxLTEuNzQ5LDMuNzM3MywyLjk2NDQsMS4yNDMzLDQuOTk2NCw0LjIwNDIsNC45ODYzLDcuNDk4Mi0uMDAxLjMzNTItLjI4OTguNjAwNC0uNjI1LjYwMDRaIiBjbGFzcz0iY2xzLTIiLz4mI3hhOyAgICAgICAgPHBhdGggZD0iTTE1LjEwOTEsMzguNjcxN2gtMi43MTkyYy0uMzM1MiwwLS42MjM5LS4yNjUyLS42MjUtLjYwMDQtLjAxMDItMy4yOTQsMi4wMjE5LTYuMjU0OSw0Ljk4NjgtNy40OTgyLTEuMDkxOC0uOTA3Ny0xLjc0ODUtMi4yNjQyLTEuNzQ4NS0zLjczNzMsMC0yLjY4MjEsMi4xODE2LTQuODYzOCw0Ljg2MzgtNC44NjM4LjI3MzQsMCwuNTQ3OS4wMjM0LjgxNTkuMDcwMy4zMzk4LjA1OTEuNTY3NC4zODI4LjUwODMuNzIzMS0uMDU5MS4zMzk0LS4zODA0LjU2NDktLjcyMzEuNTA4My0uMzk1LS4wNjkzLS44MTQtLjA3MDQtMS4yNDkuMDA1LTEuMzMyNy4yMzA3LTIuNDY1MywxLjI0LTIuODI2MywyLjU0MzUtLjUxMTYsMS44NDcuNDI4OCwzLjY2MjUsMi4wOTE1LDQuMzUyNC4yNTE1LjEwNDUuNDA2Ny4zNjA0LjM4MjguNjMxOHMtLjIyMTIuNDk2Ni0uNDg3My41NTU3Yy0yLjc5MTguNjE4NC00Ljg5NjQsMi45NDg3LTUuMjk1OCw1LjcyNDctLjAyNTMuMTc1OC4xMTkuMzM0OS4yOTY2LjMzNDloMS43Mjg3Yy4zNDUyLDAsLjYyNS4yODAzLjYyNS42MjVzLS4yNzk4LjYyNS0uNjI1LjYyNVoiIGNsYXNzPSJjbHMtMiIvPiYjeGE7ICAgICAgPC9nPiYjeGE7ICAgIDwvZz4mI3hhOyAgPC9nPiYjeGE7PC9zdmc+;" vertex="1" parent="1">
          <mxGeometry x="210" y="450" width="62" height="62" as="geometry" />
        </mxCell>
        <mxCell id="d-CWmxk7Mh6oMbrWVQdX-26" value="" style="shape=image;verticalLabelPosition=bottom;verticalAlign=top;imageAspect=0;aspect=fixed;image=data:image/svg+xml,PHN2ZyB4bWxucz0iaHR0cDovL3d3dy53My5vcmcvMjAwMC9zdmciIHZpZXdCb3g9IjAgMCA2Mi4zNjIyIDYyLjM2MjIiIHZlcnNpb249IjEuMSI+JiN4YTsgIDxkZWZzPiYjeGE7ICAgIDxzdHlsZT4mI3hhOyAgICAgIC5jbHMtMSB7JiN4YTsgICAgICAgIGZpbGw6ICNmNmZiZmY7JiN4YTsgICAgICB9JiN4YTsmI3hhOyAgICAgIC5jbHMtMiB7JiN4YTsgICAgICAgIGZpbGw6ICNmZmY7JiN4YTsgICAgICB9JiN4YTsmI3hhOyAgICAgIC5jbHMtMyB7JiN4YTsgICAgICAgIGZpbGw6IG5vbmU7JiN4YTsgICAgICAgIHN0cm9rZTogIzFkMWQxYjsmI3hhOyAgICAgICAgc3Ryb2tlLW1pdGVybGltaXQ6IDEwOyYjeGE7ICAgICAgICBzdHJva2Utd2lkdGg6IDEuMjVweDsmI3hhOyAgICAgIH0mI3hhOyYjeGE7ICAgICAgLmNscy00IHsmI3hhOyAgICAgICAgZmlsbDogI2RhMjkxYzsmI3hhOyAgICAgIH0mI3hhOyAgICA8L3N0eWxlPiYjeGE7ICA8L2RlZnM+JiN4YTsgICYjeGE7ICA8Zz4mI3hhOyAgICA8ZyBpZD0iRWJlbmVfMiI+JiN4YTsgICAgICA8cGF0aCBkPSJNMzEuMzE0OSw2Mi4zNjIyQzEzLjQ4MjgsNjIuMzYyMiwwLDQ3LjU5MDUsMCwzMS4zMTQ4LDAsMTIuNjMyOSwxNS41NTcxLDAsMzEuMDgwNywwYzE4LjYwMTYsMCwzMS4yODE1LDE1LjMzOTksMzEuMjgxNSwzMC45NDcyLDAsMTkuMDQ5NS0xNS42NTc1LDMxLjQxNS0zMS4wNDczLDMxLjQxNWgwWiIgY2xhc3M9ImNscy00Ii8+JiN4YTsgICAgPC9nPiYjeGE7ICAgIDxnIGlkPSJFYmVuZV8zIj4mI3hhOyAgICAgIDxnPiYjeGE7ICAgICAgICA8cGF0aCBkPSJNMzMuMTc1NCwzNi4wMjkyaC0xNi4zMzM0Yy0xLjcwMjEsMC0zLjA4NjktMS4zODQ4LTMuMDg2OS0zLjA4Njl2LTE1Ljc3MDVjMC0xLjcwMTcsMS4zODQ4LTMuMDg2NCwzLjA4NjktMy4wODY0aDIyLjE3MjljMS43MDIxLDAsMy4wODY5LDEuMzg0OCwzLjA4NjksMy4wODY0djguMzMxN2gxLjk3ODV2LTguMzMxN2MwLTIuNzkzLTIuMjcyNS01LjA2NDktNS4wNjU0LTUuMDY0OWgtMjIuMTcyOWMtMi43OTM1LDAtNS4wNjU0LDIuMjcyLTUuMDY1NCw1LjA2NDl2MTUuNzcwNWMwLDIuNzkzLDIuMjcyLDUuMDY1NCw1LjA2NTQsNS4wNjU0aDE2LjMzMzR2LTEuOTc4NVoiIGNsYXNzPSJjbHMtMSIvPiYjeGE7ICAgICAgICA8cGF0aCBkPSJNMzMuMTc1NSwzOS45OTg5aC0xMC4wNDMyYy0uNTUyNywwLTEuMDAxLjQ0ODItMS4wMDEsMS4wMDFzLjQ0ODIsMS4wMDEsMS4wMDEsMS4wMDFoMTAuMDQzMnYtMi4wMDJaIiBjbGFzcz0iY2xzLTEiLz4mI3hhOyAgICAgICAgPHBhdGggZD0iTTM3LjY5MzEsMjcuODc1Yy0xLjE3OTcsMC0yLjEzODcuOTU5NS0yLjEzODcsMi4xMzg3djE4LjEwM2MwLDEuMTc5Ny45NTksMi4xMzg3LDIuMTM4NywyLjEzODdoMTAuNzUyOWMxLjE3OTcsMCwyLjEzOTYtLjk1OSwyLjEzOTYtMi4xMzg3di0xOC4xMDNjMC0xLjE3OTItLjk2LTIuMTM4Ny0yLjEzOTYtMi4xMzg3aC0xMC43NTI5Wk00OC40NDYsNDkuMDA1NGgtMTAuNzUyOWMtLjQ5MDIsMC0uODg4Ny0uMzk4NC0uODg4Ny0uODg4N3YtMTguMTAzYzAtLjQ5MDIuMzk4NC0uODg4Ny44ODg3LS44ODg3aDEwLjc1MjljLjQ5MDIsMCwuODg5Ni4zOTg0Ljg4OTYuODg4N3YxOC4xMDNjMCwuNDkwMi0uMzk5NC44ODg3LS44ODk2Ljg4ODdaIiBjbGFzcz0iY2xzLTIiLz4mI3hhOyAgICAgICAgPHBhdGggZD0iTTQ1LjM2NzIsMzAuODgxOGMuMzQxOSwwLC42Mi4yNzgxLjYyLjYycy0uMjc4MS42Mi0uNjIuNjJoLTQuNTkzOGMtLjM0MTksMC0uNjItLjI3ODEtLjYyLS42MnMuMjc4MS0uNjIuNjItLjYyaDQuNTkzOCIgY2xhc3M9ImNscy0yIi8+JiN4YTsgICAgICAgIDxwYXRoIGQ9Ik00My4wNzAzLDQ2LjA0MTJjLjM1MTQsMCwuNjM3My4yODU5LjYzNzMuNjM3M3MtLjI4NTkuNjM3My0uNjM3My42MzczLS42MzczLS4yODU5LS42MzczLS42MzczLjI4NTktLjYzNzMuNjM3My0uNjM3MyIgY2xhc3M9ImNscy0yIi8+JiN4YTsgICAgICA8L2c+JiN4YTsgICAgICA8Zz4mI3hhOyAgICAgICAgPHBhdGggZD0iTTQyLjk1MjgsNDAuOTYyNGMtLjE2NywwLS4zMjMyLS4wNjQ1LS40NDE0LS4xODI2bC0xLjM0MTgtMS4zNDA4Yy0uMjQ0MS0uMjQ0MS0uMjQ0MS0uNjQwNi0uMDAxLS44ODM4LjI0NDEtLjI0NDEuNjQxNi0uMjQzMi44ODM4LS4wMDFsLjkwMDQuODk5NCwzLjc1MjktMy43NTFjLjExNTItLjExNzIuMjcxNS0uMTgxNi40Mzg1LS4xODI2aC4wMDJjLjE2OCwwLC4zMjUyLjA2NTQuNDQzNC4xODM2LjExNzIuMTE2Mi4xODI2LjI3MjUuMTgyNi40Mzk1LDAsLjE2OC0uMDY0NS4zMjYyLS4xODM2LjQ0NDNsLTQuMTk0Myw0LjE5MjRjLS4xMTYyLjExNzItLjI3MjUuMTgyNi0uNDQxNC4xODI2WiIgY2xhc3M9ImNscy0yIi8+JiN4YTsgICAgICAgIDxwYXRoIGQ9Ik00Mi45NTE5LDQ0LjA4NTRoMGMtMi42MjExLS4wMDEtNC43NTI5LTIuMTMzOC00Ljc1MjktNC43NTQ5czIuMTMyOC00Ljc1MzksNC43NTU5LTQuNzUzOWMuNzI1NiwwLDEuNDU1MS4xNzA5LDIuMTEwNC40OTUxLjMwMjcuMTUwNC40Mjc3LjUxOTUuMjc5My44MjIzLS4wNzIzLjE0NzUtLjE5NzMuMjU3OC0uMzUyNS4zMTA1LS4xNTYyLjA1MTgtLjMyMjMuMDQtLjQ3MDctLjAzMjItLjQ4NzMtLjI0MDItMS4wMjkzLS4zNjcyLTEuNTY2NC0uMzY3Mi0xLjk0NDMsMC0zLjUyNzMsMS41ODItMy41MjczLDMuNTI1NHMxLjU4MTEsMy41MjY0LDMuNTI0NCwzLjUyNzNjMS45NDQzLDAsMy41MjczLTEuNTgyLDMuNTI3My0zLjUyNTQsMC0uMzM4OS4yNzU0LS42MTQzLjYxNDMtLjYxNDMuMzM3OSwwLC42MTMzLjI3NTQuNjEzMy42MTQzLDAsMi42MjExLTIuMTMyOCw0Ljc1MjktNC43NTQ5LDQuNzUyOVoiIGNsYXNzPSJjbHMtMiIvPiYjeGE7ICAgICAgPC9nPiYjeGE7ICAgICAgPGxpbmUgeTI9IjQwLjQzMTciIHgyPSI4Ny44MTExIiB5MT0iMzQuMTE3MyIgeDE9Ijg3LjgxMTEiIGNsYXNzPSJjbHMtMyIvPiYjeGE7ICAgICAgPHBhdGggZD0iTTI3Ljg1MzUsMjcuMjQwN2MtLjE2MDIsMC0uMzE5OC0uMDYxLS40NDE5LS4xODMxbC0yLjQ0MjktMi40NDI5Yy0uMjQ0MS0uMjQ0MS0uMjQ0MS0uNjM5NiwwLS44ODM4cy42Mzk2LS4yNDQxLjg4MzgsMGwyLjAwMSwyLjAwMSw1LjY2NS01LjY2NTVjLjI0NDEtLjI0NDEuNjQwNi0uMjQ0MS44ODQ4LDAsLjI0MzIuMjQ0MS4yNDMyLjYzOTYsMCwuODgzOGwtNi4xMDc5LDYuMTA3NGMtLjEyMjEuMTIyMS0uMjgxNy4xODMxLS40NDE5LjE4MzFaIiBjbGFzcz0iY2xzLTIiLz4mI3hhOyAgICAgIDxwYXRoIGQ9Ik0yNy44NTQ1LDMxLjIxMDVoLS4wMDJjLTEuNjM1MywwLTMuMTcyNC0uNjM3Mi00LjMyODYtMS43OTM5LTEuMTU1OC0xLjE1NjItMS43OTI1LTIuNjkzNC0xLjc5Mi00LjMyODZzLjYzNzItMy4xNzI0LDEuNzkzOS00LjMyODZjMS4xNTU4LTEuMTU1MywyLjY5MjktMS43OTIsNC4zMjc2LTEuNzkyaC4wMDFjLjkzOTUuMDAwNSwxLjg3OTkuMjIxMiwyLjcxOTcuNjM3Ny4zMDkxLjE1MzguNDM1NS41Mjg4LjI4MjIuODM3OS0uMTU0My4zMDkxLS41Mjg4LjQzMzYtLjgzNzkuMjgyMi0uNjY4NS0uMzMyLTEuNDE3LS41MDczLTIuMTY0Ni0uNTA3OGgtLjAwMDVjLTEuMzAwOCwwLTIuNTIzOS41MDYzLTMuNDQ0MywxLjQyNjMtLjkxOTkuOTE5OS0xLjQyNzIsMi4xNDMxLTEuNDI3MiwzLjQ0NDNzLjUwNjMsMi41MjQ5LDEuNDI2MywzLjQ0NTNjLjkxOTkuOTE5OSwyLjE0MzEsMS40MjcyLDMuNDQ0MywxLjQyNzJoLjAwMmMxLjMwMDMsMCwyLjUyMzQtLjUwNjMsMy40NDM0LTEuNDI1OC45MTk5LS45MTk5LDEuNDI3Ny0yLjE0MzEsMS40Mjc3LTMuNDQ0MywwLS4zNDUyLjI4MDMtLjYyNS42MjUtLjYyNWgwYy4zNDU3LDAsLjYyNS4yNzk4LjYyNS42MjUtLjAwMSwxLjYzNTMtLjYzNzcsMy4xNzI0LTEuNzkzOSw0LjMyODFzLTIuNjkyOSwxLjc5Mi00LjMyNzEsMS43OTJaIiBjbGFzcz0iY2xzLTIiLz4mI3hhOyAgICA8L2c+JiN4YTsgIDwvZz4mI3hhOzwvc3ZnPg==;" vertex="1" parent="1">
          <mxGeometry x="290" y="450" width="62" height="62" as="geometry" />
        </mxCell>
        <mxCell id="d-CWmxk7Mh6oMbrWVQdX-27" value="" style="shape=image;verticalLabelPosition=bottom;verticalAlign=top;imageAspect=0;aspect=fixed;image=data:image/svg+xml,PHN2ZyB4bWxucz0iaHR0cDovL3d3dy53My5vcmcvMjAwMC9zdmciIHZpZXdCb3g9IjAgMCA2Mi4zNjIyIDYyLjM2MjIiIHZlcnNpb249IjEuMSIgaWQ9IkViZW5lXzIiPiYjeGE7ICAmI3hhOyAgPGRlZnM+JiN4YTsgICAgPHN0eWxlPiYjeGE7ICAgICAgLnN0MCB7JiN4YTsgICAgICAgIGZpbGw6ICNmZmY7JiN4YTsgICAgICB9JiN4YTsmI3hhOyAgICAgIC5zdDEgeyYjeGE7ICAgICAgICBmaWxsOiAjZGEyOTFjOyYjeGE7ICAgICAgfSYjeGE7ICAgIDwvc3R5bGU+JiN4YTsgIDwvZGVmcz4mI3hhOyAgPHBhdGggZD0iTTMxLjMxNDksNjIuMzYyMkMxMy40ODI4LDYyLjM2MjIsMCw0Ny41OTA1LDAsMzEuMzE0OCwwLDEyLjYzMjksMTUuNTU3MSwwLDMxLjA4MDcsMGMxOC42MDE2LDAsMzEuMjgxNSwxNS4zMzk5LDMxLjI4MTUsMzAuOTQ3MiwwLDE5LjA0OTUtMTUuNjU3NSwzMS40MTUtMzEuMDQ3MywzMS40MTVoMFoiIGNsYXNzPSJzdDEiLz4mI3hhOyAgPGc+JiN4YTsgICAgPHBhdGggZD0iTTQxLjAxMTYsMjIuNjY3Yy0uMTk2LS4xNC0uMzkyMS0uMTk2LS42MTYyLS4xOTYtLjMzNjEsMC0uNjQ0Mi4xNjgtLjg0MDIuNDIwMWwtMTAuMTEwNSwxMy43MjM0LTYuODMzNy01LjQ2MTRjLS4xOTYtLjE0LS40MjAxLS4yMjQxLS42NDQyLS4yMjQxLS4zMDgxLDAtLjYxNjIuMTQtLjgxMjIuMzkyMS0uMzY0MS40NDgxLS4yODAxLDEuMTIwMy4xNjgsMS40ODQ0bDcuNjczOSw2LjEzMzVjLjE5Ni4xNC40MjAxLjIyNDEuNjQ0Mi4yMjQxaC4xNGMuMjgwMS0uMDI4LjUzMjEtLjE5Ni43MDAyLS40MjAxbDEwLjc1NDctMTQuNTkxNmMuMTY4LS4yMjQxLjIyNDEtLjUwNDEuMTk2LS43ODQyLS4wNTYtLjMwODEtLjE5NjEtLjUzMjEtLjQyMDEtLjcwMDJaIiBjbGFzcz0ic3QwIi8+JiN4YTsgICAgPHBhdGggZD0iTTMxLjE4MTEsMTIuNDcyNGMtMTAuMzA2NiwwLTE4LjcwODcsOC40MDIxLTE4LjcwODcsMTguNzA4N3M4LjQwMjEsMTguNzA4NywxOC43MDg3LDE4LjcwODcsMTguNzA4Ny04LjQwMjEsMTguNzA4Ny0xOC43MDg3LTguNDAyMS0xOC43MDg3LTE4LjcwODctMTguNzA4N1pNMzEuMTgxMSw0Ny43ODkyYy05LjE1ODMsMC0xNi42MDgxLTcuNDQ5OS0xNi42MDgxLTE2LjYwODFzNy40NDk5LTE2LjYwODEsMTYuNjA4MS0xNi42MDgxLDE2LjYwODEsNy40NDk5LDE2LjYwODEsMTYuNjA4MS03LjQ0OTksMTYuNjA4MS0xNi42MDgxLDE2LjYwODFaIiBjbGFzcz0ic3QwIi8+JiN4YTsgIDwvZz4mI3hhOzwvc3ZnPg==;" vertex="1" parent="1">
          <mxGeometry x="90" y="530" width="62" height="62" as="geometry" />
        </mxCell>
        <mxCell id="d-CWmxk7Mh6oMbrWVQdX-28" value="" style="shape=image;verticalLabelPosition=bottom;verticalAlign=top;imageAspect=0;aspect=fixed;image=data:image/svg+xml,PHN2ZyB4bWxucz0iaHR0cDovL3d3dy53My5vcmcvMjAwMC9zdmciIHZpZXdCb3g9IjAgMCA2Mi4zNjIyIDYyLjM2MjIiIHZlcnNpb249IjEuMSI+JiN4YTsgIDxkZWZzPiYjeGE7ICAgIDxzdHlsZT4mI3hhOyAgICAgIC5jbHMtMSB7JiN4YTsgICAgICAgIGZpbGw6ICNmZmY7JiN4YTsgICAgICB9JiN4YTsmI3hhOyAgICAgIC5jbHMtMiB7JiN4YTsgICAgICAgIGZpbGw6ICNkYTI5MWM7JiN4YTsgICAgICB9JiN4YTsgICAgPC9zdHlsZT4mI3hhOyAgPC9kZWZzPiYjeGE7ICAmI3hhOyAgPGc+JiN4YTsgICAgPGcgaWQ9IkViZW5lXzIiPiYjeGE7ICAgICAgPHBhdGggZD0iTTMxLjMxNDksNjIuMzYyMkMxMy40ODI4LDYyLjM2MjIsMCw0Ny41OTA1LDAsMzEuMzE0OCwwLDEyLjYzMjksMTUuNTU3MSwwLDMxLjA4MDcsMGMxOC42MDE2LDAsMzEuMjgxNSwxNS4zMzk5LDMxLjI4MTUsMzAuOTQ3MiwwLDE5LjA0OTUtMTUuNjU3NSwzMS40MTUtMzEuMDQ3MywzMS40MTVoMFoiIGNsYXNzPSJjbHMtMiIvPiYjeGE7ICAgICAgPHBhdGggZD0iTTMxLjEzNTcsMTIuMzkzMWMtMTAuMzIwMywwLTE4LjcxNjMsOC4zOTYtMTguNzE2MywxOC43MTYzczguMzk2LDE4LjcxNjgsMTguNzE2MywxOC43MTY4LDE4LjcxNjgtOC4zOTY1LDE4LjcxNjgtMTguNzE2OC04LjM5NjUtMTguNzE2My0xOC43MTY4LTE4LjcxNjNaTTMxLjEzNTcsMTQuMzkzMWM0LjI3OTQsMCw4LjE3NTYsMS42MzAxLDExLjEzNTcsNC4yODQybC0yMy41Njc5LDIzLjU2NzljLTIuNjU0MS0yLjk2MDEtNC4yODQyLTYuODU2NC00LjI4NDItMTEuMTM1NywwLTkuMjE3Myw3LjQ5OS0xNi43MTYzLDE2LjcxNjMtMTYuNzE2M1pNMzEuMTM1Nyw0Ny44MjYyYy00LjIxOTYsMC04LjA2NzctMS41ODQtMTEuMDEyNS00LjE3MjVsMjMuNTU2OC0yMy41NTY4YzIuNTg4NiwyLjk0NDgsNC4xNzI1LDYuNzkyOSw0LjE3MjUsMTEuMDEyNSwwLDkuMjE3OC03LjQ5OSwxNi43MTY4LTE2LjcxNjgsMTYuNzE2OFoiIGNsYXNzPSJjbHMtMSIvPiYjeGE7ICAgIDwvZz4mI3hhOyAgPC9nPiYjeGE7PC9zdmc+;" vertex="1" parent="1">
          <mxGeometry x="250" y="530" width="62" height="62" as="geometry" />
        </mxCell>
        <mxCell id="d-CWmxk7Mh6oMbrWVQdX-29" value="" style="group" vertex="1" connectable="0" parent="1">
          <mxGeometry x="380" y="41" width="200" height="80" as="geometry" />
        </mxCell>
        <mxCell id="d-CWmxk7Mh6oMbrWVQdX-30" value="" style="group" vertex="1" connectable="0" parent="d-CWmxk7Mh6oMbrWVQdX-29">
          <mxGeometry width="200" height="80" as="geometry" />
        </mxCell>
        <mxCell id="d-CWmxk7Mh6oMbrWVQdX-31" value="" style="rounded=1;whiteSpace=wrap;html=1;strokeWidth=2;strokeColor=#7C7C7B;gradientDirection=south;arcSize=50;imageHeight=24;perimeterSpacing=10;" vertex="1" parent="d-CWmxk7Mh6oMbrWVQdX-30">
          <mxGeometry width="200" height="80" as="geometry" />
        </mxCell>
        <mxCell id="d-CWmxk7Mh6oMbrWVQdX-32" value="&lt;font face=&quot;Roboto&quot; style=&quot;font-size: 24px&quot;&gt;VM&lt;/font&gt;" style="text;strokeColor=none;fillColor=none;align=center;verticalAlign=middle;rounded=0;sketch=0;fontFamily=Montserrat;fontSource=https%3A%2F%2Ffonts.googleapis.com%2Fcss%3Ffamily%3DMontserrat;fontStyle=1;fontSize=24;spacing=0;html=1;" vertex="1" parent="d-CWmxk7Mh6oMbrWVQdX-30">
          <mxGeometry x="80" y="25" width="110" height="21" as="geometry" />
        </mxCell>
        <mxCell id="d-CWmxk7Mh6oMbrWVQdX-33" value="" style="endArrow=none;html=1;fontSize=20;fontColor=#E42313;strokeColor=#E42313;align=center;rounded=0;" edge="1" parent="d-CWmxk7Mh6oMbrWVQdX-30">
          <mxGeometry width="50" height="50" as="geometry">
            <mxPoint x="80" y="50.75" as="sourcePoint" />
            <mxPoint x="190" y="50.75" as="targetPoint" />
          </mxGeometry>
        </mxCell>
        <mxCell id="d-CWmxk7Mh6oMbrWVQdX-34" value="" style="shape=image;verticalLabelPosition=bottom;verticalAlign=top;imageAspect=0;aspect=fixed;image=data:image/svg+xml,PHN2ZyB4bWxucz0iaHR0cDovL3d3dy53My5vcmcvMjAwMC9zdmciIHZpZXdCb3g9IjAgMCA2Mi4zNjIyIDYyLjM2MjIiIHZlcnNpb249IjEuMSI+JiN4YTsgIDxkZWZzPiYjeGE7ICAgIDxzdHlsZT4mI3hhOyAgICAgIC5jbHMtMSB7JiN4YTsgICAgICAgIGZpbGw6ICNmZmY7JiN4YTsgICAgICB9JiN4YTsmI3hhOyAgICAgIC5jbHMtMiB7JiN4YTsgICAgICAgIGZpbGw6ICNkYTI5MWM7JiN4YTsgICAgICB9JiN4YTsgICAgPC9zdHlsZT4mI3hhOyAgPC9kZWZzPiYjeGE7ICAmI3hhOyAgPGc+JiN4YTsgICAgPGcgaWQ9IkViZW5lXzIiPiYjeGE7ICAgICAgPHBhdGggZD0iTTMxLjMxNDksNjIuMzYyMkMxMy40ODI4LDYyLjM2MjIsMCw0Ny41OTA1LDAsMzEuMzE0OCwwLDEyLjYzMjksMTUuNTU3MSwwLDMxLjA4MDcsMGMxOC42MDE2LDAsMzEuMjgxNSwxNS4zMzk5LDMxLjI4MTUsMzAuOTQ3MiwwLDE5LjA0OTUtMTUuNjU3NSwzMS40MTUtMzEuMDQ3MywzMS40MTVoMFoiIGNsYXNzPSJjbHMtMiIvPiYjeGE7ICAgICAgPGc+JiN4YTsgICAgICAgIDxwYXRoIGQ9Ik00Mi4zMjQyLDQyLjg1MDVoLTIyLjI4NjFjLTIuNzQwNywwLTQuOTcwMi0yLjIyOTUtNC45NzAyLTQuOTcwN3YtMTUuOTc0NmMwLTIuNzQwNywyLjIyOTUtNC45NzAyLDQuOTcwMi00Ljk3MDJoMjIuMjg2MWMyLjc0MDIsMCw0Ljk2OTcsMi4yMjk1LDQuOTY5Nyw0Ljk3MDJ2MTUuOTc0NmMwLDIuNzQxMi0yLjIyOTUsNC45NzA3LTQuOTY5Nyw0Ljk3MDdaTTIwLjAzODEsMTguOTM0OWMtMS42Mzc3LDAtMi45NzAyLDEuMzMyNS0yLjk3MDIsMi45NzAydjE1Ljk3NDZjMCwxLjYzNzcsMS4zMzI1LDIuOTcwNywyLjk3MDIsMi45NzA3aDIyLjI4NjFjMS42Mzc3LDAsMi45Njk3LTEuMzMzLDIuOTY5Ny0yLjk3MDd2LTE1Ljk3NDZjMC0xLjYzNzctMS4zMzItMi45NzAyLTIuOTY5Ny0yLjk3MDJoLTIyLjI4NjFaIiBjbGFzcz0iY2xzLTEiLz4mI3hhOyAgICAgICAgPHBhdGggZD0iTTM2LjI4NjEsNDYuODQ0NmgtMTAuMjFjLS41NTIyLDAtMS0uNDQ3My0xLTFzLjQ0NzgtMSwxLTFoMTAuMjFjLjU1MjcsMCwxLC40NDczLDEsMXMtLjQ0NzMsMS0xLDFaIiBjbGFzcz0iY2xzLTEiLz4mI3hhOyAgICAgIDwvZz4mI3hhOyAgICA8L2c+JiN4YTsgIDwvZz4mI3hhOzwvc3ZnPg==;" vertex="1" parent="d-CWmxk7Mh6oMbrWVQdX-29">
          <mxGeometry x="11" y="9" width="62" height="62" as="geometry" />
        </mxCell>
        <mxCell id="d-CWmxk7Mh6oMbrWVQdX-35" value="" style="group" vertex="1" connectable="0" parent="1">
          <mxGeometry x="380" y="180" width="200" height="80" as="geometry" />
        </mxCell>
        <mxCell id="d-CWmxk7Mh6oMbrWVQdX-36" value="" style="rounded=1;whiteSpace=wrap;html=1;strokeWidth=2;strokeColor=#7C7C7B;gradientDirection=south;arcSize=50;imageHeight=24;perimeterSpacing=10;" vertex="1" parent="d-CWmxk7Mh6oMbrWVQdX-35">
          <mxGeometry width="200" height="80" as="geometry" />
        </mxCell>
        <mxCell id="d-CWmxk7Mh6oMbrWVQdX-37" value="&lt;font face=&quot;Roboto&quot; style=&quot;font-size: 18px;&quot;&gt;Grafana&lt;/font&gt;" style="text;strokeColor=none;fillColor=none;align=center;verticalAlign=middle;rounded=0;sketch=0;fontFamily=Montserrat;fontSource=https%3A%2F%2Ffonts.googleapis.com%2Fcss%3Ffamily%3DMontserrat;fontStyle=1;fontSize=24;spacing=0;html=1;" vertex="1" parent="d-CWmxk7Mh6oMbrWVQdX-35">
          <mxGeometry x="80" y="25" width="110" height="21" as="geometry" />
        </mxCell>
        <mxCell id="d-CWmxk7Mh6oMbrWVQdX-38" value="" style="endArrow=none;html=1;fontSize=20;fontColor=#E42313;strokeColor=#E42313;align=center;rounded=0;" edge="1" parent="d-CWmxk7Mh6oMbrWVQdX-35">
          <mxGeometry width="50" height="50" as="geometry">
            <mxPoint x="80" y="50.75" as="sourcePoint" />
            <mxPoint x="190" y="50.75" as="targetPoint" />
          </mxGeometry>
        </mxCell>
        <mxCell id="d-CWmxk7Mh6oMbrWVQdX-39" value="" style="shape=image;verticalLabelPosition=bottom;verticalAlign=top;imageAspect=0;aspect=fixed;image=data:image/svg+xml,PHN2ZyB4bWxucz0iaHR0cDovL3d3dy53My5vcmcvMjAwMC9zdmciIHZpZXdCb3g9IjAgMCA2Mi4zNjIyIDYyLjM2MjIiIHZlcnNpb249IjEuMSI+JiN4YTsgIDxkZWZzPiYjeGE7ICAgIDxzdHlsZT4mI3hhOyAgICAgIC5jbHMtMSB7JiN4YTsgICAgICAgIGZpbGw6ICNmZmY7JiN4YTsgICAgICB9JiN4YTsmI3hhOyAgICAgIC5jbHMtMiB7JiN4YTsgICAgICAgIGZpbGw6ICNmZWZlZmU7JiN4YTsgICAgICB9JiN4YTsmI3hhOyAgICAgIC5jbHMtMyB7JiN4YTsgICAgICAgIGZpbGw6ICNkYTI5MWM7JiN4YTsgICAgICB9JiN4YTsgICAgPC9zdHlsZT4mI3hhOyAgPC9kZWZzPiYjeGE7ICAmI3hhOyAgPGc+JiN4YTsgICAgPGcgaWQ9IkhpbnRlcmdydW5kIj4mI3hhOyAgICAgIDxwYXRoIGQ9Ik0zMS4zMTQ5LDYyLjM2MzlDMTMuNDgyOCw2Mi4zNjM5LDAsNDcuNTkyMSwwLDMxLjMxNjQsMCwxMi42MzQ1LDE1LjU1NzEuMDAxNywzMS4wODA3LjAwMTcsNDkuNjgyMy4wMDE3LDYyLjM2MjIsMTUuMzQxNiw2Mi4zNjIyLDMwLjk0ODhjMCwxOS4wNDk1LTE1LjY1NzUsMzEuNDE1LTMxLjA0NzMsMzEuNDE1aDBaIiBjbGFzcz0iY2xzLTMiLz4mI3hhOyAgICA8L2c+JiN4YTsgICAgPGcgaWQ9IklDT04iPiYjeGE7ICAgICAgPGc+JiN4YTsgICAgICAgIDxjaXJjbGUgcj0iMTkuMzQ2NSIgY3k9IjMxLjE4MTEiIGN4PSIzMS4xODExIiBjbGFzcz0iY2xzLTMiLz4mI3hhOyAgICAgICAgPHBhdGggZD0iTTMxLjE4MTEsMTEuODM0NmMxMC42ODQ4LDAsMTkuMzQ2NSw4LjY2MTcsMTkuMzQ2NSwxOS4zNDY1cy04LjY2MTcsMTkuMzQ2NS0xOS4zNDY1LDE5LjM0NjUtMTkuMzQ2NS04LjY2MTctMTkuMzQ2NS0xOS4zNDY1UzIwLjQ5NjQsMTEuODM0NiwzMS4xODExLDExLjgzNDZNMzEuMTgxMSwxMC41ODQ2Yy0xMS4zNTY5LDAtMjAuNTk2NSw5LjIzOTUtMjAuNTk2NSwyMC41OTY1czkuMjM5NSwyMC41OTY1LDIwLjU5NjUsMjAuNTk2NSwyMC41OTY1LTkuMjM5NSwyMC41OTY1LTIwLjU5NjUtOS4yMzk1LTIwLjU5NjUtMjAuNTk2NS0yMC41OTY1aDBaIiBjbGFzcz0iY2xzLTIiLz4mI3hhOyAgICAgIDwvZz4mI3hhOyAgICAgIDxnPiYjeGE7ICAgICAgICA8cGF0aCBkPSJNNDQuMjI5NSwzMS42MTIzYy0uMTQzNi0uNzIwNy0uODY2Mi0xLjUwNDktMi4wMzQyLTIuNzI0MS0uMzMzLS4zNDgxLS42NTcyLS42ODYtLjkwOTItLjk3NzEtLjIxLS4yNDIyLS40Mzc1LTEuMjYzMi0uNTg3OS0xLjkzOS0uMzQ3Ny0xLjU2NTktLjcwOC0zLjE4NTUtMS44Nzc5LTMuNzUtMS4xNTE0LS41NTM3LTIuMTExMy0uNDc0Ni0yLjg4NjctLjQwOTctLjMzODIuMDI4NS0uNjMzLjA0NzItLjkyNS4wMjUxbC0xLjEwMzMtMy43MTEyYy0uMTU4Mi0uNTI4My0uNzA3LS44MzItMS4yNDQxLS42NzMzLS41MjkzLjE1NzItLjgzMDYuNzEzOS0uNjczMywxLjI0MzdsLjU4MzgsMS45NjQ2LTIuNDgwMy0yLjk5NzhjLS4zNTI1LS40MjUzLS45ODI5LS40ODQ0LTEuNDA4Mi0uMTMyOC0uNDI1My4zNTIxLS40ODQ5Ljk4MjQtLjEzMjgsMS40MDgybDEuNzY2NywyLjEzNTNjLS4zMzUuMTgzNy0uNjYxOS40NDQ2LS45ODkuNzYwNy0uNDQ0Mi0uMzYzNS0xLjA4MzUtLjc5OC0yLjAyMDktMS4zMzg0LTEuMDI2NC0uNTkyMy0xLjY4MzYtLjM0NjItMi4wNTQyLS4wMzYxLTEuMDI0OS44NTY5LS41ODY0LDIuNzU4My42NDcsNi4xOTQ4LjA3NDIuMjA2NS4xMzUzLjM3NjUuMTc1My40OTYxLjAyOC4wODM0LjA3MjQuMTU1NS4xMTgzLjIyNTgtMy4xNTIyLDYuOTAyMi03LjgzNiwxMi45NzA5LTcuODg0OSwxMy4wMzMtLjMzODkuNDM2NS0uMjYwMywxLjA2NDUuMTc1OCwxLjQwMzMuMTgyNi4xNDI2LjM5ODQuMjEwOS42MTMzLjIxMDkuMjk3OSwwLC41OTI4LS4xMzI4Ljc5LS4zODU3LjA3OS0uMTAxOS44MjI4LTEuMDY0NiwxLjg4OTUtMi42MDk3LjExMTQuNTI3Mi4xOTU5LDEuMTY2OC4xOTIxLDEuOTM0OS0uMDAyNC41NTI3LjQ0MjksMS4wMDIuOTk1MSwxLjAwNDloLjAwNDljLjU1MDMsMCwuOTk3MS0uNDQ0MywxLS45OTUxLjAxMDItMi4wODY5LS41MjAyLTMuNDg2NC0uNzYzNi00LjA4NzMuNTg0OC0uOTA2MSwxLjIwNjUtMS45MDUsMS44Mzg4LTIuOTg2NS4wMTEzLDAsLjAyMDEuMDAwNS4wMzE3LjAwMDUsMS4wNjA1LDAsMy4zMjI4LS4yNjk1LDQuMjMyOS0yLjQ1NDEuMjEyOS0uNTA5OC0uMDI4My0xLjA5NTItLjUzODEtMS4zMDc2LS41MTA3LS4yMTQ4LTEuMDk1Ny4wMjg4LTEuMzA3Ni41MzgxLS4yNDExLjU3NzktLjcxNDIuODgwOS0xLjE5ODQsMS4wNDQ2Ljc1ODQtMS40MDgzLDEuNDk4Mi0yLjg5NjEsMi4xNjAzLTQuNDI3NGwuMDc0Mi0uMjcyOWMuMDAyLS4wMTMyLjIwMTctMS4zNzMsMS40NjQ4LTIuOTIzMywxLjM1NTUtMS42NjI2LDEuNjAzLTEuNjYzNiwyLjkxOTQtLjg5MTEsMS4yOTY5Ljc2MDMsMi4zNjMzLjY3MDQsMy4yMTY4LjU5OTEuNjY1LS4wNTYyLDEuMTg5NS0uMDk5NiwxLjg0MjguMjEzOS4zMjAzLjIxNjguNjM0OCwxLjYyODQuODAyNywyLjM4NjcuMjYxNywxLjE3NTMuNDg3MywyLjE5MDQsMS4wMjgzLDIuODE0OS4yNzA1LjMxMjUuNjE4Mi42NzU4Ljk3NjYsMS4wNTAzLjUyNTQuNTQ4MywxLjQwNDMsMS40NjYzLDEuNTEyNywxLjY4NjUtLjAwMzkuMDU1Ny0uMDg0LjI0MzItLjI1MzkuMzc4OS0uMDQyLjAzMjItLjE1MzMuMTEwNC0uMjI0Ni4wOTc3LS4xNDM2LS4wMzcxLS41MTM3LS4zNTI1LS43NTg4LS41NjE1LS42Njg5LS41Njk4LTEuNTg0LTEuMzQ5Ni0yLjgzNS0xLjQ1MDItLjY5NjMtLjA1NTItMS4yOTQ5LS40MzY1LTEuOTI5Ny0uODQwMy0uOTc0Ni0uNjE5Ni0yLjQ0NTMtMS41NTc2LTQuMDE0Ni0uMTU3Mi0uNDExNi4zNjcyLS40NDc4Ljk5OTUtLjA4MDEsMS40MTE2LjM2ODIuNDEyNiwxLC40NDgyLDEuNDEyMS4wODA2LjM2MzMtLjMyNDcuNDgxNC0uMzY1MiwxLjYwOTQuMzUyNS43MzYzLjQ2ODgsMS42NTIzLDEuMDUxMywyLjg0MjgsMS4xNDcuNjA2NC4wNDc5LDEuMTYxMS41MjE1LDEuNjk4Mi45Nzg1LjUzMDMuNDUyMSwxLjA3OTEuOTE4OSwxLjc2NDYsMS4wMTc2LjczNjMuMTA3NCwxLjQ4MzQtLjE3NzcsMi4wNDc5LS43NzU0LjU1NjYtLjU4ODkuODIwMy0xLjM2NTIuNjg3NS0yLjAyNTRaTTI4LjAyNTIsMjMuMzQ5OWMtLjI5ODYuNDE4My0uNTQwNy44MjE0LS43MzQxLDEuMTk2OC0uMzE3NS0uOTc3Ni0uNDg3Ni0xLjYzNzUtLjU2MzUtMi4wNzA2LjY1MzEuMzkzMywxLjA1MTYuNjc3OCwxLjI5NzcuODczOFoiIGNsYXNzPSJjbHMtMSIvPiYjeGE7ICAgICAgICA8cGF0aCBkPSJNMzAuNjI5OSwzMi4zMDI3Yy0uNTY0OS41MzQyLTEuMjUzNCwyLjg3Ny0yLjA1MDMsNi45Njc4LS40NDE0LS4zMTY0LS44Njg3LS43MjI3LTEuMDI5My0xLjE2Ny0uMDcwOC0uMTk1My0uMTM2Ny0uNTA4OC4xMDY0LS45NzE3LjI1NzMtLjQ4OTMuMDY5OC0xLjA5MzgtLjQxODktMS4zNTA2LS40OTEyLS4yNTc4LTEuMDkzOC0uMDY5My0xLjM1MDYuNDE4OS0uNDQ4Ny44NTI1LS41MjI5LDEuNzQ4LS4yMTQ4LDIuNTkxOC42ODEyLDEuODY2MiwyLjk5MzIsMi44NTM1LDMuMjU0NCwyLjk1OWwxLjEzODcuNDYzOS4yMjE3LTEuMjA5Yy41NjQ1LTMuMDc0MiwxLjQwNjctNi43NDksMS43MTc4LTcuMjUyLjQwMTQtLjM3OTkuNDE4LTEuMDEyNy4wMzgxLTEuNDEzMS0uMzc4OS0uNDAxNC0xLjAxMzItLjQxOC0xLjQxMzEtLjAzODFaIiBjbGFzcz0iY2xzLTEiLz4mI3hhOyAgICAgIDwvZz4mI3hhOyAgICA8L2c+JiN4YTsgICAgPGcgaWQ9IlRvbm5lX091dGxpbmUiPiYjeGE7ICAgICAgPHBhdGggZD0iTTQ1LjIzMDUsNTMuMTY1Yy0zLjgxNzQsMC03LjkyNTgtMS4zNjkxLTcuOTI1OC00LjM3NXYtMTAuMTc5N2MwLS4wNTY2LDAtLjE1NzIuMDE4Ni0uMjgzMi4yNTk4LTIuODExNSw0LjI2NDYtNC4wOTI4LDcuOTA3Mi00LjA5MjgsMy42NDc1LDAsNy42NTYyLDEuMjgxMiw3LjkxNiw0LjA5MjguMDE4Ni4xMjYuMDE4Ni4yMjY2LjAxODYuMjgzMnYxMC4xNzk3YzAsMy4wMDU5LTQuMTEzMyw0LjM3NS03LjkzNDYsNC4zNzVaIiBjbGFzcz0iY2xzLTMiLz4mI3hhOyAgICA8L2c+JiN4YTsgICAgPGcgaWQ9IlRvbm5lIj4mI3hhOyAgICAgIDxwYXRoIGQ9Ik01MS44OCwzOC40OWMtLjEzLTEuOTMtMy40OC0yLjk4LTYuNjUtMi45OC0zLjE2LDAtNi41MSwxLjA1LTYuNjQsMi45OC0uMDEuMDQtLjAxLjA4LS4wMS4xMnYxMC4xOGMwLDIuMDEsMy40MywzLjEsNi42NSwzLjEsMy4yMywwLDYuNjYtMS4wOSw2LjY2LTMuMXYtMTAuMThjMC0uMDQsMC0uMDgtLjAxLS4xMlpNNTAuNjQsNDguNzljMCwuNzUtMi4xMSwxLjg1LTUuNDEsMS44NXMtNS40LTEuMS01LjQtMS44NXYtMS40M2MuOTcuNTQsMi42NiwxLjEzLDUuNCwxLjEzLDIuNzcsMCw0LjQ1LS41OCw1LjQxLTEuMTJ2MS40MlpNNTAuNjQsNDUuODVjLS40Mi4zNi0xLjksMS4zOS01LjQxLDEuMzktMy40OCwwLTQuOTctMS4wMS01LjQtMS4zOHYtMS44OWMuOTcuNTQsMi42NiwxLjEzLDUuNCwxLjEzLDIuNzcsMCw0LjQ1LS41OCw1LjQxLTEuMTJ2MS44N1pNNTAuNjQsNDIuNDZjLS40Mi4zNi0xLjksMS4zOS01LjQxLDEuMzktMy40OCwwLTQuOTctMS4wMS01LjQtMS4zOHYtMmMxLjI4LjgyLDMuMzgsMS4yNSw1LjQsMS4yNXM0LjEzLS40Myw1LjQxLTEuMjV2MS45OVpNNDUuMjMsNDAuNDdjLTMuMywwLTUuNC0xLjEtNS40LTEuODYsMC0uNzUsMi4xLTEuODUsNS40LTEuODVzNS40MSwxLjEsNS40MSwxLjg1YzAsLjc2LTIuMTEsMS44Ni01LjQxLDEuODZaIiBjbGFzcz0iY2xzLTEiLz4mI3hhOyAgICA8L2c+JiN4YTsgIDwvZz4mI3hhOzwvc3ZnPg==;" vertex="1" parent="d-CWmxk7Mh6oMbrWVQdX-35">
          <mxGeometry x="10" y="9" width="62" height="62" as="geometry" />
        </mxCell>
        <mxCell id="d-CWmxk7Mh6oMbrWVQdX-40" value="" style="endArrow=block;html=1;strokeWidth=3;endFill=0;fontSize=20;fontColor=#E42313;targetPerimeterSpacing=10;sourcePerimeterSpacing=10;strokeColor=#DA291C;rounded=0;exitX=0.25;exitY=1;exitDx=0;exitDy=0;" edge="1" parent="1" source="d-CWmxk7Mh6oMbrWVQdX-31">
          <mxGeometry width="50" height="50" relative="1" as="geometry">
            <mxPoint x="370" y="280" as="sourcePoint" />
            <mxPoint x="425" y="170" as="targetPoint" />
            <Array as="points" />
          </mxGeometry>
        </mxCell>
        <mxCell id="d-CWmxk7Mh6oMbrWVQdX-41" value="" style="shape=image;verticalLabelPosition=bottom;verticalAlign=top;imageAspect=0;aspect=fixed;image=data:image/svg+xml,PHN2ZyB4bWxucz0iaHR0cDovL3d3dy53My5vcmcvMjAwMC9zdmciIHZpZXdCb3g9IjAgMCA0MS4xODQ2MDA4MzAwNzgxMjUgNDEuMTg0NjAwODMwMDc4MTI1IiB3aWR0aD0iNDEuMTg0NjAwODMwMDc4MTI1IiBoZWlnaHQ9IjQxLjE4NDYwMDgzMDA3ODEyNSI+PGRlZnM+PHN0eWxlPi5jbHMtMXtmaWxsOm5vbmU7fTwvc3R5bGU+PC9kZWZzPjxnIGlkPSJFYmVuZV8yIiBkYXRhLW5hbWU9IkViZW5lIDIiPjxwYXRoIGQ9Ik0yOS40OSw1MC4zNjcyYTEuNTQ2OSwxLjU0NjksMCwwLDEtMS41My0xLjM1ODRsLS4zODU4LTMuMDg0YTE0Ljk5NywxNC45OTcsMCwwLDEtNC4yMzE0LTEuNzZsLTIuNDY4MywxLjkxMzFhMS41NTczLDEuNTU3MywwLDAsMS0yLjA0NjktLjEyNzlsLTIuNDAzOC0yLjQwNDNhMS41NTUyLDEuNTU1MiwwLDAsMS0uMTI4NC0yLjA0NzlsMS45MTI2LTIuNDY2OGExNC45OTIsMTQuOTkyLDAsMCwxLTEuNzU4OC00LjIzMjRsLTMuMDg0NS0uMzg0N2ExLjU1MzQsMS41NTM0LDAsMCwxLTEuMzU4OC0xLjU1MThWMjkuNDkzN2ExLjU1LDEuNTUsMCwwLDEsMS4zNTg4LTEuNTQ1bDMuMDg0NS0uMzg1MkExNC45NzIsMTQuOTcyLDAsMCwxLDE4LjIwOCwyMy4zMzJsLTEuOTE5NC0yLjQ2NzdhMS41NTQxLDEuNTU0MSwwLDAsMSwuMTI2NC0yLjA0NzlsMi40MDQzLTIuNDAzOGExLjU1NTMsMS41NTUzLDAsMCwxLDIuMDQ3OS0uMTI3OWwyLjQ2LDEuOTEyMWExNC45ODU4LDE0Ljk4NTgsMCwwLDEsNC4yMjUxLTEuNzU5M2wuMzg1My0zLjA4MzVhMS41MjI4LDEuNTIyOCwwLDAsMSwxLjU1LTEuMzU5NEgzMi44N2ExLjU1NzcsMS41NTc3LDAsMCwxLDEuNTQ0OSwxLjM2TDM0LjgsMTYuNDM3YTE1LjAyLDE1LjAyLDAsMCwxLDQuMjMsMS43NTgzbDIuNDU1MS0xLjkyNzJhMS41NTU0LDEuNTU1NCwwLDAsMSwyLjA1LjEyNDVsMi40MDQzLDIuNDA0M2ExLjU1MjUsMS41NTI1LDAsMCwxLC4xMjY5LDIuMDQ4M2wtMS45MTIxLDIuNDY3M2ExNC45NjMxLDE0Ljk2MzEsMCwwLDEsMS43Niw0LjIzMTRsMy4wODQuMzg1M0ExLjU1MTgsMS41NTE4LDAsMCwxLDUwLjM1NjQsMjkuNDh2My4zODIzYTEuNTUwOCwxLjU1MDgsMCwwLDEtMS4zNTg0LDEuNTQ0OWwtMy4wNTE3LjM5MDdBMTQuOTQ2NCwxNC45NDY0LDAsMCwxLDQ0LjE4NzUsMzkuMDNsMS45MTMxLDIuNDY3N2ExLjU1NTIsMS41NTUyLDAsMCwxLS4xMjg5LDIuMDQ3OWwtMi40MDMzLDIuNDAzM2ExLjU1NTEsMS41NTUxLDAsMCwxLTIuMDQ2OS4xMjg5bC0yLjQ2MS0xLjkxMjFhMTUuMDMsMTUuMDMsMCwwLDEtNC4yMzE0LDEuNzU4OGwtLjM4NDgsMy4wODRhMS41NjU4LDEuNTY1OCwwLDAsMS0xLjU1MjcsMS4zNTg0SDI5LjQ5Wk0yMy4yOTkzLDQyLjVhLjc0NjMuNzQ2MywwLDAsMSwuNDEyNi4xMjQsMTMuNTM5LDEzLjUzOSwwLDAsMCw0LjY5NDgsMS45NTIyLjc1Ljc1LDAsMCwxLC41OTA5LjY0MTZsLjQ1MDYsMy42MDU0LDMuNDUuMDQ0LjUwNzgtMy42NDk0YS43NTA3Ljc1MDcsMCwwLDEsLjU5MDktLjY0MTYsMTMuNTMsMTMuNTMsMCwwLDAsNC42OTUzLTEuOTUyMi43NDU1Ljc0NTUsMCwwLDEsLjg3MjEuMDM0Mkw0Mi40NCw0NC44OTM2bDIuNDcwNy0yLjQwODJMNDIuNjgsMzkuNTM0MmEuNzUuNzUsMCwwLDEtLjAzMzItLjg3MjEsMTMuNDk4MSwxMy40OTgxLDAsMCwwLDEuOTUtNC42OTQzLjc1MTUuNzUxNSwwLDAsMSwuNjQtLjU5MThsMy41NzMzLS40NTcxaC4wMDA5YS4wNTE1LjA1MTUsMCwwLDAsLjA0NTktLjA1MDdWMjkuNDc0NmwtMy42NTEzLS41MDczYS43NS43NSwwLDAsMS0uNjQxNi0uNTkxMywxMy40OTA5LDEzLjQ5MDksMCwwLDAtMS45NTEyLTQuNjk0NC43NS43NSwwLDAsMSwuMDMzMi0uODcybDIuMjM1NC0yLjg4NDMtMi40MDYzLTIuNDcxMi0yLjkzNTUsMi4yNDhhLjc1Ljc1LDAsMCwxLS44NzUuMDM2NywxMy41Mzc4LDEzLjUzNzgsMCwwLDAtNC42OTYzLTEuOTUyNy43NTEuNzUxLDAsMCwxLS41OTA4LS42NDE2bC0uNDUtMy42MDQ5LTMuNDQ0NC0uMDQ1LS41MDY4LDMuNjVhLjc1Ljc1LDAsMCwxLS41OS42NDExLDEzLjUzLDEzLjUzLDAsMCwwLTQuNjksMS45NTMyLjc1MTYuNzUxNiwwLDAsMS0uODczLS4wMzQybC0yLjg3Ni0yLjIzNTQtMi40NzA3LDIuNDA3MywyLjIzOTIsMi45NTExYS43NS43NSwwLDAsMSwuMDM0Ny44NzMxLDEzLjQ5MTIsMTMuNDkxMiwwLDAsMC0xLjk1MTIsNC42OTQ4Ljc1Ljc1LDAsMCwxLS42NDE2LjU5MTNsLTMuNjA2OS40NS0uMDQ0NCwzLjQzMTIsMy42NTEzLjUwNzhhLjc1Ljc1LDAsMCwxLC42NDE2LjU5MThBMTMuNDkxMSwxMy40OTExLDAsMCwwLDE5Ljc1LDM4LjY2MTFhLjc1MTYuNzUxNiwwLDAsMS0uMDMzNy44NzMxTDE3LjQ4MSw0Mi40MThsMi40MDY3LDIuNDcwN0wyMi44NCw0Mi42NTcyQS43NDg5Ljc0ODksMCwwLDEsMjMuMjk5Myw0Mi41WiIgdHJhbnNmb3JtPSJ0cmFuc2xhdGUoLTEwLjU4ODkgLTEwLjU3NzQpIi8+PHBhdGggZD0iTTMxLjE4LDQwLjgwNDdhOS42MzMzLDkuNjMzMywwLDEsMSw5LjYzMzgtOS42MzMzQTkuNjQ0NCw5LjY0NDQsMCwwLDEsMzEuMTgsNDAuODA0N1ptMC0xNy43NjY2YTguMTMzMyw4LjEzMzMsMCwxLDAsOC4xMzM4LDguMTMzM0E4LjE0MjcsOC4xNDI3LDAsMCwwLDMxLjE4LDIzLjAzODFaIiB0cmFuc2Zvcm09InRyYW5zbGF0ZSgtMTAuNTg4OSAtMTAuNTc3NCkiLz48cGF0aCBkPSJNMjYuNjYxMSwyOS4xNkgyNy42OWwxLjYzODcsMy44NzY5aC0xLjE0NGwtLjI4LS42ODc1SDI2LjQxOTRsLS4yNzU0LjY4NzVIMjUuMDIyNVptLjkzNTEsMi4zNjQ3LS40Mjg3LTEuMDk0Mi0uNDM0NiwxLjA5NDJaIiB0cmFuc2Zvcm09InRyYW5zbGF0ZSgtMTAuNTg4OSAtMTAuNTc3NCkiLz48cGF0aCBkPSJNMzAuNDQ1MywyOS4xODc1aDEuNjVhMi4yNDc3LDIuMjQ3NywwLDAsMSwuNjU5Mi4wOTA4LDEuNDQ2MiwxLjQ0NjIsMCwwLDEsLjUwNjguMjY0MiwxLjE1ODcsMS4xNTg3LDAsMCwxLC4zMjEzLjQyNjMsMS4zODg5LDEuMzg4OSwwLDAsMSwuMTEyMy41NzE3di4wMTEzYTEuMzc4NCwxLjM3ODQsMCwwLDEtLjEyMy41OTkxLDEuMjI4OCwxLjIyODgsMCwwLDEtLjM0MzguNDM0NSwxLjQ4NywxLjQ4NywwLDAsMS0uNTI1NC4yNjQyLDIuMzkyNywyLjM5MjcsMCwwLDEtLjY2MzEuMDg3OWgtLjUyNzN2MS4xSDMwLjQ0NTNabTEuNTczMywxLjkxNDFhLjY4LjY4LDAsMCwwLC40NDgyLS4xMzUzLjQ1Ni40NTYsMCwwLDAsLjE2MjEtLjM2Nzd2LS4wMTEyYS40NTg1LjQ1ODUsMCwwLDAtLjE2MjEtLjM3ODkuNzExMi43MTEyLDAsMCwwLS40NTQxLS4xM2gtLjV2MS4wMjNaIiB0cmFuc2Zvcm09InRyYW5zbGF0ZSgtMTAuNTg4OSAtMTAuNTc3NCkiLz48cGF0aCBkPSJNMzQuOTExMSwyOS4xODc1aDEuMDcyM3YzLjg1SDM0LjkxMTFaIiB0cmFuc2Zvcm09InRyYW5zbGF0ZSgtMTAuNTg4OSAtMTAuNTc3NCkiLz48L2c+PGcgaWQ9IkViZW5lXzQiIGRhdGEtbmFtZT0iRWJlbmUgNCI+PHJlY3QgY2xhc3M9ImNscy0xIiB3aWR0aD0iNDEuMTg0NiIgaGVpZ2h0PSI0MS4xODQ2Ii8+PC9nPjwvc3ZnPg==" vertex="1" parent="1">
          <mxGeometry x="680" y="40" width="139" height="139" as="geometry" />
        </mxCell>
        <mxCell id="d-CWmxk7Mh6oMbrWVQdX-42" value="" style="endArrow=block;html=1;strokeWidth=3;endFill=0;fontSize=20;fontColor=#E42313;targetPerimeterSpacing=10;sourcePerimeterSpacing=10;strokeColor=#7C7C7B;dashed=1;rounded=0;exitX=1;exitY=0.5;exitDx=0;exitDy=0;" edge="1" parent="1" source="d-CWmxk7Mh6oMbrWVQdX-36" target="d-CWmxk7Mh6oMbrWVQdX-41">
          <mxGeometry width="50" height="50" relative="1" as="geometry">
            <mxPoint x="640" y="150" as="sourcePoint" />
            <mxPoint x="710" y="150" as="targetPoint" />
            <Array as="points" />
          </mxGeometry>
        </mxCell>
        <mxCell id="d-CWmxk7Mh6oMbrWVQdX-43" value="" style="shape=image;aspect=fixed;image=data:image/svg+xml,PHN2ZyB4bWxucz0iaHR0cDovL3d3dy53My5vcmcvMjAwMC9zdmciIHZpZXdCb3g9IjAgMCAzNS4wMzkxIDMzLjg5OTUiPjxkZWZzPjxzdHlsZT4uY2xzLTF7ZmlsbDpub25lO308L3N0eWxlPjwvZGVmcz48ZyBpZD0iRWJlbmVfMiIgZGF0YS1uYW1lPSJFYmVuZSAyIj48cGF0aCBkPSJNMjcuOTE4LDM4LjY3ODdIMjQuMDg3NGEuNzUuNzUsMCwxLDEsMC0xLjVIMjcuOTE4YS43NS43NSwwLDAsMSwwLDEuNVoiIHRyYW5zZm9ybT0idHJhbnNsYXRlKC0xMy42NjE0IC0xMy45NDc3KSIvPjxwYXRoIGQ9Ik0zNS4yOTQ5LDM4LjY3ODdoLTMuODNhLjc1Ljc1LDAsMCwxLDAtMS41aDMuODNhLjc1Ljc1LDAsMCwxLDAsMS41WiIgdHJhbnNmb3JtPSJ0cmFuc2xhdGUoLTEzLjY2MTQgLTEzLjk0NzcpIi8+PHBhdGggZD0iTTQ1LjEyMyw0Ni40M0gxNy4yMzg4YTIuMTYyNiwyLjE2MjYsMCwwLDEtMi4xNi0yLjE2VjMzLjczNzNsMi4wNjc5LTE2LjcxMzRhMS45MjQxLDEuOTI0MSwwLDAsMSwxLjg5Ni0xLjY1ODdoLjkwMThBMS41MjIxLDEuNTIyMSwwLDAsMSwyMS40MywxNi41NzgxbDIuNTgyNSwxNC40MzA3LDQuNzEtNC4zNDIzYS43NDIzLjc0MjMsMCwwLDEsLjEwMDYtLjA3ODEsMS41MTYsMS41MTYsMCwwLDEsMi4zNCwxLjI3NTRsLjAwNzgsMy4wODIsNS40MzI2LTQuNDAwOWEuNzEwNi43MTA2LDAsMCwxLC4xMDQ1LS4wNzE4LDEuNTE1NiwxLjUxNTYsMCwwLDEsMi4yNTg4LDEuMzIyM3YzLjE1ODJsNS45Njc3LTQuNDQ2M2ExLjUzNDQsMS41MzQ0LDAsMCwxLDIuMTQ2NS41MSwxLjUxNSwxLjUxNSwwLDAsMSwuMjAxMi43NTM5VjQ0LjI3QTIuMTYyMiwyLjE2MjIsMCwwLDEsNDUuMTIzLDQ2LjQzWk0xOS45NTcsMTcuMjA0NmMtLjA0NDItLjIyNzktLjEtLjMzOTQtLjQyMzctLjMzOTRoLS40NjI1YS40NDQ2LjQ0NDYsMCwwLDAtLjQzNzUuMzU1bC0yLjA2LDE2LjYxTDE2LjU3ODYsNDQuMjdhLjY2MDYuNjYwNiwwLDAsMCwuNjYuNjZINDUuMTIzYS42NjA2LjY2MDYsMCwwLDAsLjY2LS42NlYyNy43NzFsLTUuOTY3OCw0LjQ0NzhhMS41NywxLjU3LDAsMCwxLS44MzIuMjUwOSwxLjUxNzgsMS41MTc4LDAsMCwxLTEuNTE1Ni0xLjUxNjFMMzcuNDYsMjcuNzgxN2wtNS40MzI3LDQuNDAwOWEuNjMxMi42MzEyLDAsMCwxLS4xMDQ0LjA3MTMsMS41MTYyLDEuNTE2MiwwLDAsMS0yLjI1ODgtMS4zMjE4bC0uMDA5My0zLjA4NDQtNC43MDM2LDQuMzM1OWEuNjk2OS42OTY5LDAsMCwxLS4xLjA3NzEsMS41MDE5LDEuNTAxOSwwLDAsMS0uNTE2Ni4yMTM5LDEuNTIzMiwxLjUyMzIsMCwwLDEtMS43OTQtMS4xNzcyUzIwLjAwMTMsMTcuNDMyNSwxOS45NTcsMTcuMjA0NloiIHRyYW5zZm9ybT0idHJhbnNsYXRlKC0xMy42NjE0IC0xMy45NDc3KSIvPjxwYXRoIGQ9Ik00Mi42NTkyLDM4LjY3ODdoLTMuODNhLjc1Ljc1LDAsMCwxLDAtMS41aDMuODNhLjc1Ljc1LDAsMCwxLDAsMS41WiIgdHJhbnNmb3JtPSJ0cmFuc2xhdGUoLTEzLjY2MTQgLTEzLjk0NzcpIi8+PC9nPjxnIGlkPSJFYmVuZV80IiBkYXRhLW5hbWU9IkViZW5lIDQiPjxyZWN0IGNsYXNzPSJjbHMtMSIgd2lkdGg9IjM1LjAzOTEiIGhlaWdodD0iMzMuODk5NSIvPjwvZz48L3N2Zz4=;" vertex="1" parent="1">
          <mxGeometry x="400" y="500" width="62" height="60" as="geometry" />
        </mxCell>
        <mxCell id="d-CWmxk7Mh6oMbrWVQdX-44" value="" style="shape=image;aspect=fixed;image=data:image/svg+xml,PHN2ZyB4bWxucz0iaHR0cDovL3d3dy53My5vcmcvMjAwMC9zdmciIHZpZXdCb3g9IjAgMCAyOS4zNDk5IDQxLjE4NDYiPjxkZWZzPjxzdHlsZT4uY2xzLTF7ZmlsbDpub25lO308L3N0eWxlPjwvZGVmcz48ZyBpZD0iRWJlbmVfMiIgZGF0YS1uYW1lPSJFYmVuZSAyIj48cGF0aCBkPSJNNDIuNDYxNiwyNi40MjU4SDM5LjA3MjlWMTguODQ4NmEyLjAzODMsMi4wMzgzLDAsMCwwLTIuMDM2MS0yLjAzNjFoLTUuMVYxMi43NTU5YS43NS43NSwwLDAsMC0xLjUsMHY0LjA1NjZIMjUuMTUyYTIuMDM4NywyLjAzODcsMCwwLDAtMi4wMzYxLDIuMDM2MXY3LjU3NzJIMTkuOTAxMWExLjk4LDEuOTgsMCwwLDAtMS45NzgxLDEuOTc3NVY0OC4zNzg5YTEuOTgsMS45OCwwLDAsMCwxLjk3ODEsMS45Nzc1aDIyLjU2YTEuOTc5MywxLjk3OTMsMCwwLDAsMS45Nzc2LTEuOTc3NVYyOC40MDMzQTEuOTgsMS45OCwwLDAsMCw0Mi40NjE2LDI2LjQyNThaTTI0LjYxNTksMTguODQ4NmEuNTM3LjUzNywwLDAsMSwuNTM2MS0uNTM2MUgzNy4wMzY4YS41MzY3LjUzNjcsMCwwLDEsLjUzNjEuNTM2MXY3LjU3NzJIMjQuNjE1OVptMTguMzIzMywyOS41M2EuNDc3Ni40Nzc2LDAsMCwxLS40Nzc2LjQ3NzVoLTIyLjU2YS40NzguNDc4LDAsMCwxLS40NzgxLS40Nzc1VjI4LjQwMzNhLjQ3ODQuNDc4NCwwLDAsMSwuNDc4MS0uNDc3NWgyMi41NmEuNDc3OS40Nzc5LDAsMCwxLC40Nzc2LjQ3NzVaIiB0cmFuc2Zvcm09InRyYW5zbGF0ZSgtMTYuNTA2MSAtMTAuNTg4OSkiLz48cGF0aCBkPSJNMzMuMDkyNSwzMS4yMzI0aC0zLjk5YS43NS43NSwwLDAsMCwwLDEuNWgzLjk5YS43NS43NSwwLDAsMCwwLTEuNVoiIHRyYW5zZm9ybT0idHJhbnNsYXRlKC0xNi41MDYxIC0xMC41ODg5KSIvPjxwYXRoIGQ9Ik0yMS44Nzc2LDMyLjczMjRoMy45NzY2YS43NS43NSwwLDAsMCwwLTEuNUgyMS44Nzc2YS43NS43NSwwLDAsMCwwLDEuNVoiIHRyYW5zZm9ybT0idHJhbnNsYXRlKC0xNi41MDYxIC0xMC41ODg5KSIvPjxwYXRoIGQ9Ik0zMy4wOTI1LDM2LjAzOTFIMjkuMDc4OGEuNzUuNzUsMCwxLDAsMCwxLjVoNC4wMTM3YS43NS43NSwwLDAsMCwwLTEuNVoiIHRyYW5zZm9ybT0idHJhbnNsYXRlKC0xNi41MDYxIC0xMC41ODg5KSIvPjxwYXRoIGQ9Ik0yMS44Nzc2LDM3LjUzOTFoNC4wMTEzYS43NS43NSwwLDAsMCwwLTEuNUgyMS44Nzc2YS43NS43NSwwLDAsMCwwLDEuNVoiIHRyYW5zZm9ybT0idHJhbnNsYXRlKC0xNi41MDYxIC0xMC41ODg5KSIvPjxwYXRoIGQ9Ik0zMy4wOTI1LDQwLjg0NTdIMjkuMDEwOWEuNzUuNzUsMCwwLDAsMCwxLjVoNC4wODE2YS43NS43NSwwLDAsMCwwLTEuNVoiIHRyYW5zZm9ybT0idHJhbnNsYXRlKC0xNi41MDYxIC0xMC41ODg5KSIvPjxwYXRoIGQ9Ik00MC4zNTEzLDMxLjIzMjRoLTMuOTlhLjc1Ljc1LDAsMCwwLDAsMS41aDMuOTlhLjc1Ljc1LDAsMCwwLDAtMS41WiIgdHJhbnNmb3JtPSJ0cmFuc2xhdGUoLTE2LjUwNjEgLTEwLjU4ODkpIi8+PHBhdGggZD0iTTQwLjM1MTMsMzYuMDM5MUgzNi4zMzc2YS43NS43NSwwLDAsMCwwLDEuNWg0LjAxMzdhLjc1Ljc1LDAsMCwwLDAtMS41WiIgdHJhbnNmb3JtPSJ0cmFuc2xhdGUoLTE2LjUwNjEgLTEwLjU4ODkpIi8+PHBhdGggZD0iTTQwLjM1MTMsNDAuODQ1N0gzNi4yNjkyYS43NS43NSwwLDAsMCwwLDEuNWg0LjA4MjFhLjc1Ljc1LDAsMCwwLDAtMS41WiIgdHJhbnNmb3JtPSJ0cmFuc2xhdGUoLTE2LjUwNjEgLTEwLjU4ODkpIi8+PHBhdGggZD0iTTI1LjkxMTgsNDAuODQ1N0gyMS44Nzc2YS43NS43NSwwLDAsMCwwLDEuNWg0LjAzNDJhLjc1Ljc1LDAsMCwwLDAtMS41WiIgdHJhbnNmb3JtPSJ0cmFuc2xhdGUoLTE2LjUwNjEgLTEwLjU4ODkpIi8+PHBhdGggZD0iTTMzLjE3LDIxLjU5MjhIMjkuMTkzMWEuNzUuNzUsMCwwLDAsMCwxLjVIMzMuMTdhLjc1Ljc1LDAsMCwwLDAtMS41WiIgdHJhbnNmb3JtPSJ0cmFuc2xhdGUoLTE2LjUwNjEgLTEwLjU4ODkpIi8+PC9nPjxnIGlkPSJFYmVuZV80IiBkYXRhLW5hbWU9IkViZW5lIDQiPjxyZWN0IGNsYXNzPSJjbHMtMSIgd2lkdGg9IjI5LjM0OTkiIGhlaWdodD0iNDEuMTg0NiIvPjwvZz48L3N2Zz4=;" vertex="1" parent="1">
          <mxGeometry x="555.7799999999999" y="432" width="44.22" height="62" as="geometry" />
        </mxCell>
        <mxCell id="d-CWmxk7Mh6oMbrWVQdX-46" value="" style="shape=image;aspect=fixed;image=data:image/svg+xml,PHN2ZyB4bWxucz0iaHR0cDovL3d3dy53My5vcmcvMjAwMC9zdmciIHZpZXdCb3g9IjAgMCAyOS4zNDk5IDQxLjE4NDYiPjxkZWZzPjxzdHlsZT4uY2xzLTF7ZmlsbDpub25lO308L3N0eWxlPjwvZGVmcz48ZyBpZD0iRWJlbmVfMiIgZGF0YS1uYW1lPSJFYmVuZSAyIj48cGF0aCBkPSJNNDIuNDYxNiwyNi40MjU4SDM5LjA3MjlWMTguODQ4NmEyLjAzODMsMi4wMzgzLDAsMCwwLTIuMDM2MS0yLjAzNjFoLTUuMVYxMi43NTU5YS43NS43NSwwLDAsMC0xLjUsMHY0LjA1NjZIMjUuMTUyYTIuMDM4NywyLjAzODcsMCwwLDAtMi4wMzYxLDIuMDM2MXY3LjU3NzJIMTkuOTAxMWExLjk4LDEuOTgsMCwwLDAtMS45NzgxLDEuOTc3NVY0OC4zNzg5YTEuOTgsMS45OCwwLDAsMCwxLjk3ODEsMS45Nzc1aDIyLjU2YTEuOTc5MywxLjk3OTMsMCwwLDAsMS45Nzc2LTEuOTc3NVYyOC40MDMzQTEuOTgsMS45OCwwLDAsMCw0Mi40NjE2LDI2LjQyNThaTTI0LjYxNTksMTguODQ4NmEuNTM3LjUzNywwLDAsMSwuNTM2MS0uNTM2MUgzNy4wMzY4YS41MzY3LjUzNjcsMCwwLDEsLjUzNjEuNTM2MXY3LjU3NzJIMjQuNjE1OVptMTguMzIzMywyOS41M2EuNDc3Ni40Nzc2LDAsMCwxLS40Nzc2LjQ3NzVoLTIyLjU2YS40NzguNDc4LDAsMCwxLS40NzgxLS40Nzc1VjI4LjQwMzNhLjQ3ODQuNDc4NCwwLDAsMSwuNDc4MS0uNDc3NWgyMi41NmEuNDc3OS40Nzc5LDAsMCwxLC40Nzc2LjQ3NzVaIiB0cmFuc2Zvcm09InRyYW5zbGF0ZSgtMTYuNTA2MSAtMTAuNTg4OSkiLz48cGF0aCBkPSJNMzMuMDkyNSwzMS4yMzI0aC0zLjk5YS43NS43NSwwLDAsMCwwLDEuNWgzLjk5YS43NS43NSwwLDAsMCwwLTEuNVoiIHRyYW5zZm9ybT0idHJhbnNsYXRlKC0xNi41MDYxIC0xMC41ODg5KSIvPjxwYXRoIGQ9Ik0yMS44Nzc2LDMyLjczMjRoMy45NzY2YS43NS43NSwwLDAsMCwwLTEuNUgyMS44Nzc2YS43NS43NSwwLDAsMCwwLDEuNVoiIHRyYW5zZm9ybT0idHJhbnNsYXRlKC0xNi41MDYxIC0xMC41ODg5KSIvPjxwYXRoIGQ9Ik0zMy4wOTI1LDM2LjAzOTFIMjkuMDc4OGEuNzUuNzUsMCwxLDAsMCwxLjVoNC4wMTM3YS43NS43NSwwLDAsMCwwLTEuNVoiIHRyYW5zZm9ybT0idHJhbnNsYXRlKC0xNi41MDYxIC0xMC41ODg5KSIvPjxwYXRoIGQ9Ik0yMS44Nzc2LDM3LjUzOTFoNC4wMTEzYS43NS43NSwwLDAsMCwwLTEuNUgyMS44Nzc2YS43NS43NSwwLDAsMCwwLDEuNVoiIHRyYW5zZm9ybT0idHJhbnNsYXRlKC0xNi41MDYxIC0xMC41ODg5KSIvPjxwYXRoIGQ9Ik0zMy4wOTI1LDQwLjg0NTdIMjkuMDEwOWEuNzUuNzUsMCwwLDAsMCwxLjVoNC4wODE2YS43NS43NSwwLDAsMCwwLTEuNVoiIHRyYW5zZm9ybT0idHJhbnNsYXRlKC0xNi41MDYxIC0xMC41ODg5KSIvPjxwYXRoIGQ9Ik00MC4zNTEzLDMxLjIzMjRoLTMuOTlhLjc1Ljc1LDAsMCwwLDAsMS41aDMuOTlhLjc1Ljc1LDAsMCwwLDAtMS41WiIgdHJhbnNmb3JtPSJ0cmFuc2xhdGUoLTE2LjUwNjEgLTEwLjU4ODkpIi8+PHBhdGggZD0iTTQwLjM1MTMsMzYuMDM5MUgzNi4zMzc2YS43NS43NSwwLDAsMCwwLDEuNWg0LjAxMzdhLjc1Ljc1LDAsMCwwLDAtMS41WiIgdHJhbnNmb3JtPSJ0cmFuc2xhdGUoLTE2LjUwNjEgLTEwLjU4ODkpIi8+PHBhdGggZD0iTTQwLjM1MTMsNDAuODQ1N0gzNi4yNjkyYS43NS43NSwwLDAsMCwwLDEuNWg0LjA4MjFhLjc1Ljc1LDAsMCwwLDAtMS41WiIgdHJhbnNmb3JtPSJ0cmFuc2xhdGUoLTE2LjUwNjEgLTEwLjU4ODkpIi8+PHBhdGggZD0iTTI1LjkxMTgsNDAuODQ1N0gyMS44Nzc2YS43NS43NSwwLDAsMCwwLDEuNWg0LjAzNDJhLjc1Ljc1LDAsMCwwLDAtMS41WiIgdHJhbnNmb3JtPSJ0cmFuc2xhdGUoLTE2LjUwNjEgLTEwLjU4ODkpIi8+PHBhdGggZD0iTTMzLjE3LDIxLjU5MjhIMjkuMTkzMWEuNzUuNzUsMCwwLDAsMCwxLjVIMzMuMTdhLjc1Ljc1LDAsMCwwLDAtMS41WiIgdHJhbnNmb3JtPSJ0cmFuc2xhdGUoLTE2LjUwNjEgLTEwLjU4ODkpIi8+PC9nPjxnIGlkPSJFYmVuZV80IiBkYXRhLW5hbWU9IkViZW5lIDQiPjxyZWN0IGNsYXNzPSJjbHMtMSIgd2lkdGg9IjI5LjM0OTkiIGhlaWdodD0iNDEuMTg0NiIvPjwvZz48L3N2Zz4=;" vertex="1" parent="1">
          <mxGeometry x="555.7799999999999" y="574" width="44.22" height="62" as="geometry" />
        </mxCell>
        <mxCell id="d-CWmxk7Mh6oMbrWVQdX-47" value="" style="endArrow=block;html=1;strokeWidth=3;endFill=0;strokeColor=#3AAA35;fontSize=20;fontColor=#E42313;targetPerimeterSpacing=10;sourcePerimeterSpacing=10;rounded=0;entryX=0;entryY=0.75;entryDx=0;entryDy=0;exitX=1;exitY=0.75;exitDx=0;exitDy=0;" edge="1" parent="1" source="d-CWmxk7Mh6oMbrWVQdX-43" target="d-CWmxk7Mh6oMbrWVQdX-44">
          <mxGeometry width="50" height="50" relative="1" as="geometry">
            <mxPoint x="510" y="530" as="sourcePoint" />
            <mxPoint x="560" y="520" as="targetPoint" />
            <Array as="points" />
          </mxGeometry>
        </mxCell>
        <mxCell id="d-CWmxk7Mh6oMbrWVQdX-48" value="" style="endArrow=block;html=1;strokeWidth=3;endFill=0;strokeColor=#3AAA35;fontSize=20;fontColor=#E42313;targetPerimeterSpacing=10;sourcePerimeterSpacing=10;rounded=0;entryX=0;entryY=0.75;entryDx=0;entryDy=0;exitX=1;exitY=0.75;exitDx=0;exitDy=0;" edge="1" parent="1" source="d-CWmxk7Mh6oMbrWVQdX-43">
          <mxGeometry width="50" height="50" relative="1" as="geometry">
            <mxPoint x="490" y="539" as="sourcePoint" />
            <mxPoint x="628.8899999999999" y="546.5" as="targetPoint" />
            <Array as="points" />
          </mxGeometry>
        </mxCell>
        <mxCell id="d-CWmxk7Mh6oMbrWVQdX-49" value="" style="endArrow=block;html=1;strokeWidth=3;endFill=0;strokeColor=#3AAA35;fontSize=20;fontColor=#E42313;targetPerimeterSpacing=10;sourcePerimeterSpacing=10;rounded=0;entryX=0;entryY=0.75;entryDx=0;entryDy=0;exitX=1;exitY=0.75;exitDx=0;exitDy=0;" edge="1" parent="1" source="d-CWmxk7Mh6oMbrWVQdX-43" target="d-CWmxk7Mh6oMbrWVQdX-46">
          <mxGeometry width="50" height="50" relative="1" as="geometry">
            <mxPoint x="440" y="580" as="sourcePoint" />
            <mxPoint x="580" y="540" as="targetPoint" />
            <Array as="points" />
          </mxGeometry>
        </mxCell>
        <mxCell id="d-CWmxk7Mh6oMbrWVQdX-54" value="" style="shape=image;verticalLabelPosition=bottom;verticalAlign=top;imageAspect=0;aspect=fixed;image=data:image/svg+xml,PHN2ZyB4bWxucz0iaHR0cDovL3d3dy53My5vcmcvMjAwMC9zdmciIHZpZXdCb3g9IjAgMCAzNC4wMTU3MDEyOTM5NDUzMSA0MS44MTEwMDA4MjM5NzQ2MSIgd2lkdGg9IjM0LjAxNTcwMTI5Mzk0NTMxIiBoZWlnaHQ9IjQxLjgxMTAwMDgyMzk3NDYxIj48ZGVmcz48c3R5bGU+LmNscy0xe2ZpbGw6bm9uZTt9PC9zdHlsZT48L2RlZnM+PGcgaWQ9IkViZW5lXzIiIGRhdGEtbmFtZT0iRWJlbmUgMiI+PHBhdGggZD0iTTQyLjY5NzYsMTMuMTkyOWEyLjU3NywyLjU3NywwLDAsMSwyLjU3NDEsMi41NzQxVjQ2LjYwMjRhMi41NzcsMi41NzcsMCwwLDEtMi41NzQxLDIuNTc0MUgxOS42NjQ2YTIuNTc2OSwyLjU3NjksMCwwLDEtMi41NzQtMi41NzQxVjE1Ljc2N2EyLjU3NjksMi41NzY5LDAsMCwxLDIuNTc0LTIuNTc0MWgyMy4wMzNtMC0xLjVIMTkuNjY0NmE0LjA3NCw0LjA3NCwwLDAsMC00LjA3NCw0LjA3NDFWNDYuNjAyNGE0LjA3NCw0LjA3NCwwLDAsMCw0LjA3NCw0LjA3NDFoMjMuMDMzYTQuMDc0MSw0LjA3NDEsMCwwLDAsNC4wNzQxLTQuMDc0MVYxNS43NjdhNC4wNzQxLDQuMDc0MSwwLDAsMC00LjA3NDEtNC4wNzQxWiIgdHJhbnNmb3JtPSJ0cmFuc2xhdGUoLTE0LjE3MzIgLTEwLjI3NTYpIi8+PHBhdGggZD0iTTQyLjcwOTEsNDcuNjdhMS4wNjI4LDEuMDYyOCwwLDEsMSwxLjA2MjgtMS4wNjI4QTEuMDQwOCwxLjA0MDgsMCwwLDEsNDIuNzA5MSw0Ny42N1oiIHRyYW5zZm9ybT0idHJhbnNsYXRlKC0xNC4xNzMyIC0xMC4yNzU2KSIvPjxwYXRoIGQ9Ik0xOS42NjgzLDQ3LjY1NDNhMS4wNjI4LDEuMDYyOCwwLDEsMSwxLjA2MjctMS4wNjI3QTEuMDQwNiwxLjA0MDYsMCwwLDEsMTkuNjY4Myw0Ny42NTQzWiIgdHJhbnNmb3JtPSJ0cmFuc2xhdGUoLTE0LjE3MzIgLTEwLjI3NTYpIi8+PHBhdGggZD0iTTE5LjY1NzgsMTYuODIyOUExLjA2MjgsMS4wNjI4LDAsMSwxLDIwLjcyMDUsMTUuNzYsMS4wNDA3LDEuMDQwNywwLDAsMSwxOS42NTc4LDE2LjgyMjlaIiB0cmFuc2Zvcm09InRyYW5zbGF0ZSgtMTQuMTczMiAtMTAuMjc1NikiLz48cGF0aCBkPSJNMTkuNjU3OCwxNi44MjI5QTEuMDYyOCwxLjA2MjgsMCwxLDEsMjAuNzIwNSwxNS43NiwxLjA0MDcsMS4wNDA3LDAsMCwxLDE5LjY1NzgsMTYuODIyOVoiIHRyYW5zZm9ybT0idHJhbnNsYXRlKC0xNC4xNzMyIC0xMC4yNzU2KSIvPjxwYXRoIGQ9Ik0xOS42NTc4LDE2LjgyMjlBMS4wNjI4LDEuMDYyOCwwLDEsMSwyMC43MjA1LDE1Ljc2LDEuMDQwNywxLjA0MDcsMCwwLDEsMTkuNjU3OCwxNi44MjI5WiIgdHJhbnNmb3JtPSJ0cmFuc2xhdGUoLTE0LjE3MzIgLTEwLjI3NTYpIi8+PHBhdGggZD0iTTQyLjcwOTEsMTYuODIyOUExLjA2MjgsMS4wNjI4LDAsMSwxLDQzLjc3MTksMTUuNzYsMS4wNDA4LDEuMDQwOCwwLDAsMSw0Mi43MDkxLDE2LjgyMjlaIiB0cmFuc2Zvcm09InRyYW5zbGF0ZSgtMTQuMTczMiAtMTAuMjc1NikiLz48cGF0aCBkPSJNNDIuNzA5MiwxNi44MjI5QTEuMDQwOCwxLjA0MDgsMCwwLDAsNDMuNzcxOSwxNS43NmExLjA2MjgsMS4wNjI4LDAsMSwwLTEuMDYyNywxLjA2MjhaIiB0cmFuc2Zvcm09InRyYW5zbGF0ZSgtMTQuMTczMiAtMTAuMjc1NikiLz48cGF0aCBkPSJNMzguOTA2LDE3LjI2YTQuMTQyNSw0LjE0MjUsMCwwLDAsMi4zMDMyLDIuMzEzMlYzOC41MzY5YS44OTcxLjg5NzEsMCwwLDEtLjg5NjEuODk2MUgzNi45NWExMi42ODQsMTIuNjg0LDAsMCwxLTEyLjY3LTEyLjY3di04LjZhLjkwNDYuOTA0NiwwLDAsMSwuOTAzNi0uOTAzNkgzOC45MDZtMS4yMTQ3LTEuNUgyNS4xODRBMi40MDM2LDIuNDAzNiwwLDAsMCwyMi43OCwxOC4xNjM3djguNmExNC4xNywxNC4xNywwLDAsMCwxNC4xNywxNC4xN2gzLjM2M2EyLjM5NjEsMi4zOTYxLDAsMCwwLDIuMzk2MS0yLjM5NjFWMTguMzY1NkEyLjYwODIsMi42MDgyLDAsMCwxLDQwLjEyMDcsMTUuNzZaIiB0cmFuc2Zvcm09InRyYW5zbGF0ZSgtMTQuMTczMiAtMTAuMjc1NikiLz48cGF0aCBkPSJNMjcuNjI4NiwyOC40NzhhMy44MTQ3LDMuODE0NywwLDAsMS0xLjI1NDktLjIwNTEsMy4wNCwzLjA0LDAsMCwxLTEuMDUxMi0uNjE1N2wuNzU5Mi0uOTA5MmEyLjUwMywyLjUwMywwLDAsMCwxLjU5NjIuNTkwOS44MTI3LjgxMjcsMCwwLDAsLjQxODUtLjA4NzkuMjc2Ni4yNzY2LDAsMCwwLC4xNDQtLjI0OXYtLjAxNDJhLjI2MzkuMjYzOSwwLDAsMC0uMDM1MS0uMTM2Ny4zNTIzLjM1MjMsMCwwLDAtLjEzLS4xMTU3LDEuMzE1MSwxLjMxNTEsMCwwLDAtLjI1MjktLjEwODlxLS4xNTgyLS4wNTI4LS40MTEyLS4xMDg5LS4zOTQtLjA5MDktLjczMTQtLjJhMi4yMywyLjIzLDAsMCwxLS41ODc0LS4yODA4LDEuMTk4MywxLjE5ODMsMCwwLDEtLjUzNzYtMS4wNjM1VjI0Ljk2YTEuNTEzMywxLjUxMzMsMCwwLDEsLjEzLS42MzE5LDEuNDA0NiwxLjQwNDYsMCwwLDEsLjM4LS40OTg1LDEuNzkzNCwxLjc5MzQsMCwwLDEsLjYwMS0uMzI2MiwyLjUzODMsMi41MzgzLDAsMCwxLC43OTQ1LS4xMTU3LDMuNTQ2MywzLjU0NjMsMCwwLDEsMS4xMjg5LjE2NiwyLjg0ODYsMi44NDg2LDAsMCwxLC44OTY1LjQ5MTdsLS42ODIyLjk2NjNhMi43NzI5LDIuNzcyOSwwLDAsMC0uNjkyOC0uMzYxOCwyLjA4NzUsMi4wODc1LDAsMCwwLS42ODU2LS4xMjMuNjE1My42MTUzLDAsMCwwLS4zNjkxLjA5MTMuMjcxLjI3MSwwLDAsMC0uMTIzMS4yMjQ2di4wMTM3YS4yNzU2LjI3NTYsMCwwLDAsLjAzOTEuMTQ3NC4zNS4zNSwwLDAsMCwuMTMzMy4xMTU3LDEuNDcsMS40NywwLDAsMCwuMjYuMTA1NXEuMTY0OS4wNTI4LjQxODUuMTA4OWE1Ljg5ODEsNS44OTgxLDAsMCwxLC43NjI3LjIxMzksMi4yOSwyLjI5LDAsMCwxLC41OC4yOTgzLDEuMTk2NCwxLjE5NjQsMCwwLDEsLjM2NTcuNDI0OCwxLjI5MzYsMS4yOTM2LDAsMCwxLC4xMjY1LjU5MzN2LjAxMzZhMS41MTIxLDEuNTEyMSwwLDAsMS0uMTQ0MS42NzM5LDEuNDQzNiwxLjQ0MzYsMCwwLDEtLjQwNDMuNTAxOSwxLjgxODQsMS44MTg0LDAsMCwxLS42MjYuMzE1OUEyLjg0MzksMi44NDM5LDAsMCwxLDI3LjYyODYsMjguNDc4WiIgdHJhbnNmb3JtPSJ0cmFuc2xhdGUoLTE0LjE3MzIgLTEwLjI3NTYpIi8+PHBhdGggZD0iTTMyLjU1LDI4LjQ3OGEzLjgxNTUsMy44MTU1LDAsMCwxLTEuMjU1NC0uMjA1MSwzLjA0LDMuMDQsMCwwLDEtMS4wNTEyLS42MTU3bC43NTkzLS45MDkyYTIuNTAyNiwyLjUwMjYsMCwwLDAsMS41OTYxLjU5MDkuODEuODEsMCwwLDAsLjQxOC0uMDg3OS4yNzUyLjI3NTIsMCwwLDAsLjE0NDUtLjI0OXYtLjAxNDJhLjI2MzkuMjYzOSwwLDAsMC0uMDM1MS0uMTM2Ny4zNS4zNSwwLDAsMC0uMTMtLjExNTcsMS4zMjkxLDEuMzI5MSwwLDAsMC0uMjUyOS0uMTA4OWMtLjEwNTUtLjAzNTItLjI0MzItLjA3MTMtLjQxMjEtLjEwODktLjI2MjctLjA2MDYtLjUwNTktLjEyNzUtLjczMTUtLjJhMi4yMzM2LDIuMjMzNiwwLDAsMS0uNTg2OS0uMjgwOCwxLjE5ODgsMS4xOTg4LDAsMCwxLS41Mzc2LTEuMDYzNVYyNC45NmExLjUxMzMsMS41MTMzLDAsMCwxLC4xMy0uNjMxOSwxLjQwNDYsMS40MDQ2LDAsMCwxLC4zOC0uNDk4NSwxLjc5MzQsMS43OTM0LDAsMCwxLC42MDEtLjMyNjIsMi41NDExLDIuNTQxMSwwLDAsMSwuNzk1LS4xMTU3LDMuNTM3OCwzLjUzNzgsMCwwLDEsMS4xMjc5LjE2NiwyLjgzNjYsMi44MzY2LDAsMCwxLC44OTY1LjQ5MTdsLS42ODE3Ljk2NjNhMi43NywyLjc3LDAsMCwwLS42OTIzLS4zNjE4LDIuMDk2MSwyLjA5NjEsMCwwLDAtLjY4NTYtLjEyMy42MTUzLjYxNTMsMCwwLDAtLjM2OTEuMDkxMy4yNzEuMjcxLDAsMCwwLS4xMjMxLjIyNDZ2LjAxMzdhLjI3MTMuMjcxMywwLDAsMCwuMDM5MS4xNDc0LjM1MTguMzUxOCwwLDAsMCwuMTMyOC4xMTU3LDEuNDkzNCwxLjQ5MzQsMCwwLDAsLjI2LjEwNTVxLjE2NTQuMDUyOC40MTg5LjEwODlhNS45MTYyLDUuOTE2MiwwLDAsMSwuNzYyNy4yMTM5LDIuMjksMi4yOSwwLDAsMSwuNTguMjk4MywxLjIwNjksMS4yMDY5LDAsMCwxLC4zNjYyLjQyNDgsMS4zLDEuMywwLDAsMSwuMTI2LjU5MzN2LjAxMzZhMS41MTg4LDEuNTE4OCwwLDAsMS0uMTQzNi42NzM5LDEuNDU1LDEuNDU1LDAsMCwxLS40MDQzLjUwMTksMS44MzIsMS44MzIsMCwwLDEtLjYyNi4zMTU5QTIuODQ2NCwyLjg0NjQsMCwwLDEsMzIuNTUsMjguNDc4WiIgdHJhbnNmb3JtPSJ0cmFuc2xhdGUoLTE0LjE3MzIgLTEwLjI3NTYpIi8+PHBhdGggZD0iTTM1LjUzNzYsMjMuNDcxN2gxLjlhMy41OCwzLjU4LDAsMCwxLDEuMTc3Ny4xNzkyLDIuNDkxMiwyLjQ5MTIsMCwwLDEsLjg3MTEuNTAyNCwyLjE0MzksMi4xNDM5LDAsMCwxLC41NDIuNzcsMi41Mjg2LDIuNTI4NiwwLDAsMSwuMTg2NS45ODF2LjAxNDJhMi41MjQ5LDIuNTI0OSwwLDAsMS0uMTkuOTg3NywyLjIyLDIuMjIsMCwwLDEtLjU0NzkuNzg0MiwyLjU0NTEsMi41NDUxLDAsMCwxLS44ODI4LjUxNjYsMy41MTQ4LDMuNTE0OCwwLDAsMS0xLjE4NDYuMTg2NkgzNS41Mzc2Wk0zNy40NiwyNy4xODQxYTEuNDU4NywxLjQ1ODcsMCwwLDAsLjk4ODMtLjMyMzMsMS4xNTM2LDEuMTUzNiwwLDAsMCwuMzc0LS45MjEzdi0uMDE0MmExLjE1NTcsMS4xNTU3LDAsMCwwLS4zNzQtLjkxNzUsMS40NDg1LDEuNDQ4NSwwLDAsMC0uOTg4My0uMzI3MWgtLjU1NzZ2Mi41MDM0WiIgdHJhbnNmb3JtPSJ0cmFuc2xhdGUoLTE0LjE3MzIgLTEwLjI3NTYpIi8+PC9nPjxnIGlkPSJFYmVuZV80IiBkYXRhLW5hbWU9IkViZW5lIDQiPjxyZWN0IGNsYXNzPSJjbHMtMSIgd2lkdGg9IjM0LjAxNTciIGhlaWdodD0iNDEuODExIi8+PC9nPjwvc3ZnPg==" vertex="1" parent="1">
          <mxGeometry x="724.3999999999999" y="192" width="50.19" height="62" as="geometry" />
        </mxCell>
        <mxCell id="d-CWmxk7Mh6oMbrWVQdX-55" value="" style="shape=image;verticalLabelPosition=bottom;verticalAlign=top;imageAspect=0;aspect=fixed;image=data:image/svg+xml,PHN2ZyB4bWxucz0iaHR0cDovL3d3dy53My5vcmcvMjAwMC9zdmciIHZpZXdCb3g9IjAgMCAzOS43NjcyMDA0Njk5NzA3IDM4LjIyODAwMDY0MDg2OTE0IiB3aWR0aD0iMzkuNzY3MjAwNDY5OTcwNyIgaGVpZ2h0PSIzOC4yMjgwMDA2NDA4NjkxNCI+PGRlZnM+PHN0eWxlPi5jbHMtMXtmaWxsOm5vbmU7fTwvc3R5bGU+PC9kZWZzPjxnIGlkPSJFYmVuZV8yIiBkYXRhLW5hbWU9IkViZW5lIDIiPjxwYXRoIGQ9Ik00OS40OTIyLDQ1LjI0OHYtLjAwMDlsLTMuNDg1NC05Ljg2OTJBNS4wODQ2LDUuMDg0NiwwLDAsMCw0NC4wNDEsMzIuODVhMi42NjMsMi42NjMsMCwwLDAsLjk4NDQtMi4wNTcyVjE2LjE2MzZhMi42ODIsMi42ODIsMCwwLDAtMi42Nzg3LTIuNjc4N0gyMC4wMTQ2YTIuNjgxNywyLjY4MTcsMCwwLDAtMi42Nzg3LDIuNjc4N1YzMC43OTNBMi42NjI5LDIuNjYyOSwwLDAsMCwxOC4zMiwzMi44NSw1LjA5LDUuMDksMCwwLDAsMTYuMzUzLDM1LjM3N2wtMy40ODM5LDkuODcxYTIuNzI0MSwyLjcyNDEsMCwwLDAsMi41Njg5LDMuNjI5SDQ2LjkyMzhhMi43MjQ0LDIuNzI0NCwwLDAsMCwyLjU2ODQtMy42MjlaTTIwLjAxNDYsMzEuOTcxN2ExLjE4LDEuMTgsMCwwLDEtMS4xNzg3LTEuMTc4N1YxNi4xNjM2YTEuMTgsMS4xOCwwLDAsMSwxLjE3ODctMS4xNzg3SDQyLjM0NjdhMS4xOCwxLjE4LDAsMCwxLDEuMTc4NywxLjE3ODdWMzAuNzkzYTEuMTgsMS4xOCwwLDAsMS0xLjE3ODcsMS4xNzg3SDIwLjAxNDZaTTI2LjgzLDQ3LjM3N2wuODc4OS0yLjYzNjhhLjcwNzMuNzA3MywwLDAsMSwuNjcyNC0uNDg0M2g1LjZhLjcwNTcuNzA1NywwLDAsMSwuNjcxOC40ODQzbC44OCwyLjYzNjhabTIwLjUwMTUtLjA2OTRhMS4yMzUzLDEuMjM1MywwLDAsMS0uNDA3My4wNjk0aC05LjgxbC0xLjAzNzktMy4xMTE0YTIuMjA0NywyLjIwNDcsMCwwLDAtMi4wOTU3LTEuNTFoLTUuNmEyLjIwNDEsMi4yMDQxLDAsMCwwLTIuMDk1MywxLjUxTDI1LjI0ODUsNDcuMzc3aC05LjgxYTEuMjIzOSwxLjIyMzksMCwwLDEtMS4xNTQzLTEuNjNsMy40ODM0LTkuODdhMy42MTE2LDMuNjExNiwwLDAsMSwzLjQtMi40MDUzSDQxLjE5NDNhMy42MDY2LDMuNjA2NiwwLDAsMSwzLjM5ODUsMi40MDUzbDMuNDg1Myw5Ljg2OTFBMS4yMjY2LDEuMjI2NiwwLDAsMSw0Ny4zMzExLDQ3LjMwNzZaIiB0cmFuc2Zvcm09InRyYW5zbGF0ZSgtMTEuMjk3MSAtMTIuMDY2OSkiLz48cGF0aCBkPSJNMjIuNywzNi41OTM4SDIxLjE2YS43NS43NSwwLDAsMCwwLDEuNUgyMi43YS43NS43NSwwLDAsMCwwLTEuNVoiIHRyYW5zZm9ybT0idHJhbnNsYXRlKC0xMS4yOTcxIC0xMi4wNjY5KSIvPjxwYXRoIGQ9Ik0yNS43ODEyLDM4LjA5MzhoMS41NDA2YS43NS43NSwwLDAsMCwwLTEuNUgyNS43ODEyYS43NS43NSwwLDAsMCwwLDEuNVoiIHRyYW5zZm9ybT0idHJhbnNsYXRlKC0xMS4yOTcxIC0xMi4wNjY5KSIvPjxwYXRoIGQ9Ik0zNS4wMjQ0LDM4LjA5MzhoMS41NDFhLjc1Ljc1LDAsMCwwLDAtMS41aC0xLjU0MWEuNzUuNzUsMCwwLDAsMCwxLjVaIiB0cmFuc2Zvcm09InRyYW5zbGF0ZSgtMTEuMjk3MSAtMTIuMDY2OSkiLz48cGF0aCBkPSJNNDEuOTM2NSwzNy4zNDM4YS43NS43NSwwLDAsMC0uNzUtLjc1aC0xLjU0YS43NS43NSwwLDAsMCwwLDEuNWgxLjU0QS43NS43NSwwLDAsMCw0MS45MzY1LDM3LjM0MzhaIiB0cmFuc2Zvcm09InRyYW5zbGF0ZSgtMTEuMjk3MSAtMTIuMDY2OSkiLz48cGF0aCBkPSJNMzAuNDAyOCwzOC4wOTM4aDEuNTQwNmEuNzUuNzUsMCwwLDAsMC0xLjVIMzAuNDAyOGEuNzUuNzUsMCwwLDAsMCwxLjVaIiB0cmFuc2Zvcm09InRyYW5zbGF0ZSgtMTEuMjk3MSAtMTIuMDY2OSkiLz48cGF0aCBkPSJNMjEuMTYsMzkuNjc0OEgxOS42MTkxYS43NS43NSwwLDEsMCwwLDEuNUgyMS4xNmEuNzUuNzUsMCwwLDAsMC0xLjVaIiB0cmFuc2Zvcm09InRyYW5zbGF0ZSgtMTEuMjk3MSAtMTIuMDY2OSkiLz48cGF0aCBkPSJNMzguMTA1NSwzOS42NzQ4SDI0LjI0MDdhLjc1Ljc1LDAsMSwwLDAsMS41SDM4LjEwNTVhLjc1Ljc1LDAsMCwwLDAtMS41WiIgdHJhbnNmb3JtPSJ0cmFuc2xhdGUoLTExLjI5NzEgLTEyLjA2NjkpIi8+PHBhdGggZD0iTTQyLjcyNzUsMzkuNjc0OGgtMS41NDFhLjc1Ljc1LDAsMCwwLDAsMS41aDEuNTQxYS43NS43NSwwLDAsMCwwLTEuNVoiIHRyYW5zZm9ybT0idHJhbnNsYXRlKC0xMS4yOTcxIC0xMi4wNjY5KSIvPjwvZz48ZyBpZD0iRWJlbmVfNCIgZGF0YS1uYW1lPSJFYmVuZSA0Ij48cmVjdCBjbGFzcz0iY2xzLTEiIHdpZHRoPSIzOS43NjcyIiBoZWlnaHQ9IjM4LjIyOCIvPjwvZz48L3N2Zz4=" vertex="1" parent="1">
          <mxGeometry x="611.11" y="19.999999999999886" width="62" height="58.9" as="geometry" />
        </mxCell>
        <mxCell id="d-CWmxk7Mh6oMbrWVQdX-57" value="" style="shape=image;verticalLabelPosition=bottom;verticalAlign=top;imageAspect=0;aspect=fixed;image=data:image/svg+xml,PHN2ZyB4bWxucz0iaHR0cDovL3d3dy53My5vcmcvMjAwMC9zdmciIHZpZXdCb3g9IjAgMCAzNS4xODY1MDA1NDkzMTY0MDYgMzguMzQ0Mjk5MzE2NDA2MjUiIHdpZHRoPSIzNS4xODY1MDA1NDkzMTY0MDYiIGhlaWdodD0iMzguMzQ0Mjk5MzE2NDA2MjUiPjxkZWZzPjxzdHlsZT4uY2xzLTF7ZmlsbDpub25lO308L3N0eWxlPjwvZGVmcz48ZyBpZD0iRWJlbmVfMiIgZGF0YS1uYW1lPSJFYmVuZSAyIj48cGF0aCBkPSJNNDcuMjEyMSwyMS4yODE4QS43MzE3LjczMTcsMCwwLDAsNDcuMTQsMjEuMTZhMS40NiwxLjQ2LDAsMCwwLS41MzE2LS41NkwzMS45MzA3LDEyLjIwNjVhMS40OSwxLjQ5LDAsMCwwLTEuNDktLjAwMjRsLTE0LjY4NjUsOC4zOWExLjQ5NTUsMS40OTU1LDAsMCwwLS42NzQzLDEuNzY4bDEuMTMyOCwzLjM3MDZhMS40OTA5LDEuNDkwOSwwLDAsMCwxLjQxNDUsMS4wMmguMnYxNC44MTNoLS4yYTEuNDg5LDEuNDg5LDAsMCwwLTEuNDE0NSwxLjAybC0xLjA1OTEsMy4xODE2QTEuMzM0MywxLjMzNDMsMCwwLDAsMTYuNDIsNDcuNTIxNWwyOS4zNjQzLS4wMDU5YTEuNDU2MiwxLjQ1NjIsMCwwLDAsMS4zODE4LTEuOTE3bC0xLjAwNDktMy4wMTI3YTEuNDg5MiwxLjQ4OTIsMCwwLDAtMS40MTUtMS4wMjA1aC0uMTk5MlYyNi43NTI0aC4yYTEuNDksMS40OSwwLDAsMCwxLjQxNC0xLjAybDEuMTIyMS0zLjM2NjJ2LS4wMDFBMS40Nzg5LDEuNDc4OSwwLDAsMCw0Ny4yMTIxLDIxLjI4MThabS0xNi4wMjktNy43NzU1LDEyLjc1NzUsNy4yOTU1SDE4LjQxMzhaTTE5LjMyNzEsMjYuNzUyNGgzLjY2MTJ2MTQuODEzSDE5LjMyNzFabTguODIyMywwdjE0LjgxM0gyNC40ODgzVjI2Ljc1MjRabTUuMTYxMSwwdjE0LjgxM0gyOS42NDk0VjI2Ljc1MjRabTEuNSwxNC44MTNWMjYuNzUyNGgzLjY2MjJ2MTQuODEzWm0xMC45NzM3LDQuNDUtMjkuMTM0OC4wMDU5Ljk3OC0yLjk1NjEuOTIsMGMuMDEwNS4wMDA1LjAxOTMuMDA2MS4wMy4wMDYxaDI1LjIyYy4wMiwwLC4wMzcyLS4wMS4wNTctLjAxMTVsLjg4MzQsMFptLTIuNzM3My00LjQ1SDM5Ljk3MjdWMjYuNzUyNGgzLjA3NDJabTEuNjk5Mi0xNi4zMTMtLjk0ODYsMC0uMDAwNiwwaC0yNS4yMmMtLjAwNjYsMC0uMDEyLjAwMzYtLjAxODYuMDAzOGwtLjkyMzIsMC0xLTIuOTU0NUg0NS43MjM2WiIgdHJhbnNmb3JtPSJ0cmFuc2xhdGUoLTEzLjU4NTggLTEwLjU4ODYpIi8+PC9nPjxnIGlkPSJFYmVuZV80IiBkYXRhLW5hbWU9IkViZW5lIDQiPjxyZWN0IGNsYXNzPSJjbHMtMSIgd2lkdGg9IjM1LjE4NjUiIGhlaWdodD0iMzguMzQ0MyIvPjwvZz48L3N2Zz4=" vertex="1" parent="1">
          <mxGeometry x="630" y="510" width="57.11" height="62" as="geometry" />
        </mxCell>
      </root>
    </mxGraphModel>
  </diagram>
</mxfile>
